<svg width="42" height="40" viewBox="0 0 42 40" fill="none" xmlns="http://www.w3.org/2000/svg">
<path d="M37.9797 40H31.2468L31.7139 34.3266H28.4101L27.943 40H13.9987L13.5316 34.3266H10.2278L10.6949 40H3.96197L0.179688 15.4266L9.6354 0.308838H32.3177L41.7734 15.4266L37.9797 40ZM30.4266 7.8734H24.3544L24.7645 10.7101H17.2L17.6101 7.8734H11.5151L7.73286 15.438L9.624 30.5557H32.3063L34.1975 15.438L30.4266 7.8734ZM27.1114 25.5317C26.5873 25.5317 26.1658 23.9595 26.1658 22.0114C26.1658 20.0747 26.5873 18.4911 27.1114 18.4911C27.6354 18.4911 28.0569 20.0633 28.0569 22.0114C28.0569 23.9595 27.6354 25.5317 27.1114 25.5317ZM15.1835 25.8279C14.6595 25.8279 14.2379 24.2557 14.2379 22.3076C14.2379 20.3595 14.6595 18.7873 15.1835 18.7873C15.7076 18.7873 16.1291 20.3595 16.1291 22.3076C16.1291 24.2557 15.7076 25.8279 15.1835 25.8279Z" fill="#444444"/>
</svg>
