<svg width="80" height="35" viewBox="0 0 80 35" fill="none" xmlns="http://www.w3.org/2000/svg">
<path d="M7.35703 11.0947C7.21875 11.0947 7.18418 11.0251 7.25332 10.9205L7.97926 9.97986C8.0484 9.87534 8.22124 9.80566 8.35952 9.80566H20.7006C20.8388 9.80566 20.8734 9.91018 20.8043 10.0147L20.2166 10.9205C20.1475 11.0251 19.9746 11.1296 19.8709 11.1296L7.35703 11.0947Z" fill="#00ACD7"/>
<path d="M2.13828 14.3001C2 14.3001 1.96543 14.2304 2.03457 14.1259L2.76051 13.1852C2.82965 13.0807 3.00249 13.011 3.14077 13.011H18.9041C19.0424 13.011 19.1115 13.1155 19.077 13.22L18.8004 14.0562C18.7658 14.1955 18.6276 14.2652 18.4893 14.2652L2.13828 14.3001Z" fill="#00ACD7"/>
<path d="M10.5055 17.5053C10.3672 17.5053 10.3326 17.4007 10.4018 17.2962L10.8857 16.4252C10.9549 16.3207 11.0931 16.2162 11.2314 16.2162H18.1452C18.2834 16.2162 18.3526 16.3207 18.3526 16.4601L18.2834 17.2962C18.2834 17.4356 18.1452 17.5401 18.0415 17.5401L10.5055 17.5053Z" fill="#00ACD7"/>
<path d="M46.3849 10.4676C44.2071 11.0251 42.7206 11.4432 40.5774 12.0006C40.0588 12.14 40.0243 12.1748 39.5749 11.6522C39.0563 11.0599 38.6761 10.6767 37.9501 10.3283C35.7723 9.24826 33.6636 9.56182 31.6932 10.8509C29.3425 12.3838 28.1326 14.6484 28.1672 17.4704C28.2017 20.2576 30.103 22.557 32.834 22.9403C35.1846 23.2538 37.155 22.4177 38.7106 20.6408C39.0218 20.2576 39.2983 19.8395 39.644 19.3518C38.3995 19.3518 36.8439 19.3518 32.9722 19.3518C32.2463 19.3518 32.0734 18.8988 32.3154 18.3066C32.7648 17.2265 33.5945 15.4149 34.0784 14.5091C34.1821 14.3 34.4241 13.9516 34.9426 13.9516C36.7057 13.9516 43.2046 13.9516 47.5257 13.9516C47.4565 14.8923 47.4565 15.833 47.3183 16.7736C46.938 19.2821 46.0047 21.5815 44.4836 23.6022C41.9947 26.912 38.7452 28.9675 34.6315 29.5249C31.2438 29.9779 28.098 29.3159 25.3325 27.2255C22.7744 25.2745 21.3226 22.6964 20.9423 19.4911C20.4929 15.6936 21.5991 12.2793 23.8806 9.2831C26.335 6.04301 29.5845 3.98747 33.5599 3.25584C36.8094 2.66356 39.9206 3.0468 42.7206 4.96298C44.5528 6.18237 45.8664 7.85467 46.7306 9.87537C46.938 10.1889 46.7997 10.3631 46.3849 10.4676Z" fill="#00ACD7"/>
<path d="M57.8267 29.734C54.6809 29.6643 51.8117 28.7585 49.3919 26.6681C47.3523 24.8913 46.0733 22.6267 45.6585 19.9441C45.0362 16.0072 46.1079 12.5232 48.4585 9.42248C50.9821 6.07787 54.0241 4.33589 58.1378 3.60426C61.6638 2.97714 64.9824 3.32554 67.9899 5.38108C70.7208 7.26242 72.4147 9.80572 72.8641 13.1503C73.4517 17.8537 72.1036 21.686 68.8887 24.961C66.6071 27.2952 63.8071 28.7585 60.5922 29.4205C59.6588 29.5947 58.7255 29.6295 57.8267 29.734ZM66.054 15.6588C66.0195 15.2059 66.0195 14.8575 65.9503 14.5091C65.3281 11.0599 62.1823 9.10892 58.8983 9.8754C55.6834 10.607 53.6093 12.6626 52.8488 15.9375C52.2265 18.655 53.5401 21.4073 56.0291 22.5222C57.9304 23.3583 59.8317 23.2538 61.6638 22.3132C64.3947 20.8847 65.8812 18.655 66.054 15.6588Z" fill="#00ACD7"/>
</svg>
