<svg width="36" height="43" viewBox="0 0 36 43" fill="none" xmlns="http://www.w3.org/2000/svg">
<path fill-rule="evenodd" clip-rule="evenodd" d="M23.9455 6.86562C25.4543 5.04797 26.4699 2.51763 26.1929 0C24.0179 0.0869845 21.3881 1.44236 19.828 3.25891C18.4299 4.86771 17.2056 7.44251 17.5358 9.91036C19.9601 10.097 22.4367 8.68437 23.9455 6.86562M29.3827 22.8447C29.4435 29.3518 35.119 31.5173 35.1818 31.5449C35.1337 31.6977 34.2749 34.6308 32.1916 37.6607C30.3908 40.2801 28.5217 42.8901 25.5773 42.944C22.6843 42.9972 21.7541 41.2367 18.4463 41.2367C15.1398 41.2367 14.1061 42.8901 11.3675 42.9972C8.52544 43.1041 6.36121 40.1646 4.54536 37.5546C0.834921 32.2161 -2.00065 22.4691 1.80682 15.8899C3.69825 12.6225 7.07845 10.5534 10.7472 10.5004C13.5382 10.4474 16.1723 12.3689 17.8784 12.3689C19.5834 12.3689 22.7845 10.0582 26.1496 10.3975C27.5584 10.4559 31.5129 10.9639 34.0522 14.6629C33.8477 14.7891 29.3337 17.4043 29.3827 22.8447" fill="#B3B3B3"/>
</svg>
