<svg width="57" height="57" viewBox="0 0 57 57" fill="none" xmlns="http://www.w3.org/2000/svg">
<path d="M26.1943 15.5234C24.0688 17.0184 21.6598 18.7127 20.369 21.5159C18.1271 26.4066 24.9566 31.7413 25.2485 31.966C25.3164 32.0182 25.3976 32.0442 25.4785 32.0442C25.5645 32.0442 25.6506 32.0148 25.7205 31.9563C25.8561 31.8429 25.8945 31.6503 25.8131 31.4934C25.7884 31.4458 23.3369 26.684 23.428 23.268C23.4603 22.0782 25.1254 20.7285 26.8881 19.2995C28.5026 17.9906 30.3327 16.5072 31.4035 14.7719C33.7542 10.9521 31.1415 7.19607 31.1148 7.15852C31.011 7.01279 30.8195 6.96005 30.6557 7.03184C30.4921 7.10407 30.4015 7.28097 30.4388 7.4559C30.4441 7.48079 30.9522 9.96461 29.5384 12.5236C28.956 13.5811 27.6763 14.4812 26.1943 15.5234Z" fill="#DB380E"/>
<path d="M35.1481 17.2078C35.2981 17.0949 35.3421 16.8889 35.2515 16.7244C35.1606 16.56 34.963 16.4875 34.7874 16.5542C34.4263 16.6915 25.9453 19.9606 25.9453 23.9106C25.9453 26.6335 27.1084 28.0719 27.9577 29.1224C28.2909 29.5344 28.5785 29.8902 28.6732 30.1939C28.9401 31.0693 28.3079 32.6514 28.0421 33.1873C27.9655 33.3413 28.003 33.528 28.1334 33.6404C28.2038 33.7013 28.2918 33.7322 28.3798 33.7322C28.4547 33.7322 28.53 33.7099 28.5951 33.6646C28.7409 33.5633 32.1589 31.1466 31.5459 28.2351C31.3175 27.1284 30.7737 26.3198 30.2939 25.6062C29.5505 24.5007 29.0136 23.7022 29.8281 22.2273C30.7824 20.507 35.1044 17.2405 35.1481 17.2078Z" fill="#DB380E"/>
<path d="M13.0705 33.7947C12.9251 34.23 12.9937 34.6617 13.2687 35.0438C14.1881 36.3202 17.4447 37.0229 22.4389 37.0229C22.4392 37.0229 22.4394 37.0229 22.4396 37.0229C23.1163 37.0229 23.8307 37.0096 24.5625 36.9834C32.5474 36.6976 35.509 34.21 35.6312 34.1043C35.7643 33.989 35.7999 33.7971 35.7171 33.6418C35.6343 33.4867 35.4558 33.4087 35.2852 33.4557C32.473 34.2235 27.2219 34.4961 23.5796 34.4961C19.504 34.4961 17.4284 34.2025 16.9203 33.9857C17.181 33.6276 18.7892 32.9883 20.782 32.5963C20.9725 32.559 21.1034 32.383 21.0845 32.1899C21.0657 31.9967 20.9034 31.8494 20.7093 31.8494C19.5411 31.8494 13.6828 31.9432 13.0705 33.7947Z" fill="#73A1FB"/>
<path d="M39.7919 31.2325C38.145 31.2325 36.5832 32.058 36.5175 32.093C36.3652 32.1746 36.2879 32.3492 36.3297 32.517C36.3716 32.6846 36.5223 32.8024 36.6951 32.8026C36.73 32.8026 40.2082 32.831 40.5232 34.8183C40.8022 36.5327 37.2323 39.3105 35.8331 40.2363C35.682 40.3363 35.6233 40.5294 35.6935 40.6965C35.7533 40.8387 35.8917 40.9277 36.041 40.9277C36.0671 40.9277 36.0935 40.925 36.1197 40.9194C36.4518 40.8484 44.2422 39.1316 43.4185 34.5959C42.916 31.8161 41.1689 31.2325 39.7919 31.2325Z" fill="#73A1FB"/>
<path d="M34.447 39.6812C34.4741 39.5359 34.4136 39.3881 34.2927 39.3032L32.4247 37.9948C32.3336 37.9311 32.2186 37.911 32.1116 37.9393C32.0921 37.9443 30.1388 38.4578 27.3027 38.7727C26.1772 38.8989 24.9165 38.9656 23.6567 38.9656C20.8214 38.9656 18.9676 38.6325 18.6976 38.3881C18.6618 38.3194 18.6731 38.2883 18.6795 38.2709C18.7286 38.1346 18.9915 37.9725 19.1609 37.9083C19.348 37.8391 19.4489 37.6358 19.3907 37.445C19.3327 37.2539 19.1358 37.1415 18.9416 37.1881C17.0678 37.6403 16.1516 38.2726 16.2182 39.0675C16.3367 40.4768 19.6009 41.2001 22.3604 41.3913C22.7573 41.4184 23.1864 41.4322 23.6358 41.4322C23.636 41.4322 23.6362 41.4322 23.6365 41.4322C28.2252 41.4322 34.1078 39.9924 34.1665 39.9778C34.3102 39.9427 34.4197 39.8268 34.447 39.6812Z" fill="#73A1FB"/>
<path d="M20.3647 42.7057C20.5062 42.6137 20.5689 42.4387 20.5187 42.2777C20.4687 42.1166 20.318 42.0107 20.1487 42.013C19.8976 42.0196 17.6916 42.1192 17.5372 43.5237C17.4904 43.9435 17.6107 44.327 17.8946 44.6635C18.6867 45.6022 20.8248 46.1601 24.43 46.3691C24.8565 46.3947 25.2897 46.4075 25.7178 46.4075C30.3012 46.4075 33.3881 44.9724 33.5173 44.9113C33.6427 44.852 33.7253 44.7289 33.7327 44.5905C33.7401 44.4522 33.671 44.3209 33.5527 44.2486L31.1921 42.8075C31.1102 42.7575 31.0121 42.741 30.9187 42.7601C30.9038 42.7633 29.4049 43.0741 27.1429 43.3812C26.7149 43.4394 26.1789 43.469 25.55 43.469C23.2904 43.469 20.7771 43.0998 20.2951 42.858C20.2881 42.8129 20.297 42.7556 20.3647 42.7057Z" fill="#73A1FB"/>
<path d="M23.5825 50.7405C34.0811 50.7317 39.7159 48.8646 40.8014 47.6897C41.1856 47.2741 41.2272 46.8806 41.1945 46.6235C41.1139 45.991 40.5377 45.6038 40.4724 45.5618C40.3148 45.4604 40.1033 45.4869 39.9804 45.6287C39.8577 45.7705 39.8549 45.9777 39.978 46.1193C40.0442 46.2045 40.0824 46.3471 39.8888 46.5409C39.4549 46.9462 35.0781 48.1764 27.7908 48.546C26.7925 48.5979 25.7455 48.6243 24.679 48.6245C18.1542 48.6245 13.3791 47.7307 12.7523 47.21C12.9939 46.8628 14.6829 46.3082 16.4792 45.9944C16.6816 45.9591 16.8183 45.7684 16.787 45.5654C16.7556 45.3624 16.5685 45.2227 16.3639 45.2492C16.3132 45.2561 16.1413 45.2664 15.9422 45.2786C12.9784 45.4595 9.55346 45.8628 9.37476 47.3899C9.3205 47.8552 9.45877 48.2777 9.78589 48.6453C10.5863 49.5446 12.8869 50.7404 23.5822 50.7404C23.5823 50.7405 23.5823 50.7405 23.5825 50.7405Z" fill="#73A1FB"/>
<path d="M42.8633 48.0208C42.7149 47.9521 42.5395 47.9868 42.4288 48.1063C42.4135 48.1229 40.835 49.7734 36.0891 50.7427C34.2722 51.1067 30.8617 51.2913 25.9523 51.2913C21.0338 51.2913 16.3536 51.0978 16.307 51.0958C16.1115 51.0863 15.9443 51.2284 15.9177 51.4209C15.891 51.6132 16.015 51.7945 16.2037 51.8394C16.2524 51.8509 21.1573 53 27.8636 53C31.0801 53 34.2101 52.7388 37.1668 52.2233C42.6797 51.2568 43.0656 48.5232 43.0794 48.4073C43.0986 48.2454 43.0115 48.0894 42.8633 48.0208Z" fill="#73A1FB"/>
</svg>
