<svg width="45" height="45" viewBox="0 0 45 45" fill="none" xmlns="http://www.w3.org/2000/svg">
<path d="M22.3378 0C10.914 8.19328e-07 11.6274 4.97998 11.6274 4.97998L11.6401 10.1392H22.5415V11.6882H7.31008C7.31008 11.6882 0 10.8549 0 22.4419C-8.15062e-07 34.029 6.3804 33.6181 6.3804 33.6181H10.1883V28.2412C10.1883 28.2412 9.98302 21.8274 16.4668 21.8274C22.9506 21.8274 27.2791 21.8274 27.2791 21.8274C27.2791 21.8274 33.3539 21.9261 33.3539 15.9257C33.3539 9.92526 33.3539 6.00414 33.3539 6.00414C33.3539 6.00414 34.2762 0 22.3378 0ZM16.3267 3.46934C17.4113 3.46934 18.2879 4.35056 18.2879 5.44085C18.2879 6.53114 17.4113 7.41236 16.3267 7.41236C15.2421 7.41236 14.3655 6.53114 14.3655 5.44085C14.3655 4.35056 15.2421 3.46934 16.3267 3.46934Z" fill="url(#paint0_linear)"/>
<path d="M22.6615 45C34.0853 45 33.3719 40.02 33.3719 40.02L33.3592 34.8608H22.4577V33.3118H37.6892C37.6892 33.3118 44.9993 34.1451 44.9993 22.5581C44.9993 10.971 38.6189 11.3819 38.6189 11.3819H34.811V16.7588C34.811 16.7588 35.0163 23.1726 28.5325 23.1726C22.0487 23.1726 17.7202 23.1726 17.7202 23.1726C17.7202 23.1726 11.6454 23.0739 11.6454 29.0743C11.6454 35.0747 11.6454 38.9958 11.6454 38.9958C11.6454 38.9958 10.7231 45 22.6615 45ZM28.6726 41.5306C27.588 41.5306 26.7113 40.6494 26.7113 39.5591C26.7113 38.4688 27.588 37.5876 28.6726 37.5876C29.7572 37.5876 30.6338 38.4688 30.6338 39.5591C30.6338 40.6494 29.7572 41.5306 28.6726 41.5306Z" fill="url(#paint1_linear)"/>
<defs>
<linearGradient id="paint0_linear" x1="4.32459" y1="3.9334" x2="26.6923" y2="26.2591" gradientUnits="userSpaceOnUse">
<stop stop-color="#387EB8"/>
<stop offset="1" stop-color="#366994"/>
</linearGradient>
<linearGradient id="paint1_linear" x1="18.0118" y1="18.2103" x2="42.0291" y2="41.1002" gradientUnits="userSpaceOnUse">
<stop stop-color="#FFE052"/>
<stop offset="1" stop-color="#FFC331"/>
</linearGradient>
</defs>
</svg>
