<svg width="85" height="60" viewBox="0 0 85 60" fill="none" xmlns="http://www.w3.org/2000/svg">
<path d="M67.2703 29.8841C67.2703 26.6084 63.1611 23.5041 56.8611 21.579C58.3149 15.1688 57.6688 10.0689 54.8217 8.43607C54.1654 8.05307 53.3981 7.87165 52.5601 7.87165V10.1193C53.0245 10.1193 53.3981 10.21 53.7111 10.3813C55.0842 11.1675 55.6798 14.1609 55.2154 18.0111C55.1044 18.9585 54.9226 19.9563 54.7005 20.9743C52.7216 20.4905 50.5611 20.1176 48.2894 19.8757C46.9264 18.0111 45.513 16.3178 44.0894 14.8362C47.3808 11.7823 50.4702 10.1092 52.5702 10.1092V7.86157C49.7937 7.86157 46.1591 9.83705 42.4841 13.2639C38.8091 9.85721 35.1744 7.90189 32.398 7.90189V10.1495C34.4879 10.1495 37.5874 11.8125 40.8788 14.8463C39.4653 16.3279 38.0519 18.0111 36.7091 19.8757C34.4273 20.1176 32.2667 20.4905 30.2879 20.9844C30.0557 19.9765 29.884 18.9988 29.7629 18.0615C29.2883 14.2113 29.8739 11.2179 31.2369 10.4216C31.5398 10.2402 31.9336 10.1596 32.398 10.1596V7.91197C31.5499 7.91197 30.7826 8.09339 30.1162 8.47639C27.2792 10.1092 26.6431 15.199 28.1071 21.5891C21.8272 23.5243 17.7383 26.6185 17.7383 29.8841C17.7383 33.1597 21.8474 36.2641 28.1475 38.1891C26.6936 44.5994 27.3398 49.6993 30.1869 51.3321C30.8432 51.7151 31.6105 51.8965 32.4586 51.8965C35.235 51.8965 38.8696 49.921 42.5447 46.4942C46.2197 49.9009 49.8543 51.8562 52.6308 51.8562C53.4789 51.8562 54.2462 51.6748 54.9125 51.2918C57.7496 49.659 58.3856 44.5691 56.9217 38.1791C63.1813 36.254 67.2703 33.1497 67.2703 29.8841ZM54.125 23.1614C53.7515 24.4616 53.287 25.8021 52.762 27.1426C52.3481 26.3363 51.914 25.53 51.4394 24.7237C50.975 23.9173 50.4803 23.1312 49.9856 22.3652C51.4192 22.5768 52.8024 22.8389 54.125 23.1614ZM49.501 33.8955C48.7135 35.2562 47.9058 36.5463 47.0678 37.7457C45.5634 37.8767 44.0389 37.9472 42.5043 37.9472C40.9798 37.9472 39.4552 37.8767 37.961 37.7557C37.123 36.5564 36.3052 35.2763 35.5177 33.9257C34.7504 32.6054 34.0538 31.2649 33.4177 29.9143C34.0437 28.5637 34.7504 27.2132 35.5076 25.8928C36.2951 24.5322 37.1028 23.2421 37.9408 22.0427C39.4451 21.9116 40.9697 21.8411 42.5043 21.8411C44.0288 21.8411 45.5533 21.9116 47.0476 22.0326C47.8856 23.232 48.7034 24.512 49.4909 25.8626C50.2582 27.1829 50.9548 28.5234 51.5909 29.874C50.9548 31.2246 50.2582 32.5752 49.501 33.8955ZM52.762 32.5852C53.3072 33.9358 53.7717 35.2864 54.1553 36.5967C52.8327 36.9192 51.4394 37.1913 49.9957 37.403C50.4904 36.6269 50.9851 35.8307 51.4495 35.0143C51.914 34.208 52.3481 33.3916 52.762 32.5852ZM42.5245 43.3395C41.5855 42.3719 40.6466 41.2935 39.7177 40.1142C40.6264 40.1545 41.5552 40.1848 42.4942 40.1848C43.4432 40.1848 44.3822 40.1646 45.3009 40.1142C44.3923 41.2935 43.4533 42.3719 42.5245 43.3395ZM35.0129 37.403C33.5792 37.1913 32.1961 36.9293 30.8735 36.6067C31.247 35.3066 31.7114 33.9661 32.2364 32.6256C32.6504 33.4319 33.0845 34.2382 33.559 35.0445C34.0336 35.8508 34.5182 36.637 35.0129 37.403ZM42.474 16.4287C43.4129 17.3963 44.3519 18.4747 45.2807 19.6539C44.3721 19.6136 43.4432 19.5834 42.5043 19.5834C41.5552 19.5834 40.6163 19.6036 39.6975 19.6539C40.6062 18.4747 41.5451 17.3963 42.474 16.4287ZM35.0028 22.3652C34.5081 23.1413 34.0134 23.9375 33.5489 24.7539C33.0845 25.5602 32.6504 26.3665 32.2364 27.1728C31.6912 25.8223 31.2268 24.4717 30.8432 23.1614C32.1658 22.849 33.559 22.5768 35.0028 22.3652ZM25.8657 34.984C22.2917 33.4621 19.9796 31.4665 19.9796 29.8841C19.9796 28.3017 22.2917 26.296 25.8657 24.7841C26.734 24.4112 27.683 24.0786 28.6624 23.7662C29.2379 25.7416 29.9951 27.7977 30.934 29.9042C30.0052 32.0007 29.2581 34.0467 28.6927 36.0121C27.6931 35.6996 26.7441 35.357 25.8657 34.984ZM31.2975 49.3869C29.9244 48.6007 29.3287 45.6073 29.7932 41.7571C29.9042 40.8097 30.0859 39.8119 30.3081 38.7939C32.2869 39.2777 34.4475 39.6506 36.7192 39.8925C38.0821 41.7571 39.4956 43.4504 40.9192 44.932C37.6278 47.9859 34.5384 49.659 32.4384 49.659C31.984 49.6489 31.6004 49.5582 31.2975 49.3869ZM55.2457 41.7067C55.7202 45.5569 55.1346 48.5503 53.7717 49.3465C53.4688 49.528 53.075 49.6086 52.6106 49.6086C50.5207 49.6086 47.4211 47.9456 44.1298 44.9118C45.5432 43.4302 46.9567 41.747 48.2995 39.8824C50.5813 39.6405 52.7418 39.2676 54.7207 38.7737C54.9529 39.7917 55.1346 40.7694 55.2457 41.7067ZM59.1327 34.984C58.2645 35.357 57.3154 35.6896 56.3361 36.002C55.7606 34.0265 55.0034 31.9704 54.0644 29.8639C54.9933 27.7675 55.7404 25.7215 56.3058 23.7561C57.3053 24.0685 58.2544 24.4112 59.1428 24.7841C62.7169 26.3061 65.0289 28.3017 65.0289 29.8841C65.0188 31.4665 62.7068 33.4722 59.1327 34.984Z" fill="#61DAFB"/>
<path d="M42.4968 34.4902C45.045 34.4902 47.1107 32.428 47.1107 29.8841C47.1107 27.3402 45.045 25.278 42.4968 25.278C39.9486 25.278 37.8828 27.3402 37.8828 29.8841C37.8828 32.428 39.9486 34.4902 42.4968 34.4902Z" fill="#61DAFB"/>
</svg>
