<svg width="50" height="50" viewBox="0 0 50 50" fill="none" xmlns="http://www.w3.org/2000/svg">
<path d="M10.5898 0H12.8359V2.22656H14.9062V0H17.1523V6.73828H14.9062V4.49219H12.8555V6.73828H10.5898V0ZM20.1211 2.24609H18.1387V0H24.3594V2.24609H22.3672V6.73828H20.1211V2.24609ZM25.3457 0H27.6992L29.1445 2.37305L30.5898 0H32.9434V6.73828H30.6973V3.39844L29.125 5.82031L27.5527 3.39844V6.73828H25.3457V0ZM34.0566 0H36.3027V4.51172H39.4863V6.73828H34.0566" fill="black"/>
<path d="M10.5078 45.9961L7.28516 9.82422H42.7148L39.4922 45.9766L24.9707 50" fill="#E44D26"/>
<path d="M25 46.9238V12.793H39.4824L36.7188 43.6523" fill="#F16529"/>
<path d="M13.8672 17.2168H25V21.6504H18.7305L19.1406 26.1914H25V30.6152H15.0781L13.8672 17.2168ZM15.2734 32.8418H19.7266L20.0391 36.3867L25 37.7148V42.3438L15.8984 39.8047" fill="#EBEBEB"/>
<path d="M36.0938 17.2168H24.9805V21.6504H35.6836L36.0938 17.2168ZM35.2832 26.1914H24.9805V30.625H30.4492L29.9316 36.3867L24.9805 37.7148V42.3242L34.0625 39.8047" fill="white"/>
</svg>
