<svg width="44" height="40" viewBox="0 0 44 40" fill="none" xmlns="http://www.w3.org/2000/svg">
<path d="M12.6958 0C11.5074 0.00257224 10.3442 0.691108 9.74595 1.74149L0.441679 18.2392C-0.147226 19.2924 -0.147226 20.669 0.441679 21.7222L9.74595 38.2198C10.3442 39.2702 11.5074 39.9589 12.6958 39.9613H31.3043C32.4926 39.9588 33.6558 39.2702 34.2541 38.2198L43.5583 21.7222C44.1472 20.669 44.1472 19.2924 43.5583 18.2392L34.2541 1.74149C33.6558 0.691108 32.4926 0.00237933 31.3043 0H12.6958ZM12.8646 9.65134C12.8902 9.64877 12.917 9.64877 12.9427 9.65134H16.1523C16.2944 9.65434 16.4322 9.73815 16.5032 9.86404L21.948 19.768C21.9754 19.8169 21.9931 19.8715 21.9998 19.9275C22.0065 19.8715 22.0241 19.8169 22.0516 19.768L27.4834 9.86404C27.5566 9.73433 27.7008 9.65006 27.8472 9.65134H31.0569C31.3411 9.65391 31.5539 10.0193 31.4208 10.2762L26.1059 19.9807L31.4208 29.6719C31.5665 29.9302 31.3485 30.3125 31.0569 30.31H27.8472C27.6983 30.3087 27.5532 30.2186 27.4834 30.084L22.0516 20.1801C22.0242 20.1311 22.0065 20.0765 21.9998 20.0205C21.9931 20.0766 21.9755 20.1311 21.948 20.1801L16.5032 30.084C16.4355 30.2148 16.2969 30.304 16.1523 30.31H12.9427C12.6511 30.3126 12.433 29.9302 12.5788 29.6719L17.8937 19.9807L12.5788 10.2762C12.4514 10.0418 12.6069 9.70135 12.8646 9.65134Z" fill="#3498DB"/>
</svg>
