<svg width="46" height="46" viewBox="0 0 46 46" fill="none" xmlns="http://www.w3.org/2000/svg">
<path d="M20.7685 45.4302C17.3039 45.0983 13.7964 43.8542 10.7834 41.8882C8.25859 40.2417 7.68882 39.5637 7.68882 38.2124C7.68882 35.4979 10.6736 30.7427 15.7806 25.323C18.6802 22.2442 22.7198 18.6373 23.1563 18.7346C24.0063 18.9243 30.7965 25.5478 33.339 28.6664C37.3588 33.5957 39.2061 37.6332 38.2673 39.433C37.5538 40.801 33.1252 43.4752 29.8723 44.5024C27.1907 45.3492 23.6691 45.7078 20.7685 45.4302ZM4.27855 35.3902C2.18032 32.1713 1.12023 29.0025 0.609004 24.4192C0.43964 22.9059 0.499231 22.0408 0.992163 18.9337C1.60532 15.0655 3.80966 10.5858 6.45989 7.83099C7.58793 6.66008 7.6883 6.62872 9.06412 7.09395C10.7316 7.65849 12.5141 8.89004 15.2793 11.3908L16.8946 12.8513L16.0112 13.9333C11.9193 18.9567 7.60048 26.0815 5.9748 30.4881C5.09139 32.8822 4.73593 35.2867 5.11753 36.2877C5.37366 36.9642 5.13843 36.7122 4.27593 35.3918L4.27855 35.3902ZM41.1063 35.9375C41.3138 34.9255 41.0514 33.0677 40.4372 31.1932C39.1068 27.1343 34.6589 19.5835 30.5749 14.4492L29.289 12.833L30.6805 11.5559C32.4964 9.88845 33.7572 8.89004 35.1184 8.04165C36.1916 7.37256 37.7258 6.78031 38.3855 6.78031C38.7916 6.78031 40.2234 8.27008 41.3786 9.89054C43.1684 12.3996 44.4846 15.4471 45.1516 18.6149C45.5829 20.6639 45.619 25.0444 45.2212 27.0883C44.8918 28.7652 44.2018 30.9387 43.5327 32.4133C43.0257 33.5178 41.7764 35.6636 41.2275 36.362C40.9453 36.7211 40.9452 36.7206 41.1021 35.9459L41.1063 35.9375ZM21.1396 6.01399C19.2547 5.0574 16.3473 4.03024 14.7415 3.7532C14.179 3.65649 13.2188 3.60161 12.6087 3.63297C11.2831 3.69988 11.3422 3.63088 13.4676 2.62672C15.2344 1.79192 16.7085 1.30108 18.7105 0.88081C20.9609 0.407742 25.1923 0.402514 27.4071 0.86931C29.7986 1.37374 32.6156 2.42181 34.2026 3.39931L34.6751 3.6889L33.5931 3.63454C31.4415 3.52581 28.3062 4.39511 24.9399 6.03229C23.9247 6.52679 23.0424 6.92092 22.9775 6.91047C22.9132 6.89792 22.0858 6.4949 21.1375 6.01399H21.1396Z" fill="#107C10"/>
</svg>
