<?xml version="1.0" encoding="utf-8"?>
<!-- Generator: Adobe Illustrator 21.0.0, SVG Export Plug-In . SVG Version: 6.00 Build 0)  -->
<svg version="1.1" id="Layer_1" xmlns="http://www.w3.org/2000/svg" xmlns:xlink="http://www.w3.org/1999/xlink" x="0px" y="0px"
	 viewBox="0 0 703 148" style="enable-background:new 0 0 703 148;" xml:space="preserve">
<style type="text/css">
	.st0{fill:#F6941F;}
	.st1{fill:#231F20;}
</style>
<path class="st0" d="M432,4.5c4.7-4.8,11.8-4,17.9-4c2.4-0.1,4.8,0.8,7,1.6c-0.9,3.3-1.7,6.6-2.5,9.9c-3.5-0.9-7.3-2.1-10.9-0.9
	c-3.2,1-5.1,4.3-5.2,7.5c-0.4,4.4-0.1,8.9-0.1,13.3c5.5,0,11-0.1,16.5,0.1c-1.1,3.2-2.2,6.4-3.1,9.7c-4.5,0.3-8.9,0.2-13.4,0.2
	c-0.1,18.3,0,36.5,0,54.8c-4.1,0-8.2,0-12.2,0c0-18.2,0-36.5,0-54.7c-2.9,0-5.9,0-8.8,0c0-3.3,0-6.7,0.1-10c2.9,0,5.8,0,8.8-0.1
	C425.8,22.5,424.3,11.4,432,4.5z"/>
<path class="st0" d="M467.4,4.1c4.2-2.1,10.4-0.4,11.5,4.6c2.1,5.8-4.1,11.8-9.8,10C462.5,17.2,461.4,7,467.4,4.1z"/>
<path class="st0" d="M563.9,11.6c23.5-0.1,47,0,70.5,0c-0.9,2.4-1.8,4.9-2.6,7.3c-9.7,0.4-19.4-0.4-29,0.4c-0.2,25.7,0,51.5,0,77.2
	c-2.4,0-4.9,0-7.3,0c-0.1-25.8,0-51.7,0-77.5c-9.6,0-19.2-0.1-28.8,0C565.8,16.6,564.8,14.2,563.9,11.6z"/>
<path class="st0" d="M639.6,11.6c2.8,0,5.5,0,8.3,0c7.5,24.8,15.1,49.6,22.9,74.3c2-4.3,3-8.9,4.5-13.4
	c6.3-20.3,12.7-40.6,18.9-60.9c2.7,0,5.3,0,8,0c-8.5,28.5-17.6,56.8-26.3,85.2c-3.3,0.1-6.6,0.1-10,0
	C657.2,68.4,648.1,40.1,639.6,11.6z"/>
<path class="st1" d="M88.8,33.3c4.9-3,11.3-3.3,16.5-1c3.9,1.8,6.4,5.5,8.2,9.3c2-3.7,4.6-7.2,8.6-9c7.5-3.7,17.8-1.8,22.5,5.4
	c2.8,4.3,2.8,9.6,2.9,14.5c-0.6,15,0.2,30-0.4,45c-0.3,0.2-1,0.4-1.3,0.6c-4.5,0.2-9,0.2-13.4,0c-1.7-0.2-1.8-2.3-1.8-3.6
	c0.1-12.3-0.1-24.7,0.1-37c-0.1-2.9,0.2-6.3-1.8-8.7c-2.8-3.4-8.5-2.8-11.2,0.5c-2.7,3.1-2.3,7.5-2.6,11.3
	c-0.2,12.4,0.1,24.9-0.1,37.3c-4.9,0.8-9.8,0.5-14.7,0.4c-1.4,0.1-2-1.5-1.9-2.7c-0.1-9.7,0-19.3,0-29c0-5.6,1-11.5-1.3-16.8
	c-1.8-3.6-6.8-4.2-10-2.2c-3.4,2.5-3.9,7.1-4,11c0,11.7,0,23.4,0,35.1c-0.1,1.5,0.3,3.7-1.3,4.6c-4.2,0.4-8.5,0.1-12.7,0.2
	c-1.1,0.1-2.9-0.3-2.7-1.7c-0.1-20,0-40-0.1-60.1c0.1-1.6-0.4-4.1,1.8-4.3c4-0.2,8-0.2,11.9,0c1.9-0.2,2,1.9,2,3.3
	c0.1,2.1,0.1,4.2,0.2,6.3C83.7,38.5,85.6,35.3,88.8,33.3z"/>
<path class="st1" d="M364.5,32.1c6.6-2.5,15.1-1.5,19.8,4.2c4.1,4.8,4.3,11.4,4.5,17.4c-0.1,14.6,0.2,29.1-0.2,43.7
	c-0.2,0.2-0.7,0.6-0.9,0.8c-4.5,0.3-9.1,0.2-13.7,0.1c-1.4,0.1-2.2-1.3-2-2.6c-0.1-12.7,0-25.4,0-38.1c-0.1-3.2-0.3-6.9-2.6-9.4
	c-2.6-2.6-7.1-2.3-9.6,0.2c-2.9,2.9-3.6,7.3-3.8,11.2c-0.1,12,0.1,24,0,36.1c0.1,1.1-0.7,2.6-2,2.6c-4.5,0.1-9.1,0.3-13.6-0.1
	c-1.5-0.4-1-2.4-1.1-3.5c0.2-20.5-0.3-41.1,0.2-61.6c0.4-0.2,1.2-0.6,1.6-0.9c4.3-0.1,8.7-0.5,12.9,0.2c2.2,2.8,0.5,7,1.1,10.4
	C357.1,38.5,359.8,33.9,364.5,32.1z"/>
<path class="st0" d="M500,39.2c4.3-3.8,9-8,14.9-8.8c3.7-0.8,7.5,0.2,10.9,1.5c-1.3,3.7-2.8,7.3-4.2,10.9c-2.5-0.7-5.1-1.8-7.7-1.4
	c-5.1,0.7-9.2,4.1-12.7,7.6c-1.1,0.9-0.7,2.4-0.8,3.6c0.1,14.7,0.1,29.4,0,44c-4,0-8,0-12,0c0-21.6-0.1-43.2,0.1-64.8
	c3.4,0,6.7,0.1,10.1,0C499.1,34.3,499.6,36.7,500,39.2z"/>
<path class="st1" d="M225.1,32.5c1.6-0.6,3.3-0.4,5-0.5c11.6,0.1,23.3,0,34.9,0c1.2,0.2,3.8-0.4,3.7,1.6c-0.1,4,1.2,8.7-1.5,12.1
	C260,56,252.8,66.3,245.6,76.5c7.7,0,15.7,1,22.4,5c2.7,1.3,1.8,4.7,2,7c-0.3,2.9,1,6.6-1.8,8.6c-10.9-5.8-24.2-7.4-36-3.4
	c-2.8,0.9-5.4,2.4-8.2,3.2c-2.3-0.8-1.6-3.6-1.8-5.4c0.2-4.3-0.8-9,1.9-12.8c7.7-11.1,15.5-22.1,23.1-33.2
	c-7.1-0.1-14.2,0.3-21.3-0.2c-2-0.7-1.3-3.2-1.5-4.8C224.6,37.9,224.1,35.1,225.1,32.5z"/>
<path class="st0" d="M465.3,31.9c4.1,0,8.1,0,12.2,0c0,21.6,0.1,43.1,0,64.7c-4.1,0-8.2,0-12.2,0C465.2,75,465.3,53.4,465.3,31.9z"
	/>
<path class="st0" d="M577,66.8c0.1-6.1,0.2-12.4-1.9-18.2c-2.1-7-7-13.5-13.9-16.4c-9-3.7-20.3-2.6-27.6,4.1
	c-5.9,5.2-9.1,12.9-10.1,20.7c-1,9.3-0.2,19.2,4.7,27.3c3.9,6.7,10.8,11.4,18.5,12.9c10,1.5,20.6,0.3,29.2-5.2
	c-1.3-2.9-2.6-5.7-4-8.5c-7.6,4-17.1,6.2-25.3,2.4c-7.2-3.2-11.1-11.4-11-19C549.5,66.9,563.3,66.8,577,66.8z M535.6,57.6
	c0.3-5,1.8-10.3,5.6-13.8c4.8-5,13.9-5,18.6,0.2c3.5,3.6,4.4,8.8,5.1,13.6C555.1,57.7,545.3,57.6,535.6,57.6z"/>
<path class="st1" d="M330.3,61.6c-0.6-8.8-3.5-18-10.1-24.2c-5.9-5.6-14.7-7.6-22.6-6.1c-5.8,1.1-11.2,4.4-14.8,9.2
	c-5.4,7.1-7.2,16.4-7.3,25.2c0.2,9.6,2.5,19.9,9.5,27c9.3,9.7,26.5,9.4,35.8-0.2C328.6,84.3,331.2,72.5,330.3,61.6z M312.1,73.5
	c-0.5,4.1-1.3,8.7-4.5,11.6c-2.9,2.4-7.7,2.1-10.1-1c-2.5-3.3-3.2-7.6-3.6-11.7c-0.5-6.8-0.7-13.7,0.7-20.4c0.8-3.2,2.4-6.9,5.9-8
	c4-1.4,8.7,0.7,9.9,4.8C312.9,56.9,312.7,65.4,312.1,73.5z"/>
<path class="st1" d="M52.6,77.5c-0.4-10,0.3-20-0.3-29.9c-0.3-6.2-4-12-9.7-14.5c-8.3-3.8-18.2-3.7-26.8-0.6
	C8.2,35.1,1.9,42.3,1.9,50.6c4.6,1.8,9.8,1.9,14.7,1.9c1.5-2.5,2-6,4.8-7.5c3.7-2.3,9.2-2.3,12.1,1.1c2.3,3,1.5,7,1.7,10.5
	c-8.9,1-18.5,1.2-26.3,6.1c-5,3.1-8,8.6-9,14.3v7.3c0.8,4.3,2.6,8.6,6.1,11.3c5.3,4.3,12.7,4.4,19.1,3.1c5-1,9-4.4,12.6-7.8
	c1.9,2.7,4.1,5.3,6.5,7.7c1.1-0.1,2.3-0.1,3.4-0.2c3.3-3.3,7.6-5.6,10.2-9.6C56.1,85,52.7,81.9,52.6,77.5z M32.2,82.8
	c-2.4,3.8-8.2,5.7-11.8,2.6c-4.4-4.5-3.4-13,2-16.3c3.8-2.4,8.5-2.6,12.8-2.8C35.3,71.8,35.8,78,32.2,82.8z"/>
<path class="st1" d="M210.5,79c-0.8-10.8,0.4-21.7-0.7-32.5c-0.5-6-4.6-11.3-10.1-13.6c-7.7-3.3-16.7-3.3-24.7-1
	c-7.4,2.1-13.7,8.1-15.3,15.8c-0.6,1.3-0.5,3.3,1.2,3.7c4.3,0.7,8.7,1.3,13.1,1.2c1.9-1.8,1.8-5.1,4-6.8c3.5-3,9.5-3.5,12.9-0.1
	c2.7,2.9,1.9,7.2,2.1,10.8c-7.4,0.8-15.1,1.2-22.1,3.9c-6.5,2.5-11.7,8.2-12.9,15.1c-1.4,7,0,15.4,5.9,20.1c5.3,4.2,12.7,4.3,19.1,3
	c5-1,9-4.5,12.6-7.8c1.8,3,4.1,5.6,6.7,8c1.5-0.4,3.2-0.3,4.3-1.5c2.8-2.5,5.9-4.9,8.5-7.6C215.4,85.6,210.8,83.1,210.5,79z
	 M189.2,83.7c-2.9,3.8-9.7,4.5-12.4,0.1c-2.5-4.6-1.7-11.4,2.9-14.5c3.9-2.6,8.7-2.8,13.2-3.1C193.1,72.2,193.5,79,189.2,83.7z"/>
<path class="st0" d="M224.1,106.8c9.1-5.7,20.5-6.8,30.9-5.1c2.2,0.6,5.7,0.9,5.9,3.8c0.7,9.3-2.6,18.7-7.6,26.5
	c-2.2,2.9-4.4,6.5-8,7.5c-0.3-0.2-0.8-0.8-1.1-1c2.3-8.3,6.9-16.1,7-24.9c0-2.2-2-3.5-4-3.8c-8.4-1.3-16.8,0.4-25.2,0.7
	C222.3,109.1,222.6,107.4,224.1,106.8z"/>
<path class="st0" d="M54.7,105.2c3.2-0.6,5.8,1.7,8.5,3c20.8,11.3,43.8,18.6,67.2,22.1c33.4,5.1,67.9,1.1,99.5-10.7
	c3.3-1.2,6.5-3,10-3.4c2.4-0.2,3.9,2.9,2.4,4.6c-1.7,2-4,3.3-6.2,4.7c-21.4,13.6-46.5,20.3-71.6,21.9h-14.3
	c-34.5-1.6-68.4-15.1-94.1-38.3C54.9,108.3,54.2,106.9,54.7,105.2z"/>
</svg>
