<?xml version="1.0" encoding="utf-8"?>
<!-- Generator: Adobe Illustrator 21.0.0, SVG Export Plug-In . SVG Version: 6.00 Build 0)  -->
<!DOCTYPE svg PUBLIC "-//W3C//DTD SVG 1.1//EN" "http://www.w3.org/Graphics/SVG/1.1/DTD/svg11.dtd">
<svg version="1.1" id="Layer_1" xmlns="http://www.w3.org/2000/svg" xmlns:xlink="http://www.w3.org/1999/xlink" x="0px" y="0px"
	 viewBox="0 0 316 161.5" style="enable-background:new 0 0 316 161.5;" xml:space="preserve">
<g>
	<g>
		<g id="XMLID_25_">
			<g>
				<path id="XMLID_27_" d="M97.8,42.6c-11.2-0.8-20.8,6.2-26.1,6.2c-5.4,0-13.7-6-22.5-5.8c-11.6,0.2-22.3,6.6-28.3,16.8
					c-12,20.4-3.1,50.7,8.7,67.3c5.7,8.1,12.6,17.2,21.6,16.9c8.7-0.3,11.9-5.5,22.4-5.5s13.4,5.5,22.5,5.3
					c9.3-0.2,15.2-8.3,20.9-16.4c6.6-9.4,9.3-18.5,9.5-19c-0.2-0.1-18.1-6.8-18.3-27c-0.2-16.9,14.1-25,14.7-25.4
					C114.7,44.2,102.2,42.9,97.8,42.6z"/>
				<path id="XMLID_26_" d="M90.8,31.7c4.8-5.6,8-13.5,7.1-21.3c-6.9,0.3-15.2,4.5-20.1,10.1c-4.4,5-8.3,13-7.2,20.7
					C78.2,41.7,86.1,37.3,90.8,31.7z"/>
			</g>
		</g>
	</g>
</g>
<g>
	<path d="M174.1,13.5v29.6H201v14.3h-26.8V113c0,12.8,3.6,20,14.1,20c4.9,0,8.5-0.6,10.9-1.3l0.9,14.1c-3.6,1.5-9.4,2.6-16.6,2.6
		c-8.7,0-15.8-2.8-20.2-7.9c-5.3-5.5-7.2-14.7-7.2-26.8V57.4h-16V43.1h16V18.4L174.1,13.5z"/>
	<path d="M224,43.1l20.2,57.9c3.4,9.4,6.2,17.9,8.3,26.4h0.6c2.3-8.5,5.3-17,8.7-26.4l20-57.9h19.6L261,146.2h-17.9L203.9,43.1H224z
		"/>
</g>
</svg>
