<?xml version="1.0" encoding="utf-8"?>
<!-- Generator: Adobe Illustrator 21.0.0, SVG Export Plug-In . SVG Version: 6.00 Build 0)  -->
<!DOCTYPE svg PUBLIC "-//W3C//DTD SVG 1.1//EN" "http://www.w3.org/Graphics/SVG/1.1/DTD/svg11.dtd">
<svg version="1.1" id="layer_1" xmlns="http://www.w3.org/2000/svg" xmlns:xlink="http://www.w3.org/1999/xlink" x="0px" y="0px"
	 viewBox="0 0 980 980" style="enable-background:new 0 0 980 980;" xml:space="preserve">
<style type="text/css">
	.st0{fill:#F5DE19;}
</style>
<g>
	<rect x="378.9" y="378.9" class="st0" width="222.2" height="222.2"/>
	<path d="M528.2,552.5c4.5,7.3,10.3,12.7,20.6,12.7c8.7,0,14.2-4.3,14.2-10.3c0-7.2-5.7-9.7-15.2-13.9l-5.2-2.2
		c-15.1-6.4-25.1-14.5-25.1-31.5c0-15.7,11.9-27.6,30.6-27.6c13.3,0,22.8,4.6,29.7,16.7l-16.3,10.4c-3.6-6.4-7.4-8.9-13.4-8.9
		c-6.1,0-10,3.9-10,8.9c0,6.3,3.9,8.8,12.8,12.7l5.2,2.2c17.7,7.6,27.8,15.4,27.8,32.8c0,18.8-14.8,29.1-34.6,29.1
		c-19.4,0-31.9-9.2-38-21.4L528.2,552.5z M454.4,554.3c3.3,5.8,6.3,10.7,13.4,10.7c6.9,0,11.2-2.7,11.2-13.1v-71h20.9v71.3
		c0,21.6-12.7,31.5-31.2,31.5c-16.7,0-26.4-8.7-31.3-19.1L454.4,554.3z"/>
</g>
</svg>
