<?xml version="1.0" encoding="utf-8"?>
<!-- Generator: Adobe Illustrator 21.0.0, SVG Export Plug-In . SVG Version: 6.00 Build 0)  -->
<svg version="1.1" id="Layer_1" xmlns="http://www.w3.org/2000/svg" xmlns:xlink="http://www.w3.org/1999/xlink" x="0px" y="0px"
	 viewBox="0 0 800 248" style="enable-background:new 0 0 800 248;" xml:space="preserve">
<style type="text/css">
	.st0{fill:#6C3C97;}
</style>
<g>
	<path class="st0" d="M148.7,148.9c16.3-9.7,30.4-23.9,37.5-41.7c7.2-17.7,6.4-38.4-2-55.5c-7.8-16.5-21.7-29.7-37.7-38.3
		C131.7,5.2,114.9,1.3,98.1,0H0v244.5c21.8,0,43.5,0,65.2,0c0-27.1,0-54.2,0-81.2c6.6,0,13.1,0,19.7,0
		c19.6,27.1,39.2,54.3,58.7,81.5c24.7,0,49.3,0,74,0C194.7,212.8,171.7,180.9,148.7,148.9z M120,103c-7,11.7-20.3,19.4-34,19.5
		c-6.9,0-13.8,0-20.8,0c0-27.2,0-54.5,0-81.7c12.1,0.4,25-1.7,36.4,3.6c12.3,5.3,21.5,17.2,23.7,30.4C127.1,84.4,125.2,94.7,120,103
		z"/>
	<path class="st0" d="M404.2,53c21.8,0,43.5,0,65.2,0c0,25.1,0,50.2,0,75.3c25-25,50-50,75.1-75.1c44.5-0.1,89,0,133.4,0
		c0,33.2,0,66.5,0,99.7c-0.1,8.6,0,17.2,1.7,25.6c1.2,5.8,3.4,11.8,8.2,15.6c5.3,4.1,12.5,4.2,18.9,3.4c9.7-1.1,18.5-6.8,24.1-14.7
		c1.6-2.4,4.1-4.7,3.8-7.8c0-40.6,0-81.2,0-121.8c21.7,0,43.5,0,65.2,0v191.2c-4.7,0-9.4,0-14.1,0c-9.7-8.4-19.4-16.8-29.1-25.2
		c-14.2,15.5-33.9,25.8-54.7,28.7h-22.1c-15.3-1.7-30.7-6.3-42.7-16.2c-12.6-10-20.5-25.1-23.1-40.8c-1.9-11.2-1.2-22.7-1.4-34
		c0-31.5,0-63.1,0-94.6c-27.5,27.5-55,55-82.5,82.5c33.2,33.2,66.4,66.4,99.6,99.6c-27.3,0-54.6,0-82,0
		c-26.2-25.8-52.3-51.7-78.4-77.6c0,25.9,0,51.7,0,77.6c-21.7,0-43.5,0-65.2,0C404.2,180.7,404.2,116.8,404.2,53z"/>
	<path class="st0" d="M378.5,99.6c-11.1-19.5-29-34.9-49.9-43.2c-18.8-7.5-39.8-9.1-59.5-4.7c-22.5,5-43.1,18-57.1,36.3
		c-13.2,17-20.6,38.5-20.7,60c-0.3,21.7,6.8,43.5,20,60.8c16.2,21.8,41.8,36.2,68.7,39.1h22.5c18.9-2.2,37.2-9.6,52-21.7
		c19-15.1,32.1-37.5,35.8-61.5C393.9,142.6,389.8,119.1,378.5,99.6z M316.1,182c-4.3,8.6-11.3,16.9-21.1,18.9
		c-7.9,1.7-15.7-2.3-21-8c-7.3-8-11.4-18.5-13.4-29.1c-2.8-16.1-1.3-33.4,6-48.2c4-7.8,10-15.3,18.6-18.2c7.3-2.4,15.4,0.2,20.9,5.2
		c8.7,7.8,13.3,19.1,15.6,30.3C325,149.4,323.5,166.9,316.1,182z"/>
</g>
</svg>
