<?xml version="1.0" encoding="utf-8"?>
<!-- Generator: Adobe Illustrator 21.0.0, SVG Export Plug-In . SVG Version: 6.00 Build 0)  -->
<svg version="1.1" id="Слой_1" xmlns="http://www.w3.org/2000/svg" xmlns:xlink="http://www.w3.org/1999/xlink" x="0px" y="0px"
	 viewBox="0 0 821.2 232.5" style="enable-background:new 0 0 821.2 232.5;" xml:space="preserve">
<style type="text/css">
	.st0{fill:#117D10;}
	.st1{fill:url(#SVGID_1_);}
	.st2{fill:url(#SVGID_2_);}
	.st3{fill:url(#SVGID_3_);}
	.st4{fill:url(#SVGID_4_);}
	.st5{fill:url(#SVGID_5_);}
	.st6{fill:url(#SVGID_6_);}
	.st7{fill:url(#SVGID_7_);}
	.st8{fill:url(#SVGID_8_);}
</style>
<g>
	<path class="st0" d="M425.3,75.8c0.7,0,1.1,0,1.6,0c11.6,0,23.3-0.1,34.9,0.1c6.4,0.1,12.5,1.6,17.7,5.8
		c8.8,7.1,11.8,25.1-1.6,33.5c-0.2,0.1-0.3,0.2-0.5,0.4c1.8,1.3,3.8,2.5,5.5,4c5.2,4.6,7.1,10.6,6.8,17.4
		c-0.7,13.2-9.8,20.7-21.8,22.4c-5.9,0.9-12,0.7-18.1,0.8c-7.6,0.1-15.2,0-22.8,0c-0.5,0-1.1,0-1.8,0c0-13.1,0-26.2,0-39.3
		c-5.9,0-11.6,0-17.8,0c2.3-3.2,4.3-6,6.4-8.8c3.8,0,7.5,0,11.4,0C425.3,99.9,425.3,88,425.3,75.8z M435,151.1
		c0.5,0,0.9,0.1,1.3,0.1c7.8,0,15.6,0.1,23.4,0c4.1,0,8.2-0.5,12-2.3c5.7-2.6,8.8-7.8,8.4-14.4c-0.3-6.1-3.5-10.4-9.7-12.2
		c-3.2-0.9-6.6-1.4-10-1.5c-7.9-0.2-15.8-0.1-23.7-0.1c-0.5,0-1.1,0-1.7,0C435,131,435,141,435,151.1z M435,112
		c9.2,0,18.2,0.2,27.1-0.1c2.7-0.1,5.5-0.9,8-2.1c5.2-2.4,7.3-6.8,7.1-12.4c-0.2-5.5-3-9.3-8.1-11c-2.6-0.9-5.3-1.4-8-1.5
		c-8.3-0.2-16.7-0.1-25-0.1c-0.4,0-0.8,0.1-1.1,0.1C435,94,435,103,435,112z"/>
	<path class="st0" d="M534,73.8c18.8,0.1,33.9,11.7,38.5,30c2.8,11.1,2.7,22.1-1.5,32.8c-6.2,15.8-17.8,24.4-34.8,25.4
		c-20.9,1.2-37.2-11.9-41.3-32.8c-2.4-11.9-1.5-23.5,4.2-34.4c6.2-11.9,16.1-18.7,29.4-20.5C530.4,74,532.2,74,534,73.8z
		 M503.6,117.9c0,6.1,1,12,3.6,17.6c5.3,11,14,17.1,26.3,17.3c12.3,0.2,21.4-5.4,26.9-16.4c4.6-9.1,5.2-18.8,3-28.6
		c-2.9-13.4-12.3-23.3-25.8-24.7c-11.1-1.1-20.4,2.5-27.1,11.6C505.4,101.7,503.6,109.6,503.6,117.9z"/>
	<path class="st0" d="M603.6,123.8c-9,12.2-17.8,24.2-26.8,36.3c-3.7,0-7.4,0-11.4,0c10.9-14.8,21.6-29.4,32.4-44.1
		c-9.8-13.3-19.6-26.6-29.5-40.1c3.9,0,7.5,0,11.4,0c7.8,10.6,15.8,21.4,23.9,32.4c8.1-10.9,16-21.7,24-32.5c3.8,0,7.4,0,11.4,0
		c-10,13.5-19.7,26.8-29.6,40.1c10.8,14.6,21.5,29.2,32.3,44c-3.9,0-7.5,0-11.4,0C621.5,148.1,612.6,136,603.6,123.8z"/>
	<path class="st0" d="M358.8,75.9c7.9,10.7,15.8,21.5,23.9,32.5c8.1-11,16.1-21.8,24-32.5c3.8,0,7.4,0,11.4,0
		c-10,13.5-19.7,26.8-29.6,40.1c10.8,14.6,21.5,29.3,32.4,44.1c-4,0-7.6,0-11.4,0c-8.8-12-17.7-24-26.8-36.3
		c-9,12.2-17.9,24.2-26.7,36.3c-3.7,0-7.4,0-11.4,0c10.9-14.8,21.6-29.4,32.4-44.1c-9.8-13.3-19.6-26.6-29.5-40.1
		C351.4,75.9,355,75.9,358.8,75.9z"/>
	<g>
		<linearGradient id="SVGID_1_" gradientUnits="userSpaceOnUse" x1="268.3246" y1="88.7619" x2="260.6074" y2="68.6306">
			<stop  offset="0" style="stop-color:#7AC22C"/>
			<stop  offset="4.815797e-04" style="stop-color:#7AC22C"/>
			<stop  offset="0.1092" style="stop-color:#6BBE28"/>
			<stop  offset="0.199" style="stop-color:#66BD27"/>
			<stop  offset="0.2799" style="stop-color:#5CBA22"/>
			<stop  offset="0.3724" style="stop-color:#57B820"/>
			<stop  offset="0.4547" style="stop-color:#4BB21A"/>
			<stop  offset="0.5357" style="stop-color:#46B018"/>
			<stop  offset="0.6203" style="stop-color:#38A914"/>
			<stop  offset="0.6939" style="stop-color:#33A612"/>
			<stop  offset="0.7703" style="stop-color:#25A00E"/>
			<stop  offset="0.8367" style="stop-color:#209E0D"/>
			<stop  offset="0.8571" style="stop-color:#1B9B0B"/>
			<stop  offset="0.9353" style="stop-color:#0C9305"/>
			<stop  offset="1" style="stop-color:#079003"/>
		</linearGradient>
		<path class="st1" d="M288.2,59.8c-8.6-5-23.4-0.9-38.6,9.2l-0.2,70.3c5.6-1.1,11.4-3.4,16.8-6.5c5.5-3.2,11.1-7.3,16.8-12.1
			l-14.8-33.9c7.6-4.9,34.3-14,30.4-18.3C294.9,64.3,288.2,59.8,288.2,59.8z"/>
		
			<linearGradient id="SVGID_2_" gradientUnits="userSpaceOnUse" x1="7737.8921" y1="88.8764" x2="7730.1909" y2="68.7881" gradientTransform="matrix(-1 0 0 1 7968.7671 0)">
			<stop  offset="0" style="stop-color:#7AC22C"/>
			<stop  offset="4.815797e-04" style="stop-color:#7AC22C"/>
			<stop  offset="0.1092" style="stop-color:#6BBE28"/>
			<stop  offset="0.199" style="stop-color:#66BD27"/>
			<stop  offset="0.2799" style="stop-color:#5CBA22"/>
			<stop  offset="0.3724" style="stop-color:#57B820"/>
			<stop  offset="0.4547" style="stop-color:#4BB21A"/>
			<stop  offset="0.5357" style="stop-color:#46B018"/>
			<stop  offset="0.6203" style="stop-color:#38A914"/>
			<stop  offset="0.6939" style="stop-color:#33A612"/>
			<stop  offset="0.7703" style="stop-color:#25A00E"/>
			<stop  offset="0.8367" style="stop-color:#209E0D"/>
			<stop  offset="0.8571" style="stop-color:#1B9B0B"/>
			<stop  offset="0.9353" style="stop-color:#0C9305"/>
			<stop  offset="1" style="stop-color:#079003"/>
		</linearGradient>
		<path class="st2" d="M210.2,60.1c8.6-5,24.2-1.2,39.4,9l0.2,70.3c-5.6-1.1-11.4-3.4-16.8-6.5c-5.5-3.2-11.1-7.3-16.8-12.1
			L231,86.8c-7.6-4.9-34.3-14-30.4-18.3C204.3,64.3,210.2,60.1,210.2,60.1z"/>
		
			<linearGradient id="SVGID_3_" gradientUnits="userSpaceOnUse" x1="-580.0778" y1="690.0247" x2="-553.7716" y2="698.189" gradientTransform="matrix(0.8984 -0.6506 -0.8248 -1.0345 1366.1973 476.4648)">
			<stop  offset="0" style="stop-color:#7AC22C"/>
			<stop  offset="4.815797e-04" style="stop-color:#7AC22C"/>
			<stop  offset="0.1092" style="stop-color:#6BBE28"/>
			<stop  offset="0.199" style="stop-color:#66BD27"/>
			<stop  offset="0.2799" style="stop-color:#5CBA22"/>
			<stop  offset="0.3724" style="stop-color:#57B820"/>
			<stop  offset="0.4547" style="stop-color:#4BB21A"/>
			<stop  offset="0.5357" style="stop-color:#46B018"/>
			<stop  offset="0.6203" style="stop-color:#38A914"/>
			<stop  offset="0.6939" style="stop-color:#33A612"/>
			<stop  offset="0.7703" style="stop-color:#25A00E"/>
			<stop  offset="0.8367" style="stop-color:#209E0D"/>
			<stop  offset="0.8571" style="stop-color:#1B9B0B"/>
			<stop  offset="0.9353" style="stop-color:#0C9305"/>
			<stop  offset="1" style="stop-color:#079003"/>
		</linearGradient>
		<path class="st3" d="M293,172.5l-40.2-47.1l15.5-38.6c6.2,5.1,12.3,11.4,18,18.5c14,17.6,25.5,42.6,21.9,50.2
			C303.3,165.5,293,172.5,293,172.5z"/>
		
			<linearGradient id="SVGID_4_" gradientUnits="userSpaceOnUse" x1="4695.9014" y1="-2628.0645" x2="4722.2075" y2="-2619.9001" gradientTransform="matrix(-0.8984 -0.6506 0.8248 -1.0345 6609.7393 476.4648)">
			<stop  offset="0" style="stop-color:#7AC22C"/>
			<stop  offset="4.815797e-04" style="stop-color:#7AC22C"/>
			<stop  offset="0.1092" style="stop-color:#6BBE28"/>
			<stop  offset="0.199" style="stop-color:#66BD27"/>
			<stop  offset="0.2799" style="stop-color:#5CBA22"/>
			<stop  offset="0.3724" style="stop-color:#57B820"/>
			<stop  offset="0.4547" style="stop-color:#4BB21A"/>
			<stop  offset="0.5357" style="stop-color:#46B018"/>
			<stop  offset="0.6203" style="stop-color:#38A914"/>
			<stop  offset="0.6939" style="stop-color:#33A612"/>
			<stop  offset="0.7703" style="stop-color:#25A00E"/>
			<stop  offset="0.8367" style="stop-color:#209E0D"/>
			<stop  offset="0.8571" style="stop-color:#1B9B0B"/>
			<stop  offset="0.9353" style="stop-color:#0C9305"/>
			<stop  offset="1" style="stop-color:#079003"/>
		</linearGradient>
		<path class="st4" d="M206.2,172.5l40.2-47.1l-15.5-38.6c-6.2,5.1-12.3,11.4-18,18.5c-14,17.6-25.5,42.6-21.9,50.2
			C195.9,165.6,206.2,172.5,206.2,172.5z"/>
		<linearGradient id="SVGID_5_" gradientUnits="userSpaceOnUse" x1="249.1849" y1="46.1409" x2="249.1849" y2="66.0079">
			<stop  offset="0.137" style="stop-color:#BCBCBE"/>
			<stop  offset="0.328" style="stop-color:#D6D6D6"/>
			<stop  offset="0.545" style="stop-color:#EDEDEA"/>
			<stop  offset="0.7512" style="stop-color:#FAFAF7"/>
			<stop  offset="0.9337" style="stop-color:#FFFFFB"/>
		</linearGradient>
		<path class="st5" d="M249.6,69c29.4-16.2,38.7-9.1,38.7-9.1c-9-5.5-21.4-12-38.7-12c-17.4,0-28.3,5.8-39.5,12.3
			C210,60.2,219.3,52.6,249.6,69"/>
		<linearGradient id="SVGID_6_" gradientUnits="userSpaceOnUse" x1="249.4907" y1="189.1805" x2="249.4907" y2="105.0113">
			<stop  offset="0.137" style="stop-color:#BCBCBE"/>
			<stop  offset="0.328" style="stop-color:#D6D6D6"/>
			<stop  offset="0.545" style="stop-color:#EDEDEA"/>
			<stop  offset="0.7512" style="stop-color:#FAFAF7"/>
			<stop  offset="0.9337" style="stop-color:#FFFFFB"/>
		</linearGradient>
		<path class="st6" d="M201.7,162.3c0,0-1,5.8,1.1,7.6c14.2,12.2,28.3,18,46.8,18c19.3,0,31.9-6.3,46-17.3c2.7-2.1,1.7-7.6,1.7-7.6
			s-2.6-21.7-47.9-58.7C206.6,138,201.7,162.3,201.7,162.3z"/>
		<linearGradient id="SVGID_7_" gradientUnits="userSpaceOnUse" x1="317.6859" y1="114.7923" x2="276.869" y2="114.7923">
			<stop  offset="0.137" style="stop-color:#BCBCBE"/>
			<stop  offset="0.328" style="stop-color:#D6D6D6"/>
			<stop  offset="0.545" style="stop-color:#EDEDEA"/>
			<stop  offset="0.7512" style="stop-color:#FAFAF7"/>
			<stop  offset="0.9337" style="stop-color:#FFFFFB"/>
		</linearGradient>
		<path class="st7" d="M304.4,161.6c9.6-12,15.3-27.1,15.3-43.7c0-18.4-8-36.7-21.2-49.6c0,0-7.3-4.3-30.2,18.5
			C314.6,144.2,304.4,161.6,304.4,161.6z"/>
		<linearGradient id="SVGID_8_" gradientUnits="userSpaceOnUse" x1="179.5457" y1="114.7923" x2="230.9498" y2="114.7923">
			<stop  offset="0.137" style="stop-color:#BCBCBE"/>
			<stop  offset="0.328" style="stop-color:#D6D6D6"/>
			<stop  offset="0.545" style="stop-color:#EDEDEA"/>
			<stop  offset="0.7512" style="stop-color:#FAFAF7"/>
			<stop  offset="0.9337" style="stop-color:#FFFFFB"/>
		</linearGradient>
		<path class="st8" d="M230.9,86.8C208,64,200.7,68.3,200.7,68.3c-13.2,12.9-21.2,31.2-21.2,49.6c0,16.5,5.7,31.7,15.3,43.7
			C194.9,161.6,184.6,144.2,230.9,86.8z"/>
	</g>
</g>
</svg>
