<svg width="105" height="63" fill="none" xmlns="http://www.w3.org/2000/svg"><path d="M91.226 0h.145a2.48 2.48 0 0 1 2.101 1.322c.38.703.38 1.6.014 2.303a2.65 2.65 0 0 1-1.061 1.079c.014 1.461.034 2.922.055 4.377.937-.606 1.881-1.197 2.825-1.796-.041-.361-.048-.73.062-1.078.262-.946 1.2-1.642 2.17-1.607 1.034-.007 1.992.814 2.158 1.837.193.967-.345 2.017-1.234 2.428-.654.327-1.454.271-2.088-.076-1.288.82-2.577 1.642-3.866 2.456.021 1.392.028 2.776.056 4.168.096.076.2.16.296.243.806-.514 1.62-1.03 2.425-1.544 0-.286.014-.57.097-.842.282-.981 1.288-1.677 2.295-1.58 1.026.049 1.929.912 2.046 1.942.152.988-.448 2.01-1.364 2.372-.71.3-1.55.181-2.17-.271l-2.626 1.67c-.035.71-.4 1.37-.951 1.802.027 1.037 0 2.08-.117 3.11a.617.617 0 0 0 .296-.25c.648-.967 1.633-1.663 2.701-2.08 1.089-.425 2.274-.53 3.425-.467 1.027.056 2.06.244 2.99.703a4.519 4.519 0 0 1 1.999 1.879c.654 1.19.82 2.582.827 3.918v11.648h-2.681V25.955c-.014-1.134-.241-2.366-1.068-3.2-.806-.808-2.005-1.003-3.094-.989-.978.007-1.977.16-2.846.62-.785.403-1.399 1.106-1.75 1.913-.558 1.28-.661 2.707-.668 4.084v9.276h-2.68c.04-6.13.075-12.26.11-18.391-.27-.202-.524-.425-.697-.71a2.313 2.313 0 0 1-.103-2.303c.186-.376.49-.675.827-.912 0-.417.007-.835.007-1.252-1.11-.703-2.219-1.413-3.321-2.115-.703.466-1.661.514-2.385.069a2.25 2.25 0 0 1-1.075-2.248c.124-1.022 1.027-1.871 2.047-1.92.875-.077 1.757.431 2.15 1.225.207.396.262.856.234 1.3.793.509 1.585 1.01 2.37 1.51.014-2.407.028-4.821.049-7.229-.875-.487-1.427-1.524-1.275-2.533C89 .974 90.055.014 91.226 0Z" fill="#28282A"/><path d="M90.881.946c.4-.09.84-.062 1.2.167.702.383.998 1.357.62 2.074-.256.508-.8.883-1.372.877-.627.034-1.233-.383-1.475-.968-.137-.292-.137-.626-.096-.94.117-.577.572-1.043 1.123-1.21Zm6.264 4.593c.792-.237 1.695.438 1.681 1.28.035.71-.592 1.37-1.295 1.364-.73.049-1.413-.626-1.372-1.364-.013-.591.448-1.12.986-1.28ZM85.155 8.81c.8-.237 1.689.445 1.675 1.28.041.73-.634 1.405-1.358 1.364-.71.014-1.357-.654-1.316-1.364 0-.592.448-1.127 1-1.28ZM97.2 12.608c.772-.201 1.626.425 1.647 1.232.076.738-.586 1.434-1.31 1.42-.716.041-1.384-.62-1.357-1.343-.027-.606.455-1.155 1.02-1.309Zm-6.332 3.362c.827-.279 1.778.417 1.784 1.287.062.765-.634 1.496-1.392 1.461-.75.028-1.447-.696-1.385-1.461 0-.585.455-1.113.993-1.287Z" fill="#36C9EB"/><path d="M26.964 19.741c1.233-.41 2.563-.3 3.824-.076l-.372 2.511c-1.247-.278-2.612-.41-3.81.147-1.654.758-2.826 2.414-3.177 4.203-.2.911-.145 1.85-.152 2.783v8.37h-2.68V19.805h2.212c.103 1.113.2 2.226.317 3.34.192-.063.255-.272.358-.425.813-1.329 1.998-2.477 3.48-2.978Zm31.821.209c1.364-.53 2.866-.57 4.307-.376 1.205.174 2.425.62 3.307 1.503.813.807 1.24 1.941 1.42 3.062.186 1.057.137 2.143.144 3.215v10.319h-2.68V26.17c0-1.148-.172-2.393-.951-3.284-.703-.807-1.805-1.078-2.832-1.106-1.296-.035-2.674.146-3.749.94-.792.57-1.274 1.474-1.53 2.407-.447 1.58-.365 3.242-.372 4.864v7.675h-2.68V19.79h2.177c.159.828.27 1.67.462 2.49a1.02 1.02 0 0 0 .262-.285c.654-.946 1.64-1.642 2.715-2.045Zm18.274.355c1.578-.773 3.383-.94 5.112-.787 1.186.126 2.37.37 3.46.877-.276.765-.552 1.538-.827 2.303-1.151-.445-2.364-.772-3.597-.828-1.11-.035-2.267.16-3.211.78-.8.515-1.385 1.315-1.737 2.199-.427 1.05-.585 2.198-.627 3.326-.048 1.357.042 2.741.462 4.043.33.988.896 1.94 1.757 2.546.882.647 2.005.877 3.08.856 1.53-.007 3.032-.383 4.445-.96v2.4c-1.268.655-2.708.884-4.114.926h-.772c-1.42-.056-2.86-.376-4.072-1.141-1.185-.738-2.102-1.865-2.667-3.138-.648-1.448-.875-3.048-.896-4.628-.027-2.046.262-4.168 1.282-5.963.662-1.197 1.688-2.206 2.922-2.811Zm-61.872 4.801c-.4-1.607-1.22-3.16-2.522-4.203-1.04-.842-2.363-1.28-3.686-1.378-1.406-.104-2.867.063-4.135.724a5.786 5.786 0 0 0-1.736 1.378c-.18.202-.317.445-.545.598a66.32 66.32 0 0 0 .117-4.697v-5.24H0v25.378h1.923c.192-.765.378-1.538.565-2.303h.192c.669.925 1.578 1.67 2.64 2.08a7.916 7.916 0 0 0 2.597.543h.497c1.22-.02 2.453-.292 3.507-.925 1.302-.766 2.267-2.032 2.825-3.424.572-1.399.786-2.909.827-4.412.041-1.377-.048-2.77-.386-4.119Zm-2.412 4.676c-.103 1.552-.427 3.18-1.399 4.433-.716.932-1.867 1.433-3.018 1.496-1.267.07-2.625-.105-3.686-.877-.765-.55-1.247-1.413-1.516-2.303-.42-1.385-.482-2.846-.462-4.28.035-1.315.152-2.658.641-3.89.303-.765.82-1.454 1.523-1.878.593-.37 1.275-.564 1.957-.654 1.254-.154 2.611-.077 3.707.612.951.591 1.537 1.614 1.847 2.672.448 1.517.489 3.11.406 4.67Zm33.668-8.044c-.537-.89-1.44-1.496-2.405-1.816-1.213-.404-2.508-.466-3.776-.39a12.86 12.86 0 0 0-5.168 1.503c.276.69.551 1.378.827 2.074 1.654-.8 3.452-1.433 5.313-1.364.895.035 1.853.258 2.494.933.462.48.71 1.12.834 1.76.172.828.117 1.677.124 2.52-1.53.062-3.06.062-4.59.194-1.391.14-2.783.403-4.058 1.009-.972.46-1.86 1.169-2.363 2.136-.614 1.141-.669 2.498-.448 3.75.193 1.086.758 2.123 1.633 2.798.992.793 2.28 1.106 3.52 1.155h.848c1.172-.07 2.378-.271 3.377-.918a7.814 7.814 0 0 0 1.55-1.357c.2-.216.365-.467.607-.647.213.855.372 1.732.558 2.595h1.984v-11.99c.007-1.356-.144-2.776-.861-3.945Zm-1.964 10.215c-.213 1.079-.8 2.095-1.674 2.756-1.027.8-2.364 1.071-3.639 1.05-.813-.013-1.667-.187-2.308-.716-.517-.41-.82-1.05-.896-1.698-.11-.877.007-1.837.538-2.568.455-.64 1.178-1.023 1.908-1.26 1.406-.451 2.895-.5 4.355-.556.62-.028 1.248-.056 1.868-.076-.035 1.015.069 2.06-.152 3.068Z" fill="#28282A"/><path d="M19.653 60.144c2.148 0 3.204-1.104 3.204-2.568 0-2.988-4.596-2.136-4.596-3.396 0-.48.408-.792 1.128-.792.816 0 1.68.276 2.328.876l.948-1.272c-.792-.732-1.848-1.116-3.12-1.116-1.884 0-3.036 1.104-3.036 2.436 0 3.012 4.608 2.04 4.608 3.432 0 .468-.444.888-1.392.888a3.517 3.517 0 0 1-2.544-1.092l-.936 1.332c.756.756 1.86 1.272 3.408 1.272ZM31.088 60v-1.5h-3.264c2.076-1.512 3.204-2.7 3.204-4.068 0-1.596-1.344-2.556-3.06-2.556-1.116 0-2.304.408-3.084 1.308l.972 1.128c.54-.564 1.236-.924 2.148-.924.66 0 1.296.336 1.296 1.044 0 .984-.96 1.8-4.236 4.224V60h6.024Zm5.556.144c2.148 0 3.204-1.104 3.204-2.568 0-2.988-4.596-2.136-4.596-3.396 0-.48.408-.792 1.128-.792.816 0 1.68.276 2.328.876l.948-1.272c-.792-.732-1.848-1.116-3.12-1.116-1.884 0-3.036 1.104-3.036 2.436 0 3.012 4.608 2.04 4.608 3.432 0 .468-.444.888-1.392.888a3.517 3.517 0 0 1-2.544-1.092l-.936 1.332c.756.756 1.86 1.272 3.408 1.272ZM52.33 60v-1.5h-3.96v-1.824h3.875v-1.5H48.37v-1.68h3.96v-1.5h-5.664V60h5.664Zm7.011 0 3.084-8.004h-1.932l-2.22 6.144-2.22-6.144h-1.932L57.205 60h2.136Zm10.787 0v-1.5h-3.96v-1.824h3.876v-1.5h-3.876v-1.68h3.96v-1.5h-5.664V60h5.664Zm9.796 0v-8.004H78.22v5.028l-3.708-5.028H72.76V60h1.704v-5.22L78.28 60h1.644Zm6.443 0v-6.504h2.328v-1.5H82.31v1.5h2.34V60h1.716Z" fill="#888"/></svg>