<?xml version="1.0" encoding="utf-8"?>
<!-- Generator: Adobe Illustrator 18.0.0, SVG Export Plug-In . SVG Version: 6.00 Build 0)  -->
<!DOCTYPE svg PUBLIC "-//W3C//DTD SVG 1.1//EN" "http://www.w3.org/Graphics/SVG/1.1/DTD/svg11.dtd">
<svg version="1.1" id="Layer_1" xmlns="http://www.w3.org/2000/svg" xmlns:xlink="http://www.w3.org/1999/xlink" x="0px" y="0px"
	 viewBox="0 0 18 16" enable-background="new 0 0 18 16" xml:space="preserve">
<path fill="#5B5A5D" d="M6.8,7.3l2.9,3c0.4,0.4,0.4,1.1,0,1.5s-1.1,0.4-1.5,0l-2.9-3c-0.4-0.4-0.4-1.1,0-1.5
	C5.7,6.9,6.4,6.9,6.8,7.3z"/>
<path fill="#5B5A5D" d="M12.7,8.9l-3,2.9c-0.4,0.4-1.1,0.4-1.5,0c-0.4-0.4-0.4-1.1,0-1.5l3-2.9c0.4-0.4,1.1-0.4,1.5,0
	C13.1,7.9,13.1,8.5,12.7,8.9z"/>
<path fill="#5B5A5D" d="M10,1v10c0,0.6-0.4,1-1,1c-0.5,0-1-0.4-1-1V1c0-0.6,0.4-1,1-1S10,0.5,10,1z"/>
<path fill="#5B5A5D" d="M2,11v4c0,0.6-0.4,1-1,1c-0.5,0-1-0.4-1-1v-4c0-0.6,0.4-1,1-1S2,10.5,2,11z"/>
<path fill="#5B5A5D" d="M18,11v4c0,0.6-0.4,1-1,1s-1-0.4-1-1v-4c0-0.6,0.4-1,1-1S18,10.4,18,11z"/>
<path fill="#5B5A5D" d="M17,16H1c-0.6,0-1-0.5-1-1c0-0.6,0.4-1,1-1h16c0.6,0,1,0.5,1,1C18,15.6,17.6,16,17,16z"/>
</svg>
