<?xml version="1.0" encoding="UTF-8"?><svg id="Layer_2" xmlns="http://www.w3.org/2000/svg" viewBox="0 0 700.71 512.96"><defs><style>.cls-1{fill:#454699;stroke:#454699;stroke-miterlimit:10;}</style></defs><g id="Layer_1-2"><g><path class="cls-1" d="M104.66,258.78l-19.88,93.52c28-2.24,49-39.2,49-68.88,0-20.72-10.08-38.08-34.72-38.08-45.36,0-72.52,25.48-72.52,68.04,0,14.28,3.64,16.52,3.92,19.04-19.32,0-29.96-7-29.96-27.16,0-37.24,51.52-72.8,98.28-72.8s66.08,26.32,66.08,55.16c0,35.56-30.52,75.04-80.92,75.04h-1.4l-17.08,79.8H25.14l38.08-178.08,41.44-5.6Z"/><path class="cls-1" d="M217.5,302.46l-20.16,95.2c-.56,3.08-1.12,6.16-1.12,8.68,0,6.16,2.8,10.64,14,10.64s25.76-15.68,36.96-24.64h9.52c-12.88,12.88-44.52,50.12-66.36,50.12s-35-9.52-35-30.52c0-4.2,.56-8.96,1.68-14.28l20.16-95.2h40.32Zm-12.88-59.36c12.32,0,22.4,10.08,22.4,22.4s-10.08,22.12-22.4,22.12-22.12-9.8-22.12-22.12,9.8-22.4,22.12-22.4Z"/><path class="cls-1" d="M227.3,397.94c0-35.56,15.12-98,66.08-98,22.96,0,35.84,9.52,35.84,29.12,0,34.16-36.68,53.76-63.28,57.12-.56,4.48-.84,8.68-.84,12.04,0,18.48,9.24,24.08,20.16,24.08,13.16,0,24.36-7.56,35.84-17.92,0,30.24-24.36,38.08-52.36,38.08s-41.44-20.44-41.44-44.52Zm75.32-83.16c-15.68,0-28.56,31.64-34.44,57.96,25.76-.28,43.96-22.4,44.24-42.28,0-5.88-1.4-15.68-9.8-15.68Z"/><path class="cls-1" d="M469.78,394.86c-14.84,40.88-48.16,49.28-74.48,49.28-38.64,0-57.96-27.72-57.96-56.56,0-26.88,16.8-54.88,50.68-61.88-19.04-10.36-27.72-26.6-27.72-42.56,0-25.48,22.4-50.68,62.16-50.68,26.04,0,51.52,10.36,51.52,37.52,0,14.84-5.32,25.76-19.6,25.76-4.48,0-10.64-1.12-15.96-7.28,7-1.96,12.32-15.96,12.32-22.96,0-4.48-.56-20.72-18.48-20.72-20.44,0-34.16,15.68-34.16,34.44,0,16.24,10.64,34.44,36.96,46.2-35.56,14.56-48.72,36.96-48.72,56.28,0,20.44,14.84,37.24,32.76,37.24,21.56,0,33.88-8.96,44.24-26.88l6.44,2.8Z"/><path class="cls-1" d="M597.17,302.46l-26.04,122.64c17.36-8.4,33.32-20.72,42.84-41.44l-1.12,22.12c-3.64,17.64-22.68,26.04-44.52,32.2l-5.6,26.88c-8.4,40.04-31.92,47.6-50.4,47.6-17.08,0-33.04-12.04-33.04-30.24,0-25.76,21.56-34.16,48.16-42l3.92-19.04c-12.6,11.48-26.32,21.28-37.52,21.28-21.56,0-35-9.52-35-30.52,0-4.2,.56-8.96,1.68-14.28l20.16-95.2h40.32l-20.16,95.2c-.56,3.08-1.12,6.16-1.12,8.68,0,6.16,2.8,10.64,14,10.64,6.16,0,13.72-4.76,21-10.92l22.12-103.6h40.32Zm-91.28,185.08c5.6,0,12.88-5.32,16.24-21.84l3.36-16.24c-17.64,5.88-30.8,13.72-30.8,28.84,0,3.92,5.04,9.24,11.2,9.24Z"/><path class="cls-1" d="M598.29,397.94c0-35.56,15.12-98,66.08-98,22.96,0,35.84,9.52,35.84,29.12,0,34.16-36.68,53.76-63.28,57.12-.56,4.48-.84,8.68-.84,12.04,0,18.48,9.24,24.08,20.16,24.08,13.16,0,24.36-7.56,35.84-17.92,0,30.24-24.36,38.08-52.36,38.08s-41.44-20.44-41.44-44.52Zm75.32-83.16c-15.68,0-28.56,31.64-34.44,57.96,25.76-.28,43.96-22.4,44.24-42.28,0-5.88-1.4-15.68-9.8-15.68Z"/></g><g><path class="cls-1" d="M365.81,.8c62.63,4.71,122.7,32.15,166.94,77.56,37.13,35.04,27.47,28.23-3.09,58.87-.54,.54-1.01,1.16-1.55,1.69-50.21,49.3-119.36,76.36-189.89,72.72-61.71-3.25-117.71-29.11-162.31-71.37-40.04-40.96-35.24-29.04-3.41-64.86,.33-.37,.67-.73,1.01-1.07C224.33,23.85,294.27-2.63,365.81,.8Zm-19.1,9.24c-58.44,2.15-118.67,25.52-161.47,66.6-36.2,35.49-29.51,26.32-11.1,47.27,46.4,52.23,113.82,78.7,183.02,78.69,59.17-2.82,113.81-24.42,156.93-63.79,.73-.67,1.4-1.39,2.04-2.15,12.74-14.98,33.96-27.15,24.72-35.7-.77-.71-1.53-1.44-2.22-2.24C489.39,41.47,423.89,10.9,346.71,10.04Z"/><path class="cls-1" d="M264.02,105.93c6.92-117.62,171.01-112.68,174.13,.56-5.31,117.28-170.17,113.71-174.13-.56ZM351.13,29.16c-105.91,5.63-98.89,151.87,.8,154.66,104.61-6.69,98.88-151.84-.8-154.66Z"/><path class="cls-1" d="M320.86,101.75c6.96-.86,17.61,1.55,24.94-.98,3.81-15.21-2.34-34.74,2.24-50.81,36.54-9.55,72,38.69,58.64,73.63-13.18,41.67-64.9,52.9-93.92,26.01-12.99-11.3-23.24-31.81-17.66-47,7.64-2.53,17.13-.08,25.77-.85Zm-17.27,9.18c5.14,54.4,82.3,59.31,94.86,5.22,7.24-32.48-21.05-58.12-42.64-57.26-.03,14.81,.05,29.92-.02,46.24,2.65,12.05-46.35,3.38-52.19,5.81Z"/></g></g></svg>
