<?xml version="1.0" encoding="utf-8"?>
<!-- Generator: Adobe Illustrator 22.1.0, SVG Export Plug-In . SVG Version: 6.00 Build 0)  -->
<svg version="1.1" id="Layer_1" xmlns="http://www.w3.org/2000/svg" xmlns:xlink="http://www.w3.org/1999/xlink" x="0px" y="0px"
	 width="300px" height="62.8px" viewBox="0 0 300 62.8" style="enable-background:new 0 0 300 62.8;" xml:space="preserve">
<style type="text/css">
	.st0{fill:#FFFFFF;}
</style>
<title>Logo-Black-Vector</title>
<g id="Logo-Black-Vector">
	<polygon class="st0" points="50.2,47.1 50.2,62.8 75.4,47.1 75.4,31.4 	"/>
	<polygon class="st0" points="25.1,47.1 25.1,62.8 50.2,47.1 50.2,31.4 	"/>
	<polygon class="st0" points="0,47.1 0,62.8 25.1,47.1 25.1,31.4 	"/>
	<polygon class="st0" points="75.4,0 50.2,15.7 50.2,31.4 75.4,15.7 75.4,0 	"/>
	<polygon class="st0" points="50.2,0 25.1,15.7 25.1,31.4 50.2,15.7 50.2,0 	"/>
	<polygon class="st0" points="25.1,0 0,15.7 0,31.4 25.1,15.7 25.1,0 	"/>
	<g>
		<g>
			<path class="st0" d="M127.6,32.3v14.9h-6.4V32.8c0-2.9-1.4-4.4-4-4.4c-2,0-4,0.9-5.2,2.5v16.2h-6.4V32.8c0-2.9-1.3-4.4-4-4.4
				c-2.1,0-4,1-5.2,2.7v16.1h-6.5V23.5h6v2.2c2.1-1.8,4.8-2.7,7.6-2.7c3.3,0,5.6,1.1,7,3.3c2.4-2.1,5.4-3.3,8.6-3.3
				C124.5,23,127.5,26.3,127.6,32.3"/>
			<path class="st0" d="M155.8,28.9c2.8,5,2,11.3-2,15.5c-2.2,2.2-5.2,3.4-8.3,3.4c-2.2,0-4.4-0.7-6.1-2.2v12.7h-6.5V23.5h6.3v1.8
				c1.8-1.5,4-2.3,6.3-2.3C149.7,23,153.7,25.2,155.8,28.9 M151,35.3c0-4.2-3-6.8-6.3-6.8c-2.1,0-4.1,0.9-5.4,2.4V40
				c1.3,1.5,3.2,2.3,5.2,2.3C148.1,42.3,151,39.7,151,35.3"/>
			<path class="st0" d="M184.7,47.2h-6.1v-2c-1.7,1.7-4.1,2.6-6.5,2.6c-4.2,0-8.2-2.2-10.3-5.9c-1.2-1.9-1.7-4.2-1.7-6.4
				c-0.1-4.5,2.3-8.6,6.1-10.8c1.8-1,3.8-1.6,5.9-1.5c2.4-0.1,4.7,0.8,6.4,2.5v-2h6.1L184.7,47.2z M178.3,40v-9.2
				c-1.4-1.5-3.3-2.3-5.3-2.3c-3.5,0-6.4,2.7-6.4,6.9s2.9,6.9,6.4,6.9C175,42.4,177,41.5,178.3,40"/>
			<path class="st0" d="M196.3,23.5v2.2c1.9-1.9,4.1-2.6,7.7-2.6v6.1c-0.6-0.2-1.2-0.2-1.8-0.2c-2.1,0.1-4.1,1.1-5.5,2.7v15.5h-6.5
				V23.5H196.3z"/>
			<polygon class="st0" points="223.5,23.5 223.5,28.8 218.1,28.8 218.1,47.2 211.7,47.2 211.7,28.8 206.7,28.8 206.7,23.5 
				211.7,23.5 211.7,15.6 218.1,15.6 218.1,23.5 			"/>
			<path class="st0" d="M227.1,13.8h6.8v6.5h-6.8V13.8z M233.8,23.5h-6.5v23.7h6.5V23.5z"/>
			<path class="st0" d="M261,42.4c-4.3,5.8-12.6,7-18.4,2.7c-1.2-0.9-2.3-2-3.1-3.3c-3.5-5.9-1.6-13.5,4.3-17c0.1,0,0.1-0.1,0.2-0.1
				c2-1.1,4.2-1.6,6.4-1.6c4.7,0,8.2,1.8,10.5,5.4l-5,3.1c-1.2-1.9-3.3-3-5.5-3c-3.8,0-6.3,2.9-6.3,7s2.4,6.7,6.2,6.7
				c2.3,0,4.5-1,5.8-2.9L261,42.4z"/>
			<rect x="265.2" y="11.7" class="st0" width="6.4" height="35.5"/>
			<path class="st0" d="M293.9,39.4c-1.5,1.8-3.6,2.8-5.9,2.7c-3.4,0-5.7-1.8-6.2-5.3H300c0-0.3,0.1-0.7,0-1
				c0-7.9-4.9-12.9-12.1-12.9c-2.3-0.1-4.6,0.5-6.6,1.7c-3.8,2.2-6.1,6.3-6,10.7c0,3.2,1.2,6.3,3.4,8.7c5.3,5,13.7,4.8,18.7-0.5
				c0.3-0.3,0.6-0.7,0.9-1.1l0,0L293.9,39.4z M288.1,28.3c2.7-0.2,5.2,1.7,5.7,4.4H282C282.7,29.9,285.3,28.1,288.1,28.3"/>
		</g>
	</g>
</g>
</svg>
