<?xml version="1.0" encoding="utf-8"?>
<!-- Generator: Adobe Illustrator 21.0.2, SVG Export Plug-In . SVG Version: 6.00 Build 0)  -->
<!DOCTYPE svg PUBLIC "-//W3C//DTD SVG 1.1//EN" "http://www.w3.org/Graphics/SVG/1.1/DTD/svg11.dtd">
<svg version="1.1" id="Layer_1" xmlns="http://www.w3.org/2000/svg" xmlns:xlink="http://www.w3.org/1999/xlink" x="0px" y="0px"
	 viewBox="0 0 185.8 27.7" style="enable-background:new 0 0 185.8 27.7;" xml:space="preserve">
<style type="text/css">
	.st0{fill:#F32153;}
	.st1{fill:#FFFFFF;}
</style>
<title>mparticle_logo</title>
<g id="Layer_2">
	<g id="LOGO">
		<path class="st0" d="M29.3,13.4c0.9,0.9,0.9,2.3,0,3.2c-0.9,0.9-2.3,0.9-3.2,0c0,0,0,0,0,0v-0.1l0,0l-2.2-2.2l-5.5,5.7
			c-0.9,0.9-2.3,0.9-3.2,0.1c0,0-0.1,0-0.1-0.1l-5.5-5.8l-5.8,5.8C3,21,1.6,21,0.7,20.1c-0.9-0.9-0.9-2.3,0-3.2L8,9.5
			c0.4-0.4,1-0.7,1.6-0.7c0.6,0,1.2,0.3,1.6,0.7l5.5,5.7l5.5-5.7c0.4-0.4,1-0.7,1.6-0.7l0,0c0.6,0,1.2,0.2,1.6,0.7l3.7,3.8l0,0
			L29.3,13.4z M41.9,9.8l-7.3-7.3c-0.9-0.9-2.3-0.9-3.2,0c-0.9,0.9-0.9,2.3,0,3.2l5.7,5.7L33,15.5l-1.7,1.7c-0.9,0.9-0.9,2.3,0,3.2
			c0.4,0.4,0.8,0.6,1.4,0.7h0.3c0.6,0,1.2-0.2,1.6-0.7l7.5-7.4C42.8,12.1,42.8,10.7,41.9,9.8C41.9,9.8,41.9,9.8,41.9,9.8L41.9,9.8z"
			/>
		<path class="st1" d="M71.6,4.8c-2.4,0-4.7,1.2-6,3.3c-2.2-3.3-6.6-4.3-9.9-2.1c-2,1.3-3.2,3.6-3.3,6v8.3c0,0.7,0.5,1.2,1.2,1.2
			c0.7,0,1.2-0.5,1.2-1.2v-8.5c0-2.6,2.2-4.8,4.9-4.7c2.6,0,4.8,2.2,4.7,4.9l0,0v8.3c0,0.7,0.5,1.2,1.2,1.2c0.7,0,1.2-0.5,1.2-1.2
			V12c0.1-2.6,2.4-4.7,5-4.6c2.5,0.1,4.5,2.1,4.6,4.6v8.3c0,0,0-0.6,0,0.1c0,0.7,0.6,1.2,1.2,1.2c0.7,0,1.2-0.5,1.2-1.2V12
			C78.7,8,75.5,4.8,71.6,4.8z M155.1,7c1.7,0.1,3.3,0.8,4.5,2l0.2,0.2c0.2,0.2,0.5,0.3,0.8,0.3c0.7,0,1.2-0.5,1.2-1.2
			c0-0.3-0.2-0.7-0.4-0.9l-0.1-0.1c-3.2-3.3-8.5-3.4-11.8-0.2c-1.7,1.6-2.6,3.9-2.6,6.2c0,4.6,3.7,8.4,8.3,8.4c2.4,0,4.7-1,6.2-2.8
			c0.2-0.2,0.3-0.4,0.3-0.6c0-0.1,0-0.2,0-0.2c0-0.6-0.4-1-0.9-1.2c-0.1,0-0.2,0-0.3,0c-0.3,0-0.7,0.2-0.9,0.4
			c-1.1,1.2-2.7,2-4.4,2.1c-3.3-0.1-6-2.8-6-6.1C149.2,9.9,151.8,7.1,155.1,7C155.1,7,155.1,7,155.1,7z M90.1,4.8
			c-4.2,0-7.7,3.2-8.1,7.3c0,0-0.1,0.7-0.1,1v13.5c0,0.7,0.5,1.2,1.2,1.2c0.7,0,1.2-0.5,1.2-1.2c0,0,0,0,0,0c0,0,0-0.1,0-0.1V13.1
			c0-3.2,2.6-5.8,5.8-5.8s5.8,2.6,5.8,5.8c0,3.2-2.6,5.9-5.8,5.9c0,0,0,0,0,0c-0.3,0-1.3-0.1-1.4-0.1c-0.6,0-1.2,0.5-1.2,1.1
			c0,0,0,0,0,0.1c0,0.6,0.4,1.1,1.2,1.2c0,0,1.1,0.1,1.4,0.1c4.6-0.2,8.2-4,8-8.6C98,8.4,94.5,4.9,90.1,4.8L90.1,4.8z M125.9,4.8
			L125.9,4.8c-0.2,0-0.3,0-0.4,0h-0.1c-0.9,0.3-1.8,0.6-2.6,1c-0.8,0.4-1.5,0.9-2.1,1.4c-0.2,0.2-0.4,0.4-0.7,0.6
			c-1.4,1.1-2.2,2.8-2.1,4.6v7.9c0.1,0.7,0.6,1.2,1.3,1.1c0.6-0.1,1-0.5,1.1-1.1v-7.4c0-1.5,0.2-2.2,2-3.7c1.1-0.9,2.3-1.5,3.7-1.8
			l0,0c0.1,0,0.2-0.1,0.3-0.1c0.5-0.2,0.8-0.6,0.8-1.1C127.1,5.3,126.5,4.8,125.9,4.8C125.9,4.8,125.9,4.8,125.9,4.8L125.9,4.8z
			 M167.2,1.2c0-0.7-0.6-1.2-1.2-1.2c-0.7,0-1.2,0.5-1.2,1.2c0,0,0,0.1,0,0.2v19c-0.1,0.7,0.4,1.3,1.1,1.3c0.7,0.1,1.3-0.4,1.3-1.1
			c0-0.1,0-0.1,0-0.2L167.2,1.2L167.2,1.2z M136.9,7.4c0.1,0,0.2,0,0.3,0h0.1h0.1c0.3-0.1,0.5-0.3,0.7-0.6l0,0V6.7V6.5V6.4
			c0,0,0,0,0-0.1V6.3c0,0,0-0.1,0-0.1c0-0.6-0.5-1.1-1.1-1.2h-4.4V1.2c0-0.4-0.2-0.8-0.5-1c-0.5-0.4-1.3-0.3-1.7,0.2
			c-0.2,0.2-0.3,0.5-0.3,0.7v15.6c-0.2,2.4,1.7,4.6,4.1,4.7c0.2,0,0.5,0,0.7,0c0.8,0,1.6-0.1,2.3-0.4l0.1-0.1c0.6-0.3,0.9-1,0.6-1.6
			c-0.2-0.4-0.6-0.7-1.1-0.7c-0.3,0-0.5,0.1-0.8,0.2c-0.3,0.1-0.7,0.2-1,0.2c-0.7,0.1-1.5-0.1-2.1-0.6c-0.4-0.5-0.6-1.2-0.6-1.9V7.4
			H136.9z M143.8,1.4c0,0.8-0.6,1.5-1.4,1.5s-1.5-0.6-1.5-1.4c0-0.8,0.6-1.5,1.4-1.5c0,0,0,0,0,0C143.1,0,143.8,0.6,143.8,1.4
			L143.8,1.4z M142.3,4.8c-0.7,0-1.2,0.5-1.2,1.2v14.3c0.1,0.7,0.6,1.2,1.3,1.1c0.6-0.1,1-0.5,1.1-1.1V6.1c0-0.1,0-0.2,0-0.3
			C143.4,5.3,142.9,4.9,142.3,4.8L142.3,4.8z M178.3,4.6c-4.3,0-7.7,3.7-7.7,8.5s3.4,8.5,8,8.5c2.4,0.1,4.7-0.9,6.3-2.6l0.1-0.1
			c0.2-0.2,0.4-0.5,0.4-0.9c0-0.7-0.5-1.2-1.2-1.2c-0.3,0-0.7,0.2-0.9,0.4c-1.1,1.3-2.8,2-4.5,2c-2.8,0-5.2-2.1-5.6-4.9
			c-0.1-0.4-0.1-0.9-0.1-1.3c0-0.4,0-0.8,0.1-1.2c0.3-1.9,1.5-3.5,3.2-4.3l0.3-0.2c0.5-0.2,1.1-0.4,1.6-0.4c1.3-0.1,2.6,0.4,3.5,1.4
			c0.6,0.6,1,1.3,1.3,2.1c0.2,0.4,0.3,0.9,0.3,1.4h-7c-0.6,0-1.2,0.5-1.2,1.1c0,0,0,0.1,0,0.1c0,0.6,0.5,1.1,1.2,1.1c0,0,0,0,0,0
			h8.1c0.7,0,1.2-0.5,1.3-1.2c0,0,0,0,0,0C185.8,8.2,182.7,4.6,178.3,4.6L178.3,4.6z M114.7,13.8v3c0,0.1,0,0.3,0,0.4
			c-0.4,2.7-3.6,4.9-7.1,4.9c-3.8,0-6.9-2.6-6.9-5.8s3.1-5.8,6.9-5.8c0.7,0,1.3,0.1,2,0.3c0.6,0.1,1,0.6,1,1.2
			c0,0.7-0.5,1.2-1.2,1.2c0,0,0,0,0,0c-0.4,0-1.3-0.2-1.8-0.2c-1.3,0-2.6,0.5-3.6,1.4c-0.6,0.5-0.9,1.3-0.9,2.1c0,1.9,2,3.4,4.5,3.4
			h0.1c1.4,0,2.7-0.4,3.7-1.4c0.6-0.6,0.9-1.3,0.8-2.1c0-0.1,0-4.8,0-5c0-2.7-1.6-4.1-4.5-4.1l0,0c-1.4,0-2.9,0.4-4.2,1
			c-0.1,0-0.2,0.1-0.3,0.1c-0.1,0-0.2,0-0.2,0c-0.6,0-1.1-0.4-1.2-0.9c-0.2-0.6,0.1-1.2,0.7-1.4h0.1c1.6-0.7,3.4-1.1,5.2-1.2
			c1.9-0.1,3.8,0.6,5.2,1.8c1.1,1.1,1.8,2.6,1.8,4.2L114.7,13.8z"/>
	</g>
</g>
</svg>
