<svg width="20" height="20" viewBox="0 0 20 20" fill="none" xmlns="http://www.w3.org/2000/svg">
<g clip-path="url(#clip0)">
<path d="M4.99306 14.9948C4.99306 15.4953 5.32674 15.829 5.82726 15.829H6.66146V18.7487C6.66146 19.4161 7.2454 20 7.91276 20C8.58012 20 9.16406 19.4161 9.16406 18.7487V15.829H10.8325V18.7487C10.8325 19.4161 11.4164 20 12.0838 20C12.7511 20 13.3351 19.4161 13.3351 18.7487V15.829H14.1693C14.6698 15.829 15.0035 15.4953 15.0035 14.9948V6.65279H4.99306V14.9948ZM2.90755 6.65279C2.24019 6.65279 1.65625 7.23677 1.65625 7.90409V13.7435C1.65625 14.4109 2.24019 14.9948 2.90755 14.9948C3.57491 14.9948 4.15885 14.4109 4.15885 13.7435V7.90409C4.15885 7.23673 3.57491 6.65279 2.90755 6.65279ZM17.089 6.65279C16.4216 6.65279 15.8377 7.23677 15.8377 7.90409V13.7435C15.8377 14.4109 16.4216 14.9948 17.089 14.9948C17.7563 14.9948 18.3403 14.4109 18.3403 13.7435V7.90409C18.3403 7.23673 17.7563 6.65279 17.089 6.65279ZM12.918 1.81442L14.0024 0.729959C14.1693 0.563119 14.1693 0.312858 14.0024 0.146018C13.8356 -0.020855 13.5853 -0.020855 13.4185 0.146018L12.1672 1.39732C11.5832 0.98022 10.8324 0.813347 9.99823 0.813347C9.16403 0.813347 8.41325 0.98022 7.74589 1.31387L6.57801 0.0625651C6.41117 -0.020855 6.07749 -0.020855 5.91065 0.0625651C5.82723 0.229438 5.82723 0.563119 5.91065 0.729927L6.99511 1.81439C5.82723 2.73201 4.99302 4.15012 4.99302 5.81852H15.0034C15.0035 4.15019 14.1693 2.64862 12.918 1.81442ZM8.32986 4.15019H7.49566V3.31598H8.32986V4.15019ZM12.5009 4.15019H11.6667V3.31598H12.5009V4.15019Z" fill="black"/>
</g>
<defs>
<clipPath id="clip0">
<rect width="20" height="20" fill="white"/>
</clipPath>
</defs>
</svg>
