<?xml version="1.0" encoding="utf-8"?>
<!-- Generator: Adobe Illustrator 21.0.2, SVG Export Plug-In . SVG Version: 6.00 Build 0)  -->
<!DOCTYPE svg PUBLIC "-//W3C//DTD SVG 1.1//EN" "http://www.w3.org/Graphics/SVG/1.1/DTD/svg11.dtd">
<svg version="1.1" id="Layer_1" xmlns="http://www.w3.org/2000/svg" xmlns:xlink="http://www.w3.org/1999/xlink" x="0px" y="0px"
	 viewBox="0 0 24 24" style="enable-background:new 0 0 24 24;" xml:space="preserve">
<style type="text/css">
	.st0{fill:#162D4B;}
</style>
<title>Icon-Arrow-Right-10x9-LightGrey</title>
<desc>Created with Sketch.</desc>
<g id="Symbols">
	<g id="Icon-Arrow-Right-10x9-LightGrey">
		<path id="Sent" class="st0" d="M13.9,13.4H6.7c-0.7,0-1.3-0.6-1.3-1.3c0-0.7,0.6-1.3,1.3-1.3h7.4l-2.5-2.5c-0.5-0.5-0.5-1.4,0-1.9
			l0,0c0.5-0.5,1.4-0.5,1.9,0l4.4,4.4c0.1,0.1,0.2,0.1,0.3,0.2l0,0c0.3,0.3,0.4,0.6,0.4,1c0,0.4-0.1,0.7-0.4,1l0,0
			c-0.1,0.1-0.2,0.2-0.3,0.2l-4.4,4.4c-0.5,0.5-1.4,0.5-1.9,0l0,0c-0.5-0.5-0.5-1.4,0-1.9L13.9,13.4z"/>
	</g>
</g>
</svg>
