<?xml version="1.0" encoding="utf-8"?>
<!-- Generator: Adobe Illustrator 21.0.2, SVG Export Plug-In . SVG Version: 6.00 Build 0)  -->
<!DOCTYPE svg PUBLIC "-//W3C//DTD SVG 1.1//EN" "http://www.w3.org/Graphics/SVG/1.1/DTD/svg11.dtd">
<svg version="1.1" id="Back_to_Top" xmlns="http://www.w3.org/2000/svg" xmlns:xlink="http://www.w3.org/1999/xlink" x="0px"
	 y="0px" viewBox="0 0 47 47" style="enable-background:new 0 0 47 47;" xml:space="preserve">
<style type="text/css">
	.st0{fill:#FFFFFF;}
	.st1{fill:#F0F0F0;}
	.st2{fill:none;enable-background:new    ;}
	.st3{fill:#CCCCCC;}
</style>
<g>
	<circle class="st0" cx="23.5" cy="23.5" r="23"/>
	<path class="st1" d="M23.5,47C10.5,47,0,36.5,0,23.5C0,10.5,10.5,0,23.5,0C36.5,0,47,10.5,47,23.5C47,36.5,36.5,47,23.5,47z
		 M23.5,1C11.1,1,1,11.1,1,23.5S11.1,46,23.5,46S46,35.9,46,23.5S35.9,1,23.5,1z"/>
</g>
<path class="st2" d="z"/>
<g>
	<path class="st3" d="M17.4,27.1L17.4,27.1c0.6,0.6,1.5,0.6,2.1,0l5-5c0.6-0.6,0.6-1.5,0-2.1l0,0c-0.6-0.6-1.5-0.6-2.1,0l-5,5
		C16.9,25.5,16.9,26.5,17.4,27.1z"/>
	<path class="st3" d="M22.4,19.9L22.4,19.9c-0.6,0.6-0.6,1.5,0,2.1l5,5c0.6,0.6,1.5,0.6,2.1,0l0,0c0.6-0.6,0.6-1.5,0-2.1l-5-5
		C24,19.4,23,19.4,22.4,19.9z"/>
</g>
</svg>
