<svg xmlns="http://www.w3.org/2000/svg" width="16" height="16" viewBox="0 0 16 16">
    <path fill="#000" fill-rule="nonzero" d="M6.585 0C5.723 0 4.8.184 4 .552c-.8.306-1.538.797-2.092 1.348A6.117 6.117 0 0 0 .554 3.985 6.05 6.05 0 0 0 0 6.559c0 .92.185 1.778.554 2.575.308.797.8 1.533 1.354 2.084A6.145 6.145 0 0 0 4 12.567c.8.307 1.662.552 2.585.552.8 0 1.538-.184 2.153-.368a6.346 6.346 0 0 0 1.908-1.042l4 4.046c.185.184.308.245.554.245.246 0 .37-.061.554-.245.184-.184.246-.307.246-.552 0-.245-.062-.368-.246-.552l-4.062-4.107c.493-.49.8-1.103 1.046-1.839.247-.736.37-1.41.37-2.146 0-.858-.185-1.777-.554-2.574A6.117 6.117 0 0 0 11.2 1.9 6.145 6.145 0 0 0 9.108.552 6.04 6.04 0 0 0 6.585 0zm0 1.594c.615 0 1.353.184 1.907.429.616.245 1.108.613 1.6 1.042.493.43.8.981 1.046 1.594.247.613.37 1.287.37 1.9s-.185 1.349-.37 1.9c-.246.614-.615 1.104-1.046 1.595-.369.49-.984.797-1.6 1.042a5.27 5.27 0 0 1-1.907.368c-.616 0-1.354-.184-1.908-.368-.615-.245-1.108-.613-1.6-1.042-.492-.368-.8-.981-1.046-1.594a4.271 4.271 0 0 1-.431-1.9c0-.614.185-1.35.43-1.901.247-.613.616-1.103 1.047-1.594.43-.49.985-.797 1.6-1.042.492-.368 1.23-.43 1.908-.43z"/>
</svg>
