<svg width="8" height="5" viewBox="0 0 8 5" fill="none" xmlns="http://www.w3.org/2000/svg">
<path d="M3.89844 4.54687C3.96094 4.54687 4.03125 4.51563 4.07812 4.46875L7.71875 0.828125C7.76562 0.78125 7.79687 0.710938 7.79687 0.648438C7.79687 0.585938 7.76562 0.515625 7.71875 0.46875L7.32812 0.078125C7.28125 0.03125 7.21094 -2.56122e-08 7.14844 -2.83441e-08C7.08594 -3.10761e-08 7.01562 0.03125 6.96875 0.078125L3.89844 3.14844L0.828124 0.0781247C0.781249 0.0312497 0.710937 -3.09736e-07 0.648437 -3.12468e-07C0.578124 -3.15542e-07 0.515624 0.0312497 0.468749 0.0781247L0.078124 0.46875C0.031249 0.515625 -9.79286e-07 0.585937 -9.82018e-07 0.648437C-9.8475e-07 0.710937 0.031249 0.78125 0.078124 0.828125L3.71875 4.46875C3.76562 4.51563 3.83594 4.54687 3.89844 4.54687Z" fill="#1F1F1F"/>
</svg>
