<svg width="24" height="24" viewBox="0 0 24 24" fill="none" xmlns="http://www.w3.org/2000/svg">
<path fill-rule="evenodd" clip-rule="evenodd" d="M11.9782 2.29321L11.6459 2.64628L11.2928 2.97862L11.3078 2.99454C10.5956 3.70675 9.52864 4.65508 8.32316 5.50363C6.90341 6.50301 5.35149 7.3209 3.99066 7.50449L3.60626 7.55634L3.56093 7.94157C3.19366 11.063 4.31776 18.1301 11.6263 21.8715L11.9996 22.059L12.3729 21.8715C19.6814 18.1301 20.8055 11.063 20.4382 7.94157L20.3929 7.55634L20.0085 7.50449C18.6477 7.3209 17.0957 6.50301 15.676 5.50363C14.4705 4.65508 13.4035 3.70675 12.6914 2.99454L12.7064 2.97862L12.3533 2.64628L12.021 2.29321L11.9996 2.31334L11.9782 2.29321ZM13.2961 9.71611L12 7L10.7039 9.71611L7.72025 10.1094L9.90292 12.1814L9.35497 15.1406L12 13.705L14.645 15.1406L14.0971 12.1814L16.2798 10.1094L13.2961 9.71611Z" fill="white"/>
</svg>
