<svg xmlns="http://www.w3.org/2000/svg" width="59.44" height="26" viewBox="0 0 59.44 26"><defs><style>.cls-1{fill:#313131;}.cls-2{fill:#6cf9cf;}</style></defs><title>Asset 6</title><g id="Layer_2" data-name="Layer 2"><g id="Content"><rect class="cls-1" x="47.82" y="6.54" width="11.62" height="11.62"/><rect class="cls-2" x="50.23" y="2.85" width="7.33" height="3.7"/><rect class="cls-2" x="50.23" y="18.16" width="7.33" height="3.7"/><circle class="cls-2" cx="53.9" cy="12.35" r="1.33"/><rect class="cls-2" x="29.41" y="1.71" width="14.23" height="24.29" rx="1.03" ry="1.03"/><path class="cls-1" d="M27.7.43V23.86a.43.43,0,0,0,.43.43H41.5a.42.42,0,0,0,.42-.43V.43A.42.42,0,0,0,41.5,0H28.13A.43.43,0,0,0,27.7.43Z"/><rect class="cls-2" x="32.28" y="2.19" width="5.07" height="2.08"/><circle class="cls-2" cx="34.81" cy="19.75" r="1.55"/><rect class="cls-1" y="4.26" width="23.57" height="13.44"/><rect class="cls-1" x="10.75" y="17.71" width="2.08" height="2.32"/><rect class="cls-1" x="6.62" y="20.03" width="10.33" height="2.08"/><path class="cls-2" d="M12.48,14.3a1,1,0,0,0-1.39,0L10,13.2a2.52,2.52,0,0,1,3.59,0Z"/><path class="cls-2" d="M14.46,12.21a3.8,3.8,0,0,0-5.35,0L8,11.11a5.36,5.36,0,0,1,7.57,0Z"/><path class="cls-2" d="M16.61,10.19a6.83,6.83,0,0,0-9.65,0L5.86,9.08a8.4,8.4,0,0,1,11.85,0Z"/></g></g></svg>