<svg xmlns="http://www.w3.org/2000/svg" xmlns:xlink="http://www.w3.org/1999/xlink" viewBox="0 0 40 40"><defs><style>.cls-1{fill:url(#linear-gradient);}.cls-2{fill:#fff;}</style><linearGradient id="linear-gradient" y1="20" x2="40" y2="20" gradientUnits="userSpaceOnUse"><stop offset="0" stop-color="#029a1e"/><stop offset="1" stop-color="#00c752"/></linearGradient></defs><title>Icon_Rules</title><g id="Layer_2" data-name="Layer 2"><g id="Layer_1_copy_4" data-name="Layer 1 copy 4"><circle class="cls-1" cx="20" cy="20" r="20"/><path class="cls-2" d="M13.31,10.61a3.33,3.33,0,0,0-1,6.51V28.44a1,1,0,0,0,1,1,1,1,0,0,0,1-1V17.12a3.33,3.33,0,0,0-1-6.51Zm0,2a1.37,1.37,0,1,1-1.37,1.37A1.36,1.36,0,0,1,13.31,12.56Z"/><path class="cls-2" d="M20.95,22.88V11.56a1,1,0,0,0-2,0V22.88a3.32,3.32,0,1,0,2,0ZM20,27.44a1.37,1.37,0,1,1,0-2.75,1.39,1.39,0,0,1,1.37,1.37A1.36,1.36,0,0,1,20,27.44Z"/><path class="cls-2" d="M26.69,10.61a3.33,3.33,0,0,0-1,6.51V28.44a1,1,0,1,0,2,0V17.12a3.33,3.33,0,0,0-1-6.51Zm0,2a1.37,1.37,0,1,1-1.37,1.37A1.36,1.36,0,0,1,26.66,12.56Z"/></g></g></svg>