<?xml version="1.0" encoding="utf-8"?>
<!-- Generator: Adobe Illustrator 21.0.1, SVG Export Plug-In . SVG Version: 6.00 Build 0)  -->
<!DOCTYPE svg PUBLIC "-//W3C//DTD SVG 1.1//EN" "http://www.w3.org/Graphics/SVG/1.1/DTD/svg11.dtd">
<svg version="1.1" id="Layer_1" xmlns="http://www.w3.org/2000/svg" xmlns:xlink="http://www.w3.org/1999/xlink" x="0px" y="0px"
	 viewBox="0 0 24 24" style="enable-background:new 0 0 24 24;" xml:space="preserve">
<style type="text/css">
	.st0{fill:none;}
	.st1{fill:#98A0A3;}
</style>
<title>Icon-X-Close</title>
<desc>Created with Sketch.</desc>
<g id="Symbols">
	<g id="Icon-X-Close">
		<g id="close">
			<rect id="_x40_bounds" class="st0" width="24" height="24"/>
			<path id="Combined-Shape" class="st1" d="M12,10.5L8.8,7.3c-0.4-0.4-1-0.4-1.4,0L7.3,7.4c-0.4,0.4-0.4,1,0,1.4l3.2,3.2l-3.2,3.2
				c-0.4,0.4-0.4,1,0,1.4l0.1,0.1c0.4,0.4,1,0.4,1.4,0l3.2-3.2l3.2,3.2c0.4,0.4,1,0.4,1.4,0l0.1-0.1c0.4-0.4,0.4-1,0-1.4L13.5,12
				l3.2-3.2c0.4-0.4,0.4-1,0-1.4l-0.1-0.1c-0.4-0.4-1-0.4-1.4,0L12,10.5z"/>
		</g>
	</g>
</g>
</svg>
