<?xml version="1.0" encoding="utf-8"?>
<!-- Generator: Adobe Illustrator 21.0.2, SVG Export Plug-In . SVG Version: 6.00 Build 0)  -->
<!DOCTYPE svg PUBLIC "-//W3C//DTD SVG 1.1//EN" "http://www.w3.org/Graphics/SVG/1.1/DTD/svg11.dtd">
<svg version="1.1" id="Layer_1" xmlns="http://www.w3.org/2000/svg" xmlns:xlink="http://www.w3.org/1999/xlink" x="0px" y="0px"
	 viewBox="0 0 30 22" style="enable-background:new 0 0 30 22;" xml:space="preserve">
<style type="text/css">
	.st0{fill:#FFFFFF;}
</style>
<path class="st0" d="M30,2L30,2c0,1.1-0.9,2-2,2L2,4C0.9,4,0,3.1,0,2v0c0-1.1,0.9-2,2-2l26,0C29.1,0,30,0.9,30,2z"/>
<path class="st0" d="M30,11L30,11c0,1.1-0.9,2-2,2L2,13c-1.1,0-2-0.9-2-2v0c0-1.1,0.9-2,2-2l26,0C29.1,9,30,9.9,30,11z"/>
<path class="st0" d="M30,20L30,20c0,1.1-0.9,2-2,2L2,22c-1.1,0-2-0.9-2-2v0c0-1.1,0.9-2,2-2l26,0C29.1,18,30,18.9,30,20z"/>
</svg>
