<svg xmlns="http://www.w3.org/2000/svg" xmlns:xlink="http://www.w3.org/1999/xlink" viewBox="0 0 40 40"><defs><style>.cls-1{fill:url(#linear-gradient);}.cls-2{fill:#fff;}</style><linearGradient id="linear-gradient" y1="20" x2="40" y2="20" gradientUnits="userSpaceOnUse"><stop offset="0" stop-color="#4f43b4"/><stop offset="1" stop-color="#00aeef"/></linearGradient></defs><title>Icon_UserAPI</title><g id="Layer_2" data-name="Layer 2"><g id="Layer_1_copy_2" data-name="Layer 1 copy 2"><circle class="cls-1" cx="20" cy="20" r="20"/><path class="cls-2" d="M20,19.7h0A5.74,5.74,0,0,0,20,8.22h0A5.74,5.74,0,0,0,20,19.7ZM16.13,14a3.8,3.8,0,0,1,3.72-3.86h.22a3.8,3.8,0,0,1,3.79,3.72V14a3.87,3.87,0,1,1-7.74,0Z"/><path class="cls-2" d="M29.57,26.19A10.88,10.88,0,0,0,20,20.57h0a10.88,10.88,0,0,0-9.55,5.61,2.22,2.22,0,0,0-.11,2.21,1.84,1.84,0,0,0,1.7.92H28a1.84,1.84,0,0,0,1.64-.82A2.36,2.36,0,0,0,29.57,26.19ZM28,27.44H12a.57.57,0,0,1,.14-.32A9.18,9.18,0,0,1,20,22.44h0a8.92,8.92,0,0,1,7.84,4.64A2.12,2.12,0,0,1,28,27.44Z"/></g></g></svg>