<svg xmlns="http://www.w3.org/2000/svg" width="33" height="11.62" viewBox="0 0 33 11.62"><defs><style>.cls-1{fill:#1f1f1f;}.cls-2{fill:#04ce9f;}.cls-3{fill:#2ccb9c;}</style></defs><title>ConnectAudience</title><g id="Layer_2" data-name="Layer 2"><g id="Content"><circle class="cls-1" cx="16.49" cy="3.06" r="3.06"/><path class="cls-1" d="M22.54,5a2.17,2.17,0,1,0-2.16-2.17A2.17,2.17,0,0,0,22.54,5Z"/><path class="cls-1" d="M21.86,9.49h4.63a3.94,3.94,0,0,0-3.95-3.94,3.9,3.9,0,0,0-3,1.37,6.23,6.23,0,0,1,1.27,1A5.85,5.85,0,0,1,21.86,9.49Z"/><path class="cls-1" d="M10.44,5A2.17,2.17,0,1,0,8.27,2.81,2.17,2.17,0,0,0,10.44,5Z"/><path class="cls-1" d="M13.42,6.92A3.94,3.94,0,0,0,6.49,9.49h4.62a5.88,5.88,0,0,1,1-1.54A5.74,5.74,0,0,1,13.42,6.92Z"/><path class="cls-1" d="M11.93,11.62a4.58,4.58,0,0,1,1.22-2.81,4.92,4.92,0,0,1,1-.81,4.54,4.54,0,0,1,5.66.81A4.52,4.52,0,0,1,21,11.62Z"/><polygon class="cls-2" points="4.96 11.25 0 6.29 4.78 1.51 5.48 2.22 1.41 6.29 5.67 10.55 4.96 11.25"/><polygon class="cls-3" points="28.03 11.25 27.33 10.55 31.59 6.29 27.52 2.22 28.22 1.51 33 6.29 28.03 11.25"/></g></g></svg>