<svg xmlns="http://www.w3.org/2000/svg" width="36" height="20.78" viewBox="0 0 36 20.78"><defs><style>.cls-1{fill:#1f1f1f;}.cls-2{fill:#6cf9cf;}.cls-3{fill:#313131;}</style></defs><title>AddAudience</title><g id="Layer_2" data-name="Layer 2"><g id="Content"><circle class="cls-1" cx="21.74" cy="7.81" r="4.37"/><path class="cls-1" d="M30.37,11.28a3.09,3.09,0,1,0-3.08-3.09A3.09,3.09,0,0,0,30.37,11.28Z"/><path class="cls-1" d="M29.41,17.72H36a5.62,5.62,0,0,0-9.88-3.67,8.43,8.43,0,0,1,3.29,3.67Z"/><path class="cls-1" d="M13.12,11.28A3.09,3.09,0,1,0,10,8.19,3.08,3.08,0,0,0,13.12,11.28Z"/><path class="cls-1" d="M17.37,14.05a5.62,5.62,0,0,0-9.88,3.67h6.59a8.26,8.26,0,0,1,1.48-2.2A8.57,8.57,0,0,1,17.37,14.05Z"/><path class="cls-1" d="M25.55,14.87a7.45,7.45,0,0,0-9.26,1.33,7.43,7.43,0,0,0-2,4.58H29.19a7.43,7.43,0,0,0-2-4.58A7.53,7.53,0,0,0,25.55,14.87Z"/><path class="cls-1" d="M14.3,20.78a7.43,7.43,0,0,1,2-4.58,7.45,7.45,0,0,1,10.91,0,7.43,7.43,0,0,1,2,4.58Z"/><path class="cls-2" d="M11.78,4.4h0c-.06-.2-.12-.39-.2-.59h0a4,4,0,0,0-.26-.56h0A6,6,0,0,0,8.75.67h0A5.91,5.91,0,0,0,6,0a6,6,0,1,0,5.78,4.4Z"/><rect class="cls-3" x="5" y="3.11" width="2" height="5.67"/><rect class="cls-3" x="3.17" y="4.94" width="5.67" height="2"/></g></g></svg>