<svg xmlns="http://www.w3.org/2000/svg" xmlns:xlink="http://www.w3.org/1999/xlink" viewBox="0 0 40 40"><defs><style>.cls-1{fill:url(#linear-gradient);}.cls-2{fill:#fff;}</style><linearGradient id="linear-gradient" y1="20" x2="40" y2="20" gradientUnits="userSpaceOnUse"><stop offset="0" stop-color="#783cdc"/><stop offset="1" stop-color="#02319d"/></linearGradient></defs><title>Icon_Client</title><g id="Layer_2" data-name="Layer 2"><g id="Layer_1-2" data-name="Layer 1"><circle class="cls-1" cx="20" cy="20" r="20"/><path class="cls-2" d="M24.29,18.1a.48.48,0,0,0-.15-.14l0,0-3.76-2.07a.69.69,0,0,0-.66,0h0l-3.76,2.07,0,0a.49.49,0,0,0-.23.2v.06a.5.5,0,0,0,0,.14.66.66,0,0,0,0,.17v3.67a.68.68,0,0,0,.35.6l3.76,2.07.09,0a.49.49,0,0,0,.23.06h0l.06,0,.14,0a.64.64,0,0,0,.13,0l3.76-2.07a.68.68,0,0,0,.35-.6V18.51A.66.66,0,0,0,24.29,18.1ZM20,16.79l2.86,1.57L20,20l-2.86-1.6Zm-3.44,2.4,2.93,1.64V23.6L16.56,22Zm3.93,4.42V20.84l3-1.65V22Z"/><path class="cls-2" d="M25.59,6.81H14.41a1.64,1.64,0,0,0-1.63,1.63v23.1a1.64,1.64,0,0,0,1.63,1.63H25.59a1.64,1.64,0,0,0,1.63-1.63V8.45A1.64,1.64,0,0,0,25.59,6.81ZM13.77,12.21H26.23v15.4H13.77Zm.63-4.39H25.59a.63.63,0,0,1,.63.63v2.76H13.77V8.45A.63.63,0,0,1,14.41,7.81ZM25.59,32.19H14.41a.63.63,0,0,1-.63-.63V28.61H26.23v2.94A.63.63,0,0,1,25.59,32.19Z"/><path class="cls-2" d="M18.13,9.69h3.15a.5.5,0,0,0,0-1H18.13a.5.5,0,0,0,0,1Z"/><path class="cls-2" d="M20,29.35a1.11,1.11,0,1,0,1.11,1.11A1.11,1.11,0,0,0,20,29.35Zm-.11,1.11a.11.11,0,1,1,.22,0C20.11,30.58,19.89,30.58,19.89,30.46Z"/></g></g></svg>