<svg id="Content" xmlns="http://www.w3.org/2000/svg" width="100" height="100" viewBox="0 0 100 100"><defs><style>.cls-1{fill:#313131;}.cls-2{fill:#fff;}.cls-3{fill:#6cf9cf;}</style></defs><title>Icon_SDK</title><polygon class="cls-1" points="50 86.77 24.63 88.35 22.63 59.13 50 54.03 77.38 59.13 75.38 88.35 50 86.77"/><path class="cls-1" d="M73.33,29.81l-5.81-2.37a17.48,17.48,0,0,0-.16-7.3l5.91-2.49-2.55-6.08-6,2.52a17.73,17.73,0,0,0-5.15-4.92L62.08,3,56,.52,53.42,6.75a17.65,17.65,0,0,0-7,.08L43.81.57,37.72,3.13l2.63,6.26a17.48,17.48,0,0,0-5,4.93l-6.23-2.55-2.5,6.11,6.16,2.51a17.63,17.63,0,0,0-.09,7.13l-6,2.52,2.55,6.08,5.91-2.48a17.74,17.74,0,0,0,5.11,5.24l-2.38,5.8L44,47.18l2.34-5.73a17.65,17.65,0,0,0,7.45,0l2.37,5.66,6.09-2.56L59.9,38.91a17.49,17.49,0,0,0,5.2-5.33l5.73,2.34Z"/><circle class="cls-2" cx="50.13" cy="24.15" r="6.95"/><polygon class="cls-3" points="50 67.09 22.63 59.43 22.63 90.75 50 99.48 77.38 90.75 77.38 59.43 50 67.09"/><polygon class="cls-1" points="52 99.02 50 99.47 48 99.02 48 65.24 52 65.24 52 99.02"/></svg>