<svg xmlns="http://www.w3.org/2000/svg" xmlns:xlink="http://www.w3.org/1999/xlink" viewBox="0 0 40 40"><defs><style>.cls-1{fill:url(#linear-gradient);}.cls-2{fill:#fff;}</style><linearGradient id="linear-gradient" y1="20" x2="40" y2="20" gradientUnits="userSpaceOnUse"><stop offset="0" stop-color="#0c4694"/><stop offset="1" stop-color="#008aff"/></linearGradient></defs><title>Icon_PartnerGuide</title><g id="Layer_2" data-name="Layer 2"><g id="Layer_1_copy_5" data-name="Layer 1 copy 5"><circle class="cls-1" cx="20" cy="20" r="20"/><path class="cls-2" d="M19.79,31.44h-.07a1,1,0,0,1-.85-.73L16.78,22,8,19.87a.95.95,0,0,1-.13-1.8l19.36-7.81a.95.95,0,0,1,1.23,1.24l-7.8,19.36A1,1,0,0,1,19.79,31.44ZM11.36,18.71l6.43,1.54a1,1,0,0,1,.7.7L20,27.38l5.86-14.53Z"/></g></g></svg>