<svg xmlns="http://www.w3.org/2000/svg" xmlns:xlink="http://www.w3.org/1999/xlink" viewBox="0 0 40 40"><defs><style>.cls-1{fill:url(#linear-gradient);}.cls-2{fill:#fff;}</style><linearGradient id="linear-gradient" y1="20" x2="40" y2="20" gradientUnits="userSpaceOnUse"><stop offset="0" stop-color="#e12550"/><stop offset="1" stop-color="#9f2e8b"/></linearGradient></defs><title>Icon_Server</title><g id="Layer_2" data-name="Layer 2"><g id="Layer_1_copy" data-name="Layer 1 copy"><circle class="cls-1" cx="20" cy="20" r="20"/><path class="cls-2" d="M29.82,26.51H22.25V25.06a.75.75,0,0,0-.75-.75H20.44a.74.74,0,0,0,.05-.25V22.62h6.27a4.47,4.47,0,0,0,0-8.95,4.32,4.32,0,0,0-.57,0A6.72,6.72,0,0,0,13.6,13a4.76,4.76,0,0,0-4.23,4.75,5,5,0,0,0,4.27,4.83l.16,0H19v1.44a.74.74,0,0,0,.05.25H18a.75.75,0,0,0-.75.75v1.44h-7a.75.75,0,1,0,0,1.5h7v1.57a.75.75,0,0,0,.75.75h3.5a.75.75,0,0,0,.75-.75V28h7.57a.75.75,0,0,0,0-1.5Zm-19-8.73a3.25,3.25,0,0,1,3.23-3.27h0a.74.74,0,0,0,.73-.51,5.22,5.22,0,0,1,10.07.74.75.75,0,0,0,1,.58,2.89,2.89,0,0,1,.89-.14,3,3,0,0,1,0,5.95H13.87A3.58,3.58,0,0,1,10.87,17.78Zm9.88,11h-2v-3h2Z"/></g></g></svg>