<?xml version="1.0" encoding="utf-8"?>
<!-- Generator: Adobe Illustrator 22.1.0, SVG Export Plug-In . SVG Version: 6.00 Build 0)  -->
<svg version="1.1" id="Content" xmlns="http://www.w3.org/2000/svg" xmlns:xlink="http://www.w3.org/1999/xlink" x="0px" y="0px"
	 width="29px" height="27px" viewBox="0 0 29 27" style="enable-background:new 0 0 29 27;" xml:space="preserve">
<style type="text/css">
	.st0{fill:#7EF7D9;}
	.st1{fill:#6CF9CF;}
	.st2{fill:#313131;}
</style>
<title>Icon_API</title>
<g>
	<circle class="st0" cx="14.3" cy="13.9" r="10.2"/>
	<path class="st0" d="M14.3,24.8c-6,0-10.9-4.9-10.9-10.9S8.3,3,14.3,3s10.9,4.9,10.9,10.9S20.3,24.8,14.3,24.8z M14.3,4.5
		c-5.2,0-9.4,4.2-9.4,9.4c0,5.2,4.2,9.4,9.4,9.4c5.2,0,9.4-4.2,9.4-9.4C23.7,8.7,19.5,4.5,14.3,4.5z"/>
</g>
<rect x="12.4" y="0" class="st0" width="3.8" height="27.4"/>
<rect x="0.6" y="11.8" transform="matrix(0.7074 -0.7068 0.7068 0.7074 -5.4872 14.1212)" class="st0" width="27.4" height="3.8"/>
<rect x="0.6" y="12.9" class="st1" width="27.4" height="1.5"/>
<rect x="12.4" y="0" transform="matrix(0.7075 -0.7068 0.7068 0.7075 -5.4879 14.1183)" class="st0" width="3.8" height="27.4"/>
<path class="st2" d="M11.4,18H9.6c-2,0-4.3-2.3-4.3-4.3l0,0c0-2,2.3-4.3,4.3-4.3h1.8L11.4,18z"/>
<rect y="11.9" class="st2" width="9.1" height="3.6"/>
<rect x="18.9" y="11.9" class="st2" width="9.1" height="3.6"/>
<rect y="11.9" class="st2" width="2.8" height="3.6"/>
<rect x="25.2" y="11.9" class="st2" width="2.8" height="3.6"/>
<path class="st2" d="M19,9.4h-2.2v2.1h-2.9V13h2.9v1.5h-2.9v1.5h2.9V18H19c1.6,0,3.7-2.1,3.7-3.7v-1.2C22.6,11.5,20.6,9.4,19,9.4z"
	/>
</svg>
