<?xml version="1.0" encoding="utf-8"?>
<!-- Generator: Adobe Illustrator 21.0.2, SVG Export Plug-In . SVG Version: 6.00 Build 0)  -->
<!DOCTYPE svg PUBLIC "-//W3C//DTD SVG 1.1//EN" "http://www.w3.org/Graphics/SVG/1.1/DTD/svg11.dtd">
<svg version="1.1" id="Layer_1" xmlns="http://www.w3.org/2000/svg" xmlns:xlink="http://www.w3.org/1999/xlink" x="0px" y="0px"
	 viewBox="0 0 20 20" style="enable-background:new 0 0 20 20;" xml:space="preserve">
<style type="text/css">
	.st0{fill:#C2C2C4;}
</style>
<path class="st0" d="M18,12H2c-1.1,0-2-0.9-2-2v0c0-1.1,0.9-2,2-2h16c1.1,0,2,0.9,2,2v0C20,11.1,19.1,12,18,12z"/>
<path class="st0" d="M8,18V2c0-1.1,0.9-2,2-2h0c1.1,0,2,0.9,2,2v16c0,1.1-0.9,2-2,2h0C8.9,20,8,19.1,8,18z"/>
</svg>
