<?xml version="1.0" encoding="utf-8"?>
<!-- Generator: Adobe Illustrator 21.0.2, SVG Export Plug-In . SVG Version: 6.00 Build 0)  -->
<!DOCTYPE svg PUBLIC "-//W3C//DTD SVG 1.1//EN" "http://www.w3.org/Graphics/SVG/1.1/DTD/svg11.dtd">
<svg version="1.1" id="Layer_1" xmlns="http://www.w3.org/2000/svg" xmlns:xlink="http://www.w3.org/1999/xlink" x="0px" y="0px"
	 viewBox="0 0 26 26" style="enable-background:new 0 0 26 26;" xml:space="preserve">
<style type="text/css">
	.st0{fill:#0D376E;}
</style>
<title>Icon-Search</title>
<desc>Created with Sketch.</desc>
<g id="Icons">
	<g id="Action-_x28_162_x29_-Copy" transform="translate(-282.000000, -42.000000)">
		<g id="Icon-Search" transform="translate(280.000000, 40.000000)">
			<path id="Magnifying-Glass" class="st0" d="M12.7,2c-1.4,0-2.9,0.3-4.2,0.9C7.2,3.4,6,4.2,5.1,5.1C4.2,6,3.4,7.2,2.9,8.5
				C2.3,9.8,2,11.2,2,12.7s0.3,2.9,0.9,4.2c0.5,1.3,1.3,2.5,2.2,3.4c0.9,0.9,2.1,1.7,3.4,2.2c1.3,0.5,2.7,0.9,4.2,0.9
				c1.3,0,2.5-0.3,3.5-0.6c1.2-0.4,2.2-1,3.1-1.7l6.5,6.6c0.3,0.3,0.5,0.4,0.9,0.4c0.4,0,0.6-0.1,0.9-0.4c0.3-0.3,0.4-0.5,0.4-0.9
				c0-0.4-0.1-0.6-0.4-0.9L21,19.2c0.8-0.8,1.3-1.8,1.7-3c0.4-1.2,0.6-2.3,0.6-3.5c0-1.4-0.3-2.9-0.9-4.2c-0.5-1.3-1.3-2.5-2.2-3.4
				s-2.1-1.7-3.4-2.2C15.5,2.3,14.1,2,12.7,2z M12.7,4.6c1,0,2.2,0.3,3.1,0.7c1,0.4,1.8,1,2.6,1.7s1.3,1.6,1.7,2.6
				c0.4,1,0.6,2.1,0.6,3.1s-0.3,2.2-0.6,3.1c-0.4,1-1,1.8-1.7,2.6c-0.6,0.8-1.6,1.3-2.6,1.7c-1,0.4-2.1,0.6-3.1,0.6
				s-2.2-0.3-3.1-0.6c-1-0.4-1.8-1-2.6-1.7c-0.8-0.6-1.3-1.6-1.7-2.6c-0.5-1-0.7-2.1-0.7-3.1s0.3-2.2,0.7-3.1c0.4-1,1-1.8,1.7-2.6
				s1.6-1.3,2.6-1.7C10.4,4.7,11.6,4.6,12.7,4.6z"/>
		</g>
	</g>
</g>
</svg>
