<svg xmlns="http://www.w3.org/2000/svg" xmlns:xlink="http://www.w3.org/1999/xlink" viewBox="0 0 40 40"><defs><style>.cls-1{fill:url(#linear-gradient);}.cls-2{fill:#fff;}</style><linearGradient id="linear-gradient" y1="20" x2="40" y2="20" gradientUnits="userSpaceOnUse"><stop offset="0" stop-color="#f15a29"/><stop offset="1" stop-color="#f7941d"/></linearGradient></defs><title>Icon_Platform</title><g id="Layer_2" data-name="Layer 2"><g id="Layer_1_copy_3" data-name="Layer 1 copy 3"><circle class="cls-1" cx="20" cy="20" r="20"/><path class="cls-2" d="M29.81,14.35l-9.12-5a1.44,1.44,0,0,0-1.39,0h0l-9.12,5-.08.06a1,1,0,0,0-.43.39s0,0,0,.07a1.44,1.44,0,0,0-.21.74v8.9a1.44,1.44,0,0,0,.75,1.27l9.11,5a1.44,1.44,0,0,0,.64.18H20a1.42,1.42,0,0,0,.7-.18l9.12-5a1.45,1.45,0,0,0,.75-1.27v-8.9A1.45,1.45,0,0,0,29.81,14.35ZM20,11.23l7.36,4.05L20,19.41,12.61,15.3Zm-8.56,5.71L19,21.14v7.19l-7.53-4.15ZM21,28.37V21.14l7.59-4.24v7.29Z"/></g></g></svg>