<?xml version="1.0" encoding="utf-8"?>
<!-- Generator: Adobe Illustrator 21.0.2, SVG Export Plug-In . SVG Version: 6.00 Build 0)  -->
<!DOCTYPE svg PUBLIC "-//W3C//DTD SVG 1.1//EN" "http://www.w3.org/Graphics/SVG/1.1/DTD/svg11.dtd">
<svg version="1.1" id="Layer_1" xmlns="http://www.w3.org/2000/svg" xmlns:xlink="http://www.w3.org/1999/xlink" x="0px" y="0px"
	 viewBox="0 0 10 6" style="enable-background:new 0 0 10 6;" xml:space="preserve">
<style type="text/css">
	.st0{fill:none;}
	.st1{fill:#F32153;}
</style>
<title>Icon-Arrow-Dropdown</title>
<desc>Created with Sketch.</desc>
<g id="Icons">
	<g id="Arrows-Copy" transform="translate(-45.000000, -47.000000)">
		<g id="Icon-Arrow-Dropdown" transform="translate(40.000000, 40.000000)">
			<rect id="Rectangle-Copy-3" class="st0" width="20" height="20"/>
			<path id="Icon-Dropdown-Arrow-10x6" class="st1" d="M9.4,12.7L5.3,8.6C5.2,8.5,5.1,8.3,5.1,8.2C5,8.1,5,8,5,7.9s0-0.2,0.1-0.3
				l0,0c0-0.1,0.2-0.3,0.2-0.4c0.3-0.3,0.9-0.3,1.2,0l3.5,3.5l3.4-3.5c0.3-0.3,0.9-0.3,1.3,0C14.9,7.4,15,7.7,15,7.9
				s-0.1,0.5-0.3,0.7l-4.1,4.2C10.5,12.9,10.2,13,10,13S9.5,12.9,9.4,12.7z"/>
		</g>
	</g>
</g>
</svg>
