<?xml version="1.0" encoding="utf-8"?>
<!-- Generator: Adobe Illustrator 21.0.2, SVG Export Plug-In . SVG Version: 6.00 Build 0)  -->
<!DOCTYPE svg PUBLIC "-//W3C//DTD SVG 1.1//EN" "http://www.w3.org/Graphics/SVG/1.1/DTD/svg11.dtd">
<svg version="1.1" id="Layer_1" xmlns="http://www.w3.org/2000/svg" xmlns:xlink="http://www.w3.org/1999/xlink" x="0px" y="0px"
	 viewBox="0 0 30 30" style="enable-background:new 0 0 30 30;" xml:space="preserve">
<style type="text/css">
	.st0{fill:#FFFFFF;}
</style>
<g>
	<path class="st0" d="M14,22h5c0.2-0.2-2-1.8-2-2c0-0.3,0-3,0-3l0,0v-3c0,0,0.1-2-1.6-2c-1.8,0-3.3,0-3.3,0c-0.2,0.2-0.1,2-0.1,2
		l1.7-0.3"/>
	<path class="st0" d="M14,14"/>
	<path class="st0" d="M17,8.5c0,0.9-0.6,1.5-1.5,1.5C14.6,10,14,9.4,14,8.5C14,7.6,14.6,7,15.5,7C16.4,7,17,7.6,17,8.5L17,8.5z"/>
</g>
<path class="st0" d="M15,1.9c7.2,0,13.1,5.9,13.1,13.1S22.2,28.1,15,28.1S1.9,22.2,1.9,15S7.8,1.9,15,1.9 M15,0C6.7,0,0,6.7,0,15
	s6.7,15,15,15s15-6.7,15-15S23.3,0,15,0L15,0z"/>
</svg>
