<svg xmlns="http://www.w3.org/2000/svg" width="33" height="15" viewBox="0 0 33 15"><defs><style>.cls-1{fill:#04ce9f;}.cls-2{fill:#1f1f1f;}</style></defs><title>ConnectEvent</title><g id="Layer_2" data-name="Layer 2"><g id="Content"><polygon class="cls-1" points="4.96 12.94 0 7.98 4.78 3.2 5.48 3.91 1.41 7.98 5.67 12.24 4.96 12.94"/><polygon class="cls-1" points="28.03 12.94 27.33 12.24 31.59 7.98 27.52 3.91 28.22 3.2 33 7.98 28.03 12.94"/><g id="exports"><g id="Icons"><g id="output-event"><path class="cls-1" d="M8.77,6.64a.79.79,0,0,1,.84-.74L12,6.05a.79.79,0,0,1,.73.85.79.79,0,0,1-.84.73L9.5,7.48A.79.79,0,0,1,8.77,6.64Zm2.12-5.22a.65.65,0,0,1,.92.06l1.73,2a.65.65,0,0,1-.06.92.66.66,0,0,1-.92-.06l-1.73-2A.65.65,0,0,1,10.89,1.42Zm10.66.7a.66.66,0,0,0-.92-.06l-2,1.73a.66.66,0,0,0,.86,1L21.5,3A.65.65,0,0,0,21.55,2.12Zm-11.36,10a.66.66,0,0,1,.05-.92l2-1.73a.65.65,0,0,1,.92.07.66.66,0,0,1-.05.92l-2,1.73A.65.65,0,0,1,10.19,12.08ZM16.08,4a.74.74,0,0,1-.75-.71L15.51.6a.72.72,0,0,1,.83-.6.74.74,0,0,1,.75.71l-.18,2.64A.72.72,0,0,1,16.08,4ZM15.35,15a.74.74,0,0,1-.75-.71l.18-2.64a.72.72,0,0,1,.83-.6.74.74,0,0,1,.75.7l-.18,2.65A.72.72,0,0,1,15.35,15Z"/></g></g></g><polygon class="cls-2" points="22.24 10.06 24.57 8.47 15.92 5.52 17.89 11.28 17.89 11.28 18.87 14.17 20.46 11.84 23.45 14.82 25.23 13.05 22.24 10.06"/></g></g></svg>