<svg width="24" height="24" viewBox="0 0 24 24" fill="none" xmlns="http://www.w3.org/2000/svg">
<path fill-rule="evenodd" clip-rule="evenodd" d="M3 7H18V15H19.5C20.3284 15 21 15.6716 21 16.5C21 17.3284 20.3284 18 19.5 18H3V7ZM12 10H14V9H12V10ZM7 16H5V15H7V16ZM8 16H10V15H8V16ZM11 16V15H13V16H11ZM15 10H17V9H15V10ZM5 9H10V11H7V13H5V9ZM17 16V12H16V15H14V16H17Z" fill="white"/>
<path d="M20.5 7V14.8657C20.0518 14.614 19.5144 14.5 19 14.5H18.5V6.5H19.5C20.0059 6.5 20.2487 6.63856 20.3603 6.74188C20.4794 6.85214 20.5 6.96746 20.5 7Z" stroke="white"/>
</svg>
