<svg xmlns="http://www.w3.org/2000/svg" width="22" height="23.22" viewBox="0 0 22 23.22"><defs><style>.cls-1{fill:#6cf9cf;}.cls-1,.cls-2{fill-rule:evenodd;}.cls-2,.cls-3{fill:#313131;}</style></defs><title>Asset 11</title><g id="Layer_2" data-name="Layer 2"><g id="Content"><path class="cls-1" d="M11,23.22a1.13,1.13,0,0,1-1.22-1V18.12a1.12,1.12,0,0,1,1.22-1,1.13,1.13,0,0,1,1.22,1v4.09A1.12,1.12,0,0,1,11,23.22Z"/><path class="cls-1" d="M11,6.11a1.13,1.13,0,0,1-1.22-1V1A1.12,1.12,0,0,1,11,0a1.13,1.13,0,0,1,1.22,1V5.1A1.12,1.12,0,0,1,11,6.11Z"/><path class="cls-1" d="M15.89,11a1.21,1.21,0,0,1,1.22-1.22h3.67a1.22,1.22,0,0,1,0,2.44H17.11A1.22,1.22,0,0,1,15.89,11Z"/><path class="cls-2" d="M19.26,19.26a1,1,0,0,1-1.43,0L15,16.39A1,1,0,0,1,16.39,15l2.88,2.87A1,1,0,0,1,19.26,19.26Z"/><path class="cls-3" d="M18.54,19.65a1.09,1.09,0,0,1-.78-.32l-2.87-2.87a1.11,1.11,0,0,1,1.57-1.57l2.88,2.87a1.11,1.11,0,0,1,0,1.57h0A1.14,1.14,0,0,1,18.54,19.65Zm-2.86-4.88A.92.92,0,0,0,15,15a.9.9,0,0,0,0,1.28l2.87,2.87a.91.91,0,0,0,1.29,0h0a.92.92,0,0,0,0-1.29L16.32,15A.93.93,0,0,0,15.68,14.77Z"/><path class="cls-2" d="M2.74,19.26a1,1,0,0,1,0-1.43L5.61,15A1,1,0,0,1,7,16.39L4.17,19.26A1,1,0,0,1,2.74,19.26Z"/><path class="cls-3" d="M3.46,19.65a1.09,1.09,0,0,1-.79-.32h0a1.11,1.11,0,0,1,0-1.57l2.88-2.87a1.12,1.12,0,0,1,1.57,0,1.1,1.1,0,0,1,.32.79,1.08,1.08,0,0,1-.32.78L4.24,19.33A1.09,1.09,0,0,1,3.46,19.65Zm2.86-4.88a.93.93,0,0,0-.64.26L2.8,17.9a.92.92,0,0,0,0,1.29h0a.91.91,0,0,0,1.29,0L7,16.32A.92.92,0,0,0,7,15,.92.92,0,0,0,6.32,14.77Z"/><path class="cls-2" d="M19.26,2.74a1,1,0,0,1,0,1.43L16.39,7A1,1,0,0,1,15,5.61l2.87-2.88A1,1,0,0,1,19.26,2.74Z"/><path class="cls-3" d="M15.68,7.43h0a1.1,1.1,0,0,1-.79-.32,1.12,1.12,0,0,1,0-1.57l2.87-2.88a1.12,1.12,0,0,1,.78-.32h0a1.11,1.11,0,0,1,.79.33,1.16,1.16,0,0,1,.33.79,1.11,1.11,0,0,1-.33.78L16.46,7.11A1.08,1.08,0,0,1,15.68,7.43Zm2.86-4.89a.91.91,0,0,0-.64.27L15,5.68A.91.91,0,0,0,15,7a.9.9,0,0,0,.64.26h0A.9.9,0,0,0,16.32,7L19.19,4.1a.91.91,0,0,0,0-1.29h0a.91.91,0,0,0-.64-.27Z"/><path class="cls-2" d="M2.74,2.74a1,1,0,0,1,1.43,0L7,5.61A1,1,0,0,1,5.61,7L2.74,4.17A1,1,0,0,1,2.74,2.74Z"/><path class="cls-3" d="M6.32,7.43a1.08,1.08,0,0,1-.78-.32L2.67,4.24a1.12,1.12,0,0,1,0-1.57h0a1.16,1.16,0,0,1,.79-.33h0a1.12,1.12,0,0,1,.78.32L7.11,5.54a1.12,1.12,0,0,1,0,1.57A1.1,1.1,0,0,1,6.32,7.43ZM2.81,2.81h0a.92.92,0,0,0,0,1.29L5.68,7A.93.93,0,0,0,7,7,.91.91,0,0,0,7,5.68L4.1,2.81a.91.91,0,0,0-.64-.27h0A.93.93,0,0,0,2.81,2.81Z"/><path class="cls-1" d="M0,11A1.21,1.21,0,0,1,1.22,9.78H4.89a1.22,1.22,0,1,1,0,2.44H1.22A1.22,1.22,0,0,1,0,11Z"/></g></g></svg>