<svg width="5" height="9" viewBox="0 0 5 9" fill="none" xmlns="http://www.w3.org/2000/svg">
<path d="M4.64844 4.5C4.64844 4.4375 4.61719 4.36719 4.57031 4.32031L0.929688 0.679688C0.882813 0.632814 0.8125 0.601562 0.75 0.601562C0.6875 0.601562 0.617188 0.632814 0.570312 0.679688L0.179688 1.07031C0.132812 1.11719 0.101562 1.1875 0.101562 1.25C0.101562 1.3125 0.132812 1.38281 0.179688 1.42969L3.25 4.5L0.179688 7.57031C0.132812 7.61719 0.101562 7.6875 0.101562 7.75C0.101562 7.82031 0.132812 7.88281 0.179688 7.92969L0.570312 8.32031C0.617188 8.36719 0.6875 8.39844 0.75 8.39844C0.8125 8.39844 0.882813 8.36719 0.929688 8.32031L4.57031 4.67969C4.61719 4.63281 4.64844 4.5625 4.64844 4.5Z" fill="#1F1F1F"/>
</svg>
