<?xml version="1.0" encoding="utf-8"?>
<!-- Generator: Adobe Illustrator 21.0.2, SVG Export Plug-In . SVG Version: 6.00 Build 0)  -->
<!DOCTYPE svg PUBLIC "-//W3C//DTD SVG 1.1//EN" "http://www.w3.org/Graphics/SVG/1.1/DTD/svg11.dtd">
<svg version="1.1" id="Layer_1" xmlns="http://www.w3.org/2000/svg" xmlns:xlink="http://www.w3.org/1999/xlink" x="0px" y="0px"
	 viewBox="0 0 30.1 30" style="enable-background:new 0 0 30.1 30;" xml:space="preserve">
<style type="text/css">
	.st0{fill:#FFFFFF;}
</style>
<path class="st0" d="M11.3,2C11.7,2,12,2.3,12,2.7v8.7c0,0.4-0.3,0.7-0.7,0.7H2.7C2.3,12,2,11.7,2,11.3V2.7C2,2.3,2.3,2,2.7,2H11.3
	 M11.3,0H2.7C1.2,0,0,1.2,0,2.7v8.7C0,12.8,1.2,14,2.7,14h8.7c1.5,0,2.7-1.2,2.7-2.7V2.7C14,1.2,12.8,0,11.3,0L11.3,0z"/>
<path class="st0" d="M27.3,2C27.7,2,28,2.3,28,2.7v8.7c0,0.4-0.3,0.7-0.7,0.7h-8.7c-0.4,0-0.7-0.3-0.7-0.7V2.7C18,2.3,18.3,2,18.7,2
	H27.3 M27.3,0h-8.7C17.2,0,16,1.2,16,2.7v8.7c0,1.5,1.2,2.7,2.7,2.7h8.7c1.5,0,2.7-1.2,2.7-2.7V2.7C30,1.2,28.8,0,27.3,0L27.3,0z"/>
<path class="st0" d="M11.3,18c0.4,0,0.7,0.3,0.7,0.7v8.7c0,0.4-0.3,0.7-0.7,0.7H2.7C2.3,28,2,27.7,2,27.3v-8.7C2,18.3,2.3,18,2.7,18
	H11.3 M11.3,16H2.7C1.2,16,0,17.2,0,18.7v8.7C0,28.8,1.2,30,2.7,30h8.7c1.5,0,2.7-1.2,2.7-2.7v-8.7C14,17.2,12.8,16,11.3,16L11.3,16
	z"/>
<path class="st0" d="M27.3,18c0.4,0,0.7,0.3,0.7,0.7v8.7c0,0.4-0.3,0.7-0.7,0.7h-8.7c-0.4,0-0.7-0.3-0.7-0.7v-8.7
	c0-0.4,0.3-0.7,0.7-0.7H27.3 M27.3,16h-8.7c-1.5,0-2.7,1.2-2.7,2.7v8.7c0,1.5,1.2,2.7,2.7,2.7h8.7c1.5,0,2.7-1.2,2.7-2.7v-8.7
	C30,17.2,28.8,16,27.3,16L27.3,16z"/>
</svg>
