<?xml version="1.0" encoding="utf-8"?>
<!-- Generator: Adobe Illustrator 21.0.2, SVG Export Plug-In . SVG Version: 6.00 Build 0)  -->
<!DOCTYPE svg PUBLIC "-//W3C//DTD SVG 1.1//EN" "http://www.w3.org/Graphics/SVG/1.1/DTD/svg11.dtd">
<svg version="1.1" id="Layer_1" xmlns="http://www.w3.org/2000/svg" xmlns:xlink="http://www.w3.org/1999/xlink" x="0px" y="0px"
	 viewBox="0 0 111 99" style="enable-background:new 0 0 111 99;" xml:space="preserve">
<style type="text/css">
	.st0{fill:#CDD1D3;}
</style>
<path class="st0" d="M93.6,10.8c-9.7-4.8-19.7-5.3-30-1.7c-9.4,3.3-16.9,9.3-22.5,17.4C31.7,40.2,24.8,55.2,21,71.4
	c-2,8.3-3.2,16.3-2.9,24.9c0,0.7,0.1,1.7,0.2,1.7h48.2c-0.1,0-0.2-0.3-0.3-0.6c-2.5-6.5-4.5-12.9-5.9-19.7c-2-9.8-3-19.5-1-29.4
	C62.1,34.5,70,24.6,83.3,19.4c7.5-2.9,14.7-2,20.9,3.5c0.1,0.1,0.2,0,0.3,0.1l2.1-3.1C102.6,16.1,98.3,13.2,93.6,10.8z M18.1,75.2
	l-9.4-0.7l-1.1,9.1l8.9,1.1L18.1,75.2z M26.1,47.1c-2.9-1.1-5.6-2.2-8.4-3.3c-0.9,2.6-1.8,5.1-2.7,7.7c2.9,0.9,5.7,1.8,8.5,2.7
	L26.1,47.1z M65.5,90c2.9,0.2,5.7,0.4,8.9,0.5c-1.1-2.4-2.2-4.5-3.2-6.7c-0.1-0.2-0.5-0.5-0.8-0.5c-2.4,0-4.8,0-7.4,0
	c0.6,2.1,1.1,4,1.7,5.9C64.7,89.6,65.2,90,65.5,90z M40.2,23.9l-6.4-4.2c-1.7,1.9-3.3,3.7-5.1,5.7l6.5,4.4
	C35.3,29.7,40.2,23.9,40.2,23.9z M60.5,66.5c0,0.3,0.2,0.7,0.4,0.8c2.3,1,4.6,2,7.1,3.1c-0.1-2-0.2-3.7-0.3-5.3
	c0-0.3-0.2-0.7-0.4-0.9c-2.1-1.2-4.2-2.3-6.6-3.5C60.7,62.8,60.5,64.7,60.5,66.5z M58.6,8.9l-4.3-4.9l-6,3.1l4.4,5.3L58.6,8.9z
	 M61.3,48.1c-0.1,0.3,0,0.9,0.3,1.2c1.7,1.6,3.5,3.1,5.5,4.8c0.5-1.9,0.9-3.6,1.3-5.3c0.1-0.3,0-0.8-0.2-1c-1.6-1.3-3.2-2.4-4.8-3.7
	C62.6,45.5,61.9,46.8,61.3,48.1z M71.3,6.3c2.2,0.1,4.4,0,6.8,0c-0.2-1.6-0.3-2.9-0.6-4.1c-0.1-0.4-0.6-0.8-1-0.9
	C74.2,1.2,72,1.1,69.5,1c0.3,1.6,0.6,3.1,0.9,4.5C70.5,5.8,71,6.3,71.3,6.3z M74,34.8c0.1-0.2,0.1-0.6,0-0.8
	c-1.1-1.7-2.2-3.4-3.4-5.2l-3.8,3.5l5.3,5.8C72.8,36.9,73.4,35.9,74,34.8z M78.1,23.2c0.8,1.5,1.5,2.9,2.3,4.2
	c3.6-1.9,3.9-2.7,2.6-5.5L78.1,23.2z M95.1,10.2c1.5,0.9,3,1.7,4.6,2.5l1.1-1.7l-5.9-4.3c-0.1,0.9-0.2,1.5-0.2,2.1
	C94.7,9.3,94.8,10,95.1,10.2z M99,21.9c-3-0.4-4-0.7-6-1.1v2.7c2,0.2,3,0.3,6,0.5V21.9z"/>
</svg>
