<svg xmlns="http://www.w3.org/2000/svg" width="351.1" height="105.2"><path d="M155.3 46.9c-1.6-2-4.1-3.2-6.7-3.1-8.4 0-12.5 5.8-12.6 13 0 7.1 4.2 13.8 12.5 13.8 2.6.1 5.1-.9 6.8-2.9v2.6h7.5v-26h-7.5v2.6zm-5.9 16.3c-3.9 0-5.8-3.1-5.8-6.3s2-6.2 5.8-6.2c3.4.1 6 2.9 5.9 6.3.1 3.3-2.5 6.1-5.9 6.2zM181.1 64.1c-1.8 0-3.5-.7-3.5-3V50.9h5.4v-6.5h-5.4v-5.6l-7.5.7v4.9h-3.4v6.5h3.4v10.3c0 6.8 3.5 9.4 9.3 9.4 1.4 0 2.8-.2 4.1-.4l-.2-6.2c-.8 0-1.5.1-2.2.1zM201 64.1c-1.8 0-3.5-.7-3.5-3V50.9h5.4v-6.5h-5.4v-5.6l-7.5.7v4.9h-3.4v6.5h3.4v10.3c0 6.8 3.5 9.4 9.3 9.4 1.4 0 2.7-.2 4.1-.4l-.2-6.2c-.8 0-1.5.1-2.2.1zM214.6 45.8l-.3-1.7h-6.8v26h7.5V55.7c0-3.5 2.8-5 5.5-5 .9 0 1.7.1 2.5.4l.1-7.1c-1-.2-1.9-.4-2.9-.4-2.1-.1-4.1.8-5.6 2.2zM245.7 46.9c-1.6-2-4.1-3.2-6.7-3.1-8.4 0-12.5 5.8-12.6 13 0 7.1 4.2 13.8 12.5 13.8 2.6.1 5.1-.9 6.8-2.9v2.6h7.5v-26h-7.5v2.6zm-5.9 16.3c-3.9 0-5.8-3.1-5.8-6.3s2-6.2 5.8-6.2c3.4.1 6 2.9 5.9 6.3.1 3.3-2.6 6.1-5.9 6.2zM264.5 57.1c0-7.3 9.3-8.3 11.3-1.9h7.5c-2.1-16-26.1-14.9-26.1 1.9s24 17.9 26.2 2h-7.5c-2.1 6.4-11.4 5.3-11.4-2zM300.1 64.1c-1.8 0-3.5-.7-3.5-3V50.9h5.4v-6.5h-5.4v-5.6l-7.5.7v4.9h-3.4v6.5h3.4v10.3c0 6.8 3.5 9.4 9.3 9.4 1.4 0 2.8-.2 4.1-.4l-.2-6.2c-.7 0-1.5.1-2.2.1zM304.2 57.1c0 18.4 27.7 18.5 27.7 0 0-18.4-27.7-18.5-27.7 0zm20.1 0c0 8.7-12.5 8.7-12.5 0v-.7c.2-3.5 3.2-6.1 6.6-5.9 3.4.2 6.1 3.2 5.9 6.6zM348.2 43.6c-2.1 0-4.1.8-5.7 2.2l-.3-1.7h-6.8v26h7.5V55.7c0-3.5 2.8-5 5.5-5 .9 0 1.7.1 2.5.4l.1-7.1c-.8-.3-1.8-.4-2.8-.4z"/><g><linearGradient id="a" gradientUnits="userSpaceOnUse" x1="19.52" y1="3.927" x2="19.52" y2="104.807"><stop offset=".077" stop-color="#f808ed"/><stop offset=".916" stop-color="#9903e3"/></linearGradient><path d="M34.6 89.8c-.1-.1-.2-.1-.3-.2-.1-.1-.2-.2-.4-.2l-.2-.2-.5-.5-.3-.3c-.1-.1-.2-.3-.4-.4-.1-.2-.3-.4-.4-.5-.2-.2-.3-.5-.5-.7-.1-.2-.3-.4-.5-.6-.1-.2-.3-.5-.5-.7-.1-.3-.3-.5-.5-.8-.1-.3-.3-.6-.5-.9-.1-.3-.3-.6-.4-.9-.1-.3-.3-.6-.5-.9-.1-.4-.3-.8-.5-1.1-.1-.3-.2-.6-.4-.9-.1-.4-.3-.8-.5-1.1-.1-.4-.3-.8-.4-1.1-.1-.4-.2-.8-.4-1.1-.1-.4-.3-.9-.4-1.3-.1-.4-.2-.9-.4-1.3-.1-.4-.2-.7-.3-1.1-.1-.5-.2-.9-.4-1.4-.1-.5-.2-.9-.4-1.3-.1-.5-.2-.9-.3-1.4-.1-.5-.2-1-.3-1.4-.1-.5-.2-.9-.3-1.3-.1-.5-.2-.9-.3-1.4-.1-.5-.2-1-.3-1.4 0-.5-.1-.9-.3-1.4 0-.5-.1-1-.3-1.5 0-.5-.1-1-.2-1.5 0-.5-.1-1-.2-1.5 0-.5-.1-1-.2-1.5 0-.5-.1-1-.2-1.4 0-.5-.1-1-.2-1.5 0-.5-.1-.9-.1-1.4 0-.5-.1-.9-.1-1.4v-.1c0-.5 0-1-.1-1.4v-.1c0-.5 0-.9-.1-1.4v-.2c0-.4 0-.8-.1-1.2v-.3c0-.4 0-.8-.1-1.2v-.3c0-.4 0-.7-.1-1.1v-.4-.8-.8-.7-.7-.4c0-.3.1-.7.1-1v-.3c0-.4.1-.8.1-1.1v-.2c0-.4.1-.8.1-1.2.1-.5.1-.9.1-1.4 0-.3.1-.7.1-1 .1-.4.1-.7.1-1.1.1-.3.1-.7.1-1.1.1-.4.1-.7.2-1.1.1-.3.1-.6.2-.9.1-.3.1-.7.2-1 .1-.3.1-.5.2-.8.1-.3.2-.6.2-.8.1-.3.2-.6.2-.9.1-.2.1-.3.1-.5.1-.2.2-.5.3-.7 0-.1.1-.2.1-.4.1-.2.2-.3.2-.5 0-.1.1-.2.1-.3.1-.1.1-.2.2-.3 1.4-1.9 2.2-4.2 2.2-6.8 0-6.4-5.2-11.5-11.5-11.5C9.9 3.9 5.9 6.6 4 10.5c-.3.5-.5 1-.7 1.5-.2.4-.3.7-.4 1.1-.2.5-.4 1-.5 1.6-.1.3-.2.7-.3 1-.2.5-.3 1-.4 1.5-.1.4-.2.9-.3 1.4-.1.4-.2.9-.3 1.3-.1.4-.2.8-.2 1.3-.1.5-.2 1-.2 1.5-.1.4-.1.9-.1 1.3-.1.5-.1 1-.1 1.5-.1.5-.1.9-.1 1.4-.1.4-.1.9-.1 1.4v.1c0 .4-.1.8-.1 1.2V35.2c0 .4 0 .7.1 1.1v.3c0 .4 0 .8.1 1.1v.3c0 .5 0 .9.1 1.3v.1c0 .5 0 .9.1 1.4v.1c0 .5 0 1 .1 1.5 0 .6.1 1.1.1 1.7 0 .6.1 1.1.2 1.7 0 .6.1 1.2.2 1.7-.2.5-.2 1-.1 1.6 0 .5.1 1.1.2 1.6 0 .6.1 1.1.2 1.7 0 .6.1 1.1.3 1.6 0 .6.1 1.1.3 1.7.1.6.2 1.2.3 1.7.1.6.2 1.1.3 1.6.1.6.2 1.3.4 1.9.1.5.2 1.1.3 1.6.1.6.2 1.1.4 1.7.1.6.2 1.2.4 1.7.1.5.2 1.1.4 1.6.1.5.2 1.1.4 1.6.1.6.3 1.1.5 1.7.1.5.3 1.1.5 1.6.1.6.3 1.2.6 1.8.1.5.3 1 .5 1.5.1.3.3.8.5 1.3.1.5.3 1.1.6 1.6.1.5.3 1 .6 1.5.1.5.3 1 .6 1.4.2.6.4 1.1.7 1.6.2.5.4.9.6 1.4.2.5.4 1 .7 1.4.2.5.4 1 .7 1.4.2.5.4.9.7 1.3.2.5.5 1 .8 1.4.2.4.4.8.7 1.2.2.4.5.8.8 1.2.3.5.6 1 .9 1.4.2.4.5.8.8 1.1.3.4.5.8.9 1.1.3.4.7.9 1 1.2.3.3.5.6.8.9.3.4.7.8 1.2 1.2.3.3.6.6 1 .9.4.3.7.7 1.2.9l1.2.9c.4.3.8.5 1.2.7.4.3.8.5 1.3.7.5.3 1 .5 1.5.7 1 .5 2.1.7 3.3.7 4.4 0 7.9-3.5 7.9-7.9-.3-3.1-2.1-5.8-4.7-7.1z" fill="url(#a)"/><linearGradient id="b" gradientUnits="userSpaceOnUse" x1="18.901" y1="-1.875" x2="77.803" y2="100.146"><stop offset=".081" stop-color="#f800f3"/><stop offset=".879" stop-color="#13ceff"/></linearGradient><path d="M92.5 78.8c-.1-.1-.2-.3-.3-.4-.1-.1-.2-.3-.3-.4-.1-.2-.3-.4-.4-.5-.1-.2-.2-.3-.3-.4-.1-.2-.2-.3-.3-.5-.1-.2-.3-.4-.4-.6-.1-.2-.2-.4-.4-.5-.1-.2-.2-.3-.4-.5-.1-.2-.3-.5-.5-.7-.1-.2-.2-.4-.4-.5-.1-.2-.3-.4-.4-.6-.1-.2-.3-.5-.5-.7-.1-.2-.2-.4-.4-.5-.2-.3-.4-.6-.6-.8-.1-.2-.3-.4-.4-.6-.1-.2-.3-.4-.4-.6-.2-.3-.3-.5-.5-.8-.2-.3-.4-.6-.6-.8-.1-.2-.3-.4-.4-.6-.2-.3-.3-.5-.5-.8-.1-.2-.3-.5-.5-.7-.2-.3-.4-.6-.6-.8-.2-.3-.3-.5-.5-.8-.6-.9-1.4-1.7-2.4-2.3-.3-1.2-.8-2.3-1.5-3.2l-.6-.9c-.1-.2-.3-.5-.5-.7-.2-.3-.4-.7-.7-1l-.6-.9c-.2-.3-.3-.5-.5-.8-.2-.3-.4-.6-.7-.9l-.6-.9c-.2-.3-.3-.5-.5-.7-.2-.3-.4-.7-.7-1l-.6-.9c-.2-.3-.3-.5-.5-.8-.2-.4-.5-.7-.7-1-.2-.3-.4-.6-.6-.8-.2-.3-.4-.6-.7-.9-.2-.3-.4-.6-.7-.9l-.6-.9c-.2-.3-.4-.6-.7-.9-.2-.3-.4-.6-.7-.9-.2-.3-.4-.6-.6-.8-.2-.3-.4-.6-.7-.9-.2-.3-.4-.6-.7-.9-.2-.3-.4-.6-.7-.9-.2-.3-.5-.6-.7-.9-.2-.3-.4-.5-.6-.8-.2-.3-.5-.6-.7-.9-.2-.3-.4-.6-.7-.9-.2-.3-.4-.6-.7-.9-.2-.3-.5-.6-.7-.9-.2-.3-.5-.6-.7-.9-.2-.3-.4-.5-.6-.8-.2-.3-.5-.7-.8-1-.2-.3-.4-.6-.7-.8-.2-.3-.4-.6-.7-.8-.2-.3-.5-.6-.8-.9-.2-.3-.4-.5-.6-.7-.2-.3-.5-.7-.8-1-.2-.3-.4-.5-.7-.8-.2-.3-.4-.5-.6-.8-.2-.3-.5-.6-.7-.9-.2-.3-.4-.6-.7-.8-.2-.3-.5-.6-.7-.9-.2-.3-.4-.5-.6-.8-.2-.3-.4-.5-.7-.8-.2-.3-.5-.6-.7-.8-.2-.3-.4-.5-.7-.8-.2-.2-.4-.5-.6-.7-.2-.3-.5-.6-.8-.9-.2-.2-.4-.5-.6-.7l-.6-.6c-.3-.3-.5-.6-.8-.9l-.6-.6c-.2-.3-.5-.5-.8-.8-.2-.3-.5-.5-.7-.7l-.5-.5c-.2-.3-.5-.5-.7-.7-.2-.2-.4-.4-.7-.6l-.6-.6-.7-.7-.6-.6c-.3-.3-.5-.5-.8-.7-.2-.2-.4-.4-.7-.6-.2-.2-.4-.4-.6-.5-.2-.2-.5-.4-.7-.6-.3-.3-.5-.5-.7-.6-.2-.2-.4-.4-.7-.5-.2-.2-.4-.3-.6-.5-.3-.3-.7-.5-1-.7-.2-.1-.4-.3-.6-.4-.2-.2-.5-.3-.7-.5-.2-.1-.4-.3-.6-.4-.2-.2-.4-.3-.7-.4-.3-.2-.7-.5-1.1-.7l-.6-.3c-.2-.1-.5-.3-.7-.4-.4-.2-.7-.4-1.1-.6L27 2c-.2-.1-.5-.2-.7-.3-.4-.2-.9-.3-1.3-.5-.2-.1-.3-.1-.5-.2-.5-.2-1-.3-1.5-.4-.2 0-.4-.1-.5-.1-.9-.2-1.8-.3-2.7-.3-.5 0-1 0-1.5.1-.6 0-1.2.1-1.8.3-.7.1-1.4.3-2 .5-.8.2-1.5.6-2.2 1-.6.3-1.1.6-1.6.9-.7.3-1.2.7-1.7 1.2-.5.3-.8.7-1.2 1.1-.5.4-.9.9-1.3 1.4-.4.4-.7.9-1 1.4-1.4 1.9-2.2 4.2-2.2 6.8 0 6.4 5.2 11.6 11.6 11.6 2.3 0 4.3-.7 6.1-1.8.1 0 .1 0 .2.1.1 0 .2.1.3.1l.6.3c.1.1.3.2.4.2.2.1.4.2.7.4.2.1.4.2.6.4.2.1.4.3.6.4.1.1.3.2.4.3.2.2.5.3.7.5.1.1.3.2.4.3.2.1.4.3.6.4.2.2.4.3.7.5.1.1.2.2.4.3.2.2.4.3.6.5.2.2.5.4.7.5.2.2.4.3.6.5.2.2.4.3.6.5.2.2.5.4.7.6.2.2.4.4.6.5.2.2.4.4.7.6.2.2.4.3.6.5.2.2.5.4.7.6.2.2.5.4.7.6.2.2.4.4.6.5.2.2.4.4.7.6.3.3.5.5.8.7.2.2.4.3.6.5l.7.7.8.8c.2.2.4.4.6.5l.8.8.6.6c.2.3.5.5.7.7.2.3.5.5.8.8.2.2.4.5.7.7.2.2.4.4.6.7l.9.9.6.6c.2.3.5.5.8.8.2.2.4.5.7.7.2.3.5.5.7.7.2.3.5.6.8.9.2.2.4.5.7.7.2.3.5.6.7.8.2.3.5.6.8.8.2.3.5.5.7.8.2.3.4.5.7.8.2.3.5.6.8.9.2.3.4.5.7.7.2.3.5.6.8.9.2.3.5.5.7.8.2.3.5.5.7.8.2.3.5.6.8.9.2.3.4.5.7.7.2.3.5.6.7.8.2.3.5.6.8.8.2.3.4.5.7.8.2.3.5.5.7.8.2.3.5.6.7.8.2.3.5.5.7.8.2.3.4.5.7.8.2.3.5.6.7.8.2.3.4.5.7.8.2.3.5.6.7.8.2.3.4.5.7.8.2.3.4.5.7.7.2.3.4.5.7.8.2.3.4.5.7.8.2.3.5.5.7.8.7.9 1.6 1.6 2.7 2.1.4 1.1 1 2.1 1.8 2.9.2.2.4.5.6.7.2.3.4.5.6.7l.6.6c.2.3.4.5.6.7.2.2.4.5.6.7.2.2.3.4.5.6.2.2.4.5.6.7.2.2.3.4.5.6.2.2.4.4.6.7l.6.6c.2.2.3.4.5.6.2.2.4.5.6.7l.4.4.6.6.6.6.4.4c.2.2.3.4.5.5l.6.6.4.4.5.5c.2.2.4.4.6.5l.3.3.6.6.3.3c.1.1.3.2.4.3.2.2.4.3.6.5.1.1.2.2.3.2.1.1.2.1.2.2.2.2.5.4.8.6.1.1.2.2.3.2.2.1.3.2.5.3.1.1.3.2.4.3.3.3.7.5 1.1.7.5.3 1 .5 1.6.7.4.1.8.2 1.3.3.3.1.7.1 1 .1h.2V79c-.4-.1-.4-.2-.4-.2z" fill="url(#b)"/><linearGradient id="c" gradientUnits="userSpaceOnUse" x1="99.505" y1="41.699" x2="110.945" y2="30.259"><stop offset=".002" stop-color="#13ceff"/><stop offset=".117" stop-color="#15c9ff"/><stop offset=".263" stop-color="#1bb9ff"/><stop offset=".424" stop-color="#249fff"/><stop offset=".598" stop-color="#317bff"/><stop offset=".78" stop-color="#424dff"/><stop offset=".8" stop-color="#4447ff"/></linearGradient><path d="M108.1 29.8c-3.2 0-5.8 2.6-5.8 5.8 0 .5.1.9.2 1.4 0 .2.1.4.1.6v.7c0 .6.1 1.2.3 1.7-.2.6-.3 1.2-.3 1.9v.1c-.1.3-.1.6-.1.9v.1c0 .3-.1.6-.1.9 0 .2 0 .4-.1.6l11.1-11.1c-.8-2.1-2.9-3.6-5.3-3.6z" fill="url(#c)"/><linearGradient id="d" gradientUnits="userSpaceOnUse" x1="41.367" y1="111.726" x2="94.49" y2="19.714"><stop offset=".063" stop-color="#9903e3"/><stop offset=".918" stop-color="#4847ed"/></linearGradient><path d="M113.3 32.9c-.1-.4-.3-.8-.5-1.2-.2-.4-.4-.7-.6-1-.3-.5-.7-.9-1.2-1.3s-1-.8-1.6-1.1c-.5-.2-1-.4-1.6-.5-.4-.1-.8-.1-1.2-.1-.3 0-.5 0-.8.1-.4 0-.9.1-1.3.2-.2.1-.4.1-.6.2-.4.1-.8.3-1.1.5l-.6.3c-.2.1-.4.2-.6.4-.3.1-.5.3-.7.5-.2.2-.5.3-.7.5-.1.1-.3.2-.4.3-.3.2-.5.4-.8.6-.2.1-.4.3-.5.5-.2.2-.4.3-.6.5l-.6.6c-.2.2-.5.4-.7.7-.2.2-.4.3-.5.5-.3.2-.5.5-.8.8-.2.2-.4.4-.6.7l-.7.7-.7.7-.7.7c-.3.2-.5.5-.7.8-.3.3-.5.5-.7.8-.2.2-.4.5-.6.7-.3.3-.6.6-.8.9-.3.3-.5.5-.7.9-.3.3-.5.5-.7.8-.3.3-.5.6-.8.9-.3.3-.5.6-.7.9-.3.3-.5.6-.8.9-.3.3-.6.6-.8.9-.3.3-.5.6-.7.9-.3.3-.5.6-.8.9-.3.3-.6.6-.8 1-.3.3-.5.6-.7.9-.3.3-.6.6-.8 1-.3.3-.5.6-.7.9-.3.3-.5.6-.8.9-.3.3-.6.6-.8 1-.3.3-.5.6-.8 1-.3.3-.5.6-.7.9-.3.3-.6.6-.8 1-.3.3-.5.6-.7.9-.3.3-.5.6-.7.9-.3.3-.5.6-.8.9-.2.2-.5.5-.7.8-.3.3-.6.6-.8.9-.3.3-.5.6-.7.9-.2.2-.4.5-.6.7-.3.3-.5.6-.7.9-.3.3-.5.5-.7.8-.2.2-.4.4-.6.7-.3.2-.5.5-.7.8-.2.2-.5.5-.6.8-.2.2-.4.4-.6.7-.2.2-.4.4-.6.7-.2.2-.4.4-.6.7l-.6.6c-.2.2-.4.4-.5.6l-.5.5-.5.5c-.3.2-.6.5-.8.8l-.6.6c-.3.3-.6.5-.9.9-.3.2-.6.5-.8.8-.3.2-.6.5-.8.8-.3.3-.7.6-1 .9-.3.3-.7.6-1 .9-.3.3-.7.5-1 .9-.4.3-.7.6-1 .9-.4.3-.7.6-1 .9-.4.3-.8.6-1.1.9l-1.2.9c-.4.2-.7.5-1.1.8-.4.2-.8.5-1.2.9-.4.2-.8.5-1.1.8-.4.2-.8.5-1.2.8-.4.2-.9.5-1.2.8-.4.2-.8.4-1.1.7-.4.2-.8.4-1.1.6-.4.2-.8.4-1.2.7-.4.2-.7.3-1.1.6-.4.1-.8.3-1.2.5-.4.1-.8.3-1.1.5-.4.1-.7.2-1 .4-.4.1-.7.2-1.1.3-.3.1-.7.2-1 .3-.3 0-.6.1-.9.2-.3 0-.7.1-1 .1h-.3-.1c-.1 0-.2 0-.3-.1H34.9c-.9-.4-2-.6-3.1-.6-4.3 0-7.9 3.5-7.9 7.9 0 3.9 2.8 7.1 6.5 7.7.5.2 1.1.2 1.7.3.4.1.9.1 1.4.1H35.2c.5 0 1-.1 1.4-.1.5 0 1-.1 1.5-.3.6-.1 1.3-.2 1.8-.4.6-.1 1.1-.2 1.7-.5.6-.1 1.2-.3 1.7-.6.6-.2 1.2-.4 1.7-.7.6-.2 1.1-.4 1.6-.7.6-.2 1.1-.5 1.6-.8.6-.2 1.1-.5 1.5-.9.5-.2 1-.5 1.5-.9.5-.3 1.1-.6 1.5-1 .5-.3 1-.6 1.4-.9.5-.3 1-.6 1.4-1 .5-.3 1-.7 1.4-1.1.5-.3.9-.6 1.3-1 .5-.3.9-.7 1.3-1.1.5-.3.9-.7 1.3-1.1.4-.3.9-.7 1.2-1.1.5-.3.9-.7 1.2-1.1.4-.3.8-.7 1.1-1.1.4-.3.8-.7 1.1-1.1.4-.3.8-.7 1.1-1.1.4-.3.7-.7 1-1 .4-.3.7-.7 1-1.1.4-.3.7-.7 1-1.1.3-.3.6-.6.9-1 .3-.3.6-.6.9-1 .3-.3.6-.6.8-.9.3-.3.5-.6.8-.9.2-.3.5-.5.7-.8.2-.2.4-.5.6-.7.1-.1.2-.2.3-.4l.6-.6c.2-.2.4-.4.5-.6.2-.2.4-.5.6-.7.3-.3.5-.5.7-.8.2-.2.4-.4.6-.7.2-.2.4-.5.6-.8.3-.3.5-.5.7-.8.2-.2.5-.5.7-.8.2-.2.5-.5.7-.8.3-.3.5-.6.7-.9.3-.3.5-.6.7-.9.3-.3.5-.5.7-.9.3-.3.5-.6.7-.9.3-.3.5-.6.7-.9.3-.3.5-.6.8-.9.3-.3.5-.5.7-.8.3-.3.6-.6.8-1 .3-.3.5-.6.7-.9.3-.3.5-.6.8-.9.3-.3.5-.6.7-.9.3-.3.6-.6.8-1 .3-.3.5-.6.7-.9.3-.3.6-.6.8-1 .3-.3.5-.6.8-.9.3-.3.5-.6.8-.9.3-.3.5-.6.7-.9.3-.3.6-.6.8-1 .3-.3.5-.6.7-.9.3-.3.5-.6.8-.9.3-.2.5-.5.7-.8.3-.3.5-.6.7-.9.3-.3.5-.6.8-.9.2-.2.5-.5.7-.8.3-.2.5-.5.7-.8.3-.2 14.8-15.2 14.8-15.2-.1-.3-.1-.5-.2-.7z" fill="url(#d)"/><linearGradient id="e" gradientUnits="userSpaceOnUse" x1="88.189" y1="89.075" x2="118.605" y2="36.392"><stop offset=".176" stop-color="#13ceff"/><stop offset=".248" stop-color="#15c9ff"/><stop offset=".339" stop-color="#1bb9ff"/><stop offset=".44" stop-color="#249fff"/><stop offset=".548" stop-color="#317bff"/><stop offset=".661" stop-color="#424dff"/><stop offset=".674" stop-color="#4447ff"/><stop offset=".811" stop-color="#4847ed"/></linearGradient><path d="M114.1 39.7v-.5-.5-.3-.6-.1c0-.3 0-.6-.1-.8 0-.3 0-.6-.1-.9 0-.3-.1-.7-.1-1 0-.3-.1-.6-.2-.9 0-.1-.1-.3-.1-.4l-11.1 11.1c0 .2-.1.3-.1.5-.1.4-.1.8-.1 1.2-.1.3-.1.7-.1 1-.1.4-.2.8-.2 1.2-.1.4-.2.8-.2 1.2-.1.4-.2.7-.2 1.1-.1.4-.2.8-.2 1.3-.1.4-.2.8-.2 1.3-.1.4-.2.8-.2 1.2-.1.4-.2.9-.3 1.3-.1.4-.2.9-.3 1.3l-.3 1.2c-.2.4-.3.9-.3 1.3l-.3 1.2c-.2.4-.3.9-.3 1.3-.2.4-.3.8-.3 1.3-.2.4-.3.8-.3 1.2-.2.4-.3.8-.4 1.2-.2.4-.3.8-.4 1.3-.2.4-.3.8-.4 1.2-.2.4-.3.7-.4 1.1-.2.4-.3.8-.4 1.2-.2.3-.3.7-.4 1.1-.2.3-.3.6-.4 1-.2.3-.3.7-.4 1.1-.2.3-.3.6-.4 1-.2.3-.3.6-.4.9-.2.3-.3.6-.4.9-.2.2-.3.5-.4.8-.1.2-.3.5-.4.7-.1.2-.3.4-.4.6-.1.1-.1.2-.2.2v12.6h.5c.5 0 1-.1 1.5-.3.4-.1.8-.2 1.1-.4.5-.2.9-.4 1.3-.6l.9-.6c.3-.2.6-.5.9-.7.3-.2.6-.5.9-.8.3-.3.5-.5.7-.9.2-.2.4-.5.6-.8.3-.3.5-.6.7-1l.6-.9c.2-.3.4-.6.5-.9.2-.3.4-.7.6-1.1.2-.3.4-.6.5-1 .2-.4.4-.7.6-1.2.2-.4.4-.7.5-1.2.2-.3.3-.7.5-1.1.2-.4.4-.8.5-1.2.2-.4.4-.8.5-1.3.2-.4.3-.8.4-1.2.2-.4.4-.9.5-1.3.2-.4.4-.9.4-1.3.2-.4.3-.8.4-1.3.2-.4.3-.9.4-1.4.2-.4.3-.9.4-1.3.2-.4.3-.9.4-1.3.2-.5.3-.9.4-1.4.2-.4.3-.9.4-1.3.2-.4.3-.9.4-1.4.2-.5.3-.9.4-1.4.2-.4.3-.9.3-1.4.2-.4.3-.9.3-1.4.1-.4.2-.9.3-1.3.1-.4.2-.9.3-1.3.1-.4.2-.9.3-1.4.1-.4.2-.9.2-1.3.1-.4.2-.9.2-1.3.1-.4.2-.9.2-1.4.1-.4.2-.8.2-1.3.1-.4.2-.8.2-1.3.1-.4.2-.8.2-1.2.1-.4.1-.8.1-1.2.1-.4.1-.8.1-1.2.1-.3.1-.7.1-1.1V43c.1-.3.1-.6.1-.9V42c0-.3.1-.6.1-.9v-.2c0-.2.1-.5.1-.7-.3-.3-.3-.4-.3-.5z" fill="url(#e)"/></g></svg>