<svg id="Pilgrim_SDK" xmlns="http://www.w3.org/2000/svg" width="1006" height="333" viewBox="0 0 1006 333"><style>.st0{fill:#02a2e0}.st1{fill:#fefefe}.st2{fill:#85939b}</style><path class="st0" d="M257.4 14.8h10.2c18.9 1.3 37.3 9 51.2 21.9 3.6 3.2 6.8 6.9 9.8 10.6 11.8-12.3 27.7-20.5 44.6-22.6 18.2-2.5 37.3 2.3 52.3 12.8 9.6 6.6 17.5 15.6 23.3 25.6 23.6-10.6 51.7-10.5 75.2.4 18 8.2 33.1 22.4 42.6 39.8 11.8 21.4 14.6 47.5 7.9 71-5.5 19.5-17.6 37-33.9 49.1-15.9 11.9-35.8 18.5-55.8 18.1-5.8.1-11.5-.7-17.2-1.6-9.7 17.4-27.4 30.1-47.2 33.4-13.8 2.5-28.4.4-41.1-5.7-7.2 16.7-20.3 30.9-36.7 38.9-9.2 4.7-19.4 7.2-29.6 7.9h-7.3c-16.1-.6-32-6.4-44.6-16.4-11.2-8.7-19.8-20.6-24.7-33.9-14.4 2.9-29.8 1.5-43.2-4.5-16.6-7.3-30.2-21.2-37.2-37.9-3.2-7.7-5.1-15.9-5.6-24.2V189c.5-6.3 1.6-12.4 3.5-18.3 5.4-16.5 17-31 32-39.8-5.9-14.1-8.1-29.9-5.8-45 2.6-18.1 11.4-35.3 24.7-47.9 14.1-13.7 33.1-21.8 52.6-23.2z"/><path class="st1" d="M390.5 121.9c4.5-3.1 10.5-3.2 15.5-1.4-.7 2.2-1.5 4.2-2.2 6.4-2.7-.5-6-1.3-8.4.5-2.6 2-3.1 5.6-3.6 8.7h8.7c0 2.3-.6 4.5-1.1 6.7-2.9.1-5.7.1-8.5 0-.2.7-.4 1.3-.5 1.9-1.9 10.5-3.7 21.1-5.6 31.6-1.1 5.4-2.9 11.2-7.8 14.3-4.4 2.4-9.9 2.4-14.4.6.5-2.1 1.3-4.1 2.1-6.2 2.9.4 6.4 1.3 8.7-1 2.3-2.8 3-6.6 3.7-10 1.8-10.5 3.8-20.9 5.5-31.3-2.1 0-4.1 0-6.3-.1.2-2.2.5-4.5 1.3-6.7 2 .1 4 0 6.1.1.9-5.1 2.3-10.9 6.8-14.1zM286.7 120.3c2.6-.1 5.2-.1 7.9-.1.1 1.3.1 2.7.1 4.1-.1 16.7.1 33.5-.1 50.3-2.6.1-5.3.1-7.9 0-.1-18.1-.1-36.2 0-54.3zM214.4 142.4c1.6-3.8 5.5-6.3 9.5-6.9 5.4-.7 11.1 0 15.9 2.6.7.4 1.8.9 1.1 1.9-.5 1.7-1.3 3.4-1.9 5.1-4.6-2-9.6-4-14.7-2.8-2.8.7-4.3 4.8-1.6 6.6 5.3 3.5 12.6 3.4 17.1 8.2 4.6 5.3 1.9 14.7-4.6 17.1-7.6 2.9-16.7 1.4-23.1-3.5.8-2 1.3-4.1 2.3-6 .8-.1 1.6.5 2.2 1 3.7 2.4 8.2 3.7 12.6 3.3 2.3-.2 4.8-1.9 4.9-4.3.2-2.2-1.9-3.6-3.7-4.3-4.8-2-10.4-2.5-14.3-6.1-3-3.1-3.3-8.1-1.7-11.9zM248.6 138.8c5.2-3.1 11.5-3.8 17.4-3.4 4.1.3 8.6 2.1 10.7 5.9 1.9 3.2 1.9 7.1 1.8 10.7-.1 7 0 14-.1 21-7.4 1.9-15.2 3.4-22.7 1.7-3.6-.8-7-3-8.4-6.6-1.6-4.1-1.3-9.3 1.7-12.7 2-2.5 4.9-4.1 8-4.8 4.5-1.1 9.1-.7 13.6-.1 0-2.5.1-5.5-2.2-7-3.4-2.2-7.8-1.6-11.5-.8-2.2.4-4.1 1.6-6.3 2-.8-1.9-1.6-3.8-2-5.9zM308.1 139.3c4.5-3.8 10.8-4.7 16.4-3.4 5.4 1.2 9.7 5.9 10.8 11.2.7 3.4 1.3 7.1.2 10.5-8.4 0-16.8-.1-25.3.1.3 2.8.8 6 2.9 8.1 2.5 2.4 6.1 3.1 9.4 2.9 3.4.1 6.7-.8 9.8-2 .8 2 1.9 4 2 6.2-4.1 2.4-9 2.6-13.7 2.7-5.4-.2-11-1.7-14.7-5.8-3.7-4.1-4.7-10-4.5-15.3.4-5.7 2.3-11.6 6.7-15.2z"/><path class="st1" d="M342.4 143.5c1.2-4.1 5.1-7 9.1-7.9 6.1-1.1 12.6-.1 17.9 3.1-.3 2.1-1.2 4-1.9 6-2.6-.4-4.8-2-7.4-2.3-2.8-.5-5.9-1.1-8.4.4-1.8 1-2.6 3.6-1.3 5.3 1.5 1.7 3.8 2.3 5.9 3.1 4.3 1.4 9 2.6 12.1 6.1 2.3 2.6 2.5 6.5 1.7 9.8-1.1 4.2-4.9 7.3-9.1 8.1-6.2 1.3-12.9.2-18.4-2.9-.7-.4-1.6-.7-1.9-1.5.5-2 1.4-4 2.1-6 2.3.8 4.1 2.5 6.4 3.1 3.3 1.1 7 1.9 10.3.7 2.2-.8 3.8-3.4 2.8-5.7-1.2-2-3.5-2.6-5.5-3.4-4.2-1.4-8.9-2.3-12.2-5.4-2.9-2.8-3.2-7.1-2.2-10.6zM479.5 136.4c5.8-1.9 12.3-1.4 18 .7-.4 2.2-1.3 4.3-2.2 6.4-4.4-1.1-9.3-2.2-13.6-.1-4.1 2.3-5.6 7.2-5.6 11.6-.1 4.3.9 9.4 4.9 11.8 4.5 2.8 10 1.7 14.8.4.7 2 1.4 4 2.2 6.1-4.2 2.1-9 2.2-13.6 2-4.9-.2-9.8-2.4-12.7-6.4-4-5.5-4.6-12.7-3.3-19.2 1.1-6 5.3-11.3 11.1-13.3zM506.9 139c4.4-3.6 10.5-4.3 15.9-3.1 5.6 1.2 9.9 6.1 10.9 11.7.6 3.3 1.1 6.9.1 10.1-8.4-.1-16.8-.1-25.3 0 .3 2.8.7 6 2.9 8.1 2.6 2.6 6.5 3.1 10 2.9 3.2 0 6.3-.9 9.2-2 .9 2 1.7 4.1 2.2 6.3-4.6 2.3-9.9 2.8-15 2.6-5.4-.2-11-2.3-14.3-6.8-3.1-4.2-3.8-9.7-3.5-14.9.4-5.7 2.4-11.5 6.9-14.9zM412.6 136.3c5.7-1.7 12.3-1.3 17.2 2.3 3 2.1 5 5.4 6.1 8.8 1.7 5.8 1.6 12.2-.7 17.9-1.9 4.7-6 8.4-10.9 9.6-5.1 1.2-10.9.8-15.3-2.2-3.7-2.3-6-6.3-7-10.4-1.3-5.4-1.1-11.1.8-16.3 1.5-4.5 5.3-8.1 9.8-9.7zM443.6 144.1c.1-2.7-.2-5.4.2-8.1 2.5.1 5.1-.1 7.6.1 0 1.1.1 2.2.1 3.4 3.9-4 10.2-4.6 15.2-2.8-.7 2.2-1.5 4.3-2.2 6.4-2.9 0-6.2-.7-8.7 1.2-3.2 2.2-4 6.4-4.1 10-.1 6.7.1 13.5-.1 20.2-2.6.1-5.3.1-7.9 0-.2-10.1-.1-20.2-.1-30.4z"/><path class="st0" d="M313.5 144.1c2.3-2.3 6-2.7 9-1.7 3.5 1.3 5.4 5.2 5.3 8.8-5.8-.1-11.7 0-17.5-.1.5-2.4 1.2-5.1 3.2-7zM511.2 145c3.1-4.1 10.2-4.3 13.2-.1 1.4 1.7 1.8 4.1 2 6.3-5.8.1-11.7 0-17.5 0 .3-2.1.9-4.4 2.3-6.2zM415.4 142.7c3.2-1.1 7.2-.8 9.7 1.7 2.6 2.6 3.1 6.5 3.3 10 .1 4.1-.4 8.8-3.2 12.1-2.2 2.5-5.9 2.6-9 2.1-2.9-.6-4.9-3.2-5.7-6-1.3-4.6-1.4-9.6 0-14.1.9-2.6 2.5-4.8 4.9-5.8zM255 160.6c.7-2.2 2.9-3.4 5.1-3.9 3.5-.8 7.1-.3 10.6.2-.1 3.7 0 7.5 0 11.2-4.5.7-9.4 1.9-13.6-.5-2.6-1.3-2.7-4.5-2.1-7z"/><g><path class="st2" d="M616.2 179.6v-76.1h26c23.7 0 39 16.6 39 38.1 0 21.7-15.3 38-39 38h-26zm55.2-38c0-16.4-10.4-29.7-29.2-29.7h-16.6v59.2h16.6c18.5 0 29.2-13.2 29.2-29.5zM757.1 179.6v-64l-25.8 64h-3.9l-25.9-64v64H692v-76.1h13.6l23.7 58.7 23.6-58.7h13.6v76.1h-9.4zM784.4 179.6v-76.1H815c15.3 0 23.9 10.5 23.9 22.9s-8.7 22.9-23.9 22.9h-21.1v30.2h-9.5zm44.6-53.2c0-8.6-6.2-14.5-15.2-14.5h-20v29h20c9.1 0 15.2-5.9 15.2-14.5z"/></g></svg>