<?xml version="1.0" encoding="utf-8"?>
<svg id="Layer_1" viewBox="0 0 2010.1 498" width="2010.1" height="498" xmlns="http://www.w3.org/2000/svg">
  <style id="style2">.st0{fill:#02a2e0}.st1{fill:#85939b}.st2{fill:#fefefe}</style>
  <g id="g64">
    <path class="st0" d="M177.6 0h16.9c31.4 2.2 62 14.9 85.1 36.4 6 5.4 11.3 11.5 16.3 17.7C315.5 33.7 342 20 370.1 16.5c30.3-4.1 62 3.8 87 21.3 15.9 11 29.1 25.9 38.7 42.6 39.3-17.7 86-17.5 125.1.6 29.9 13.7 55.1 37.2 70.9 66.1 19.7 35.6 24.3 78.9 13.2 118-9.2 32.4-29.2 61.5-56.3 81.6-26.5 19.8-59.6 30.8-92.7 30.1-9.6.2-19.1-1.2-28.6-2.7-16.1 29-45.6 50.1-78.4 55.6-23 4.1-47.3.7-68.3-9.5-11.9 27.8-33.8 51.3-61 64.6-15.3 7.8-32.2 11.9-49.3 13.2h-12.1c-26.8-1-53.2-10.6-74.2-27.2-18.6-14.5-33-34.3-41.1-56.4-24 4.8-49.5 2.5-71.9-7.5-27.6-12.1-50.2-35.2-61.8-63C4 331.1.9 317.4 0 303.6v-14.1c.8-10.4 2.7-20.6 5.9-30.5 8.9-27.5 28.2-51.5 53.2-66.1-9.8-23.5-13.5-49.7-9.7-74.9 4.3-30.1 19-58.7 41.1-79.6C113.7 15.7 145.3 2.2 177.6 0z" id="path4" fill="#02a2e0"/>
    <path class="st1" d="M1329.3 135.3c4.6-1.7 11.4-1.6 14 3.3 1.9 4.1 1.7 9.7-1.8 12.9-2.9 2.4-7.1 2.3-10.6 1.6-8-1.4-8.7-14.6-1.6-17.8z" id="path6" fill="#85939b"/>
    <path class="st1" d="M1078.8 139.6c5.1 0 10.2-.1 15.4 0 .1 24.4 0 48.8.1 73.3 13.6-12.6 27-25.5 40.8-37.8 6-.5 12.1-.2 18.1-.1-12.8 12.9-26.7 24.8-39.7 37.6 14.6 17.6 29.3 35.3 43.7 53-6.3.2-12.7.1-19 .1-11.8-14.1-23.2-28.7-35.2-42.7-3.5 1.4-5.7 5.1-8.7 7.3-.2 11.8 0 23.5-.1 35.3-5.1.2-10.3.1-15.4.1 0-42-.1-84.1 0-126.1z" id="path8" fill="#85939b"/>
    <path class="st1" d="M1689.2 144c.3-1.4-.6-3.4.6-4.4 4.9-.2 9.8 0 14.7-.1.3 42 .1 84.1.1 126.1-5.1.1-10.2 0-15.3 0-.1-40.4 0-81-.1-121.6z" id="path10" fill="#85939b"/>
    <path class="st1" d="M1268.3 152.6c5.1-1.7 10.2-3.5 15.2-5.3.4 9.2 0 18.3.2 27.5 8 .2 16-.2 23.9.2v11.7c-8 .1-15.9 0-23.9.1-.2 15.4 0 30.8-.1 46.2.1 4.6-.4 9.4.7 13.9.8 3.3 2.9 6.4 6.2 7.6 4.9 2.1 10.4 1 15.4.1.7 3.8 1.6 7.6 2.1 11.4-9.5 3-20.6 3.6-29.4-1.8-6.9-4.2-10.3-12.4-10.3-20.2-.2-19.1 0-38.2-.1-57.3-5.3 0-10.6 0-15.9-.1-.1-3.4-.1-6.7.1-10.1 5.2-.5 10.5-1.2 15.7-1.7.2-7.3-.1-14.7.2-22.2z" id="path12" fill="#85939b"/>
    <path class="st2" d="M399 178c7.5-5.1 17.5-5.4 25.8-2.3-1.1 3.6-2.5 7-3.7 10.6-4.5-.8-9.9-2.1-13.9.9-4.4 3.4-5.1 9.3-6 14.4h14.4c0 3.8-1 7.5-1.8 11.1-4.8.1-9.5.1-14.2 0-.4 1.1-.7 2.1-.9 3.2-3.1 17.5-6.1 35.1-9.3 52.6-1.9 8.9-4.8 18.7-12.9 23.8-7.3 4-16.4 4-24 1 .9-3.5 2.2-6.9 3.5-10.3 4.8.6 10.6 2.2 14.5-1.6 3.9-4.6 5-10.9 6.1-16.6 3-17.4 6.4-34.7 9.2-52.1-3.5 0-6.9 0-10.4-.1.4-3.7.9-7.5 2.1-11.1 3.4.1 6.7 0 10.1.1 1.5-8.6 3.9-18.2 11.4-23.6z" id="path14" fill="#fefefe"/>
    <path class="st1" d="M775.4 187.4c5.7-8.1 14.8-13.7 24.7-14.7 8.5-.8 17.8 0 25 5.2 4.6 3.1 7.8 7.8 9.9 12.9 4.4-7.5 11.1-13.9 19.5-16.5 7.2-2.2 15.1-2.4 22.5-.7 8.8 2.1 16.3 8.6 19.9 16.8 2.2 4.9 3.3 10.3 3.5 15.7.1 19.8-.1 39.6.1 59.4-5.1.5-10.2.2-15.3.2-.1-19.9.1-39.8-.4-59.7-.4-5.9-2.6-11.8-6.8-16-5.3-5-13.1-5.5-19.9-4.3-12.3 2.6-19.6 15.4-20 27.3-.3 17.6.2 35.1-.3 52.7h-15.1c-.3-19.2 0-38.5-.2-57.8-.2-6.7-2.4-13.6-7.3-18.3-4.6-4.2-11.3-5-17.3-4.4-6.9.6-13.4 4.7-17 10.6-3.6 5.2-4.9 11.7-5 18-.1 17.2 0 34.5-.1 51.7-5 0-10 0-15.1.1-.4-24.5 0-49-.2-73.5-.1-5.8-.8-11.6-1.1-17.4 4.8.2 9.8-.6 14.5.4 1 4.2.9 8.3 1.5 12.3z" id="path16" fill="#85939b"/>
    <path class="st1" d="M1042.9 175.9c6.5-3.4 14.1-3.9 21.3-3.1-.1 4.3-.6 8.6-.7 12.9-6.8-.1-14.1-.1-20 3.8-7.8 5-11.7 14.4-12.2 23.4-.4 17.6.2 35.2-.3 52.8-4.9-.1-9.9.2-14.8-.1l-.4-.4c-.2-16.1 0-32.1-.1-48.2-.1-14 .6-28-1.2-41.9 4.8-.2 9.7-.6 14.5.1 1 4.6 1 9.3 1.4 14 2.7-5.5 6.8-10.5 12.5-13.3z" id="path18" fill="#85939b"/>
    <path class="st1" d="M1381.8 187.7c5.6-7.9 14.5-13.4 24.1-14.7 9.9-1.3 21.1-.6 29.3 5.8 8.4 6.7 12.1 17.8 12.1 28.3v58.7c-5.2.1-10.3.1-15.5 0v-48.6c0-6.3.5-12.9-2-18.9-2-5.4-6.2-10.1-11.9-11.6-8.4-2.3-18.3-1.4-25.2 4.3-6.6 5.3-10.2 13.9-10.1 22.2 0 17.5-.1 35 .1 52.6-5.1.3-10.3.1-15.4.1-.1-13.9 0-27.8 0-41.7-.1-16.4.5-32.8-1.1-49.1 4.8 0 9.6-.1 14.4.1.7 4 1 8.2 1.2 12.5z" id="path20" fill="#85939b"/>
    <path class="st1" d="M1622.7 175.9c16.1-6.1 35.4-4.1 49.3 6.3-1.8 3.7-4 7.2-6 10.7-6.8-4.6-14.8-7.6-23-7.6-7.6-.3-15.8 1.7-21.2 7.4-7 7.1-9.2 17.5-9.3 27.2-.1 10 2.4 20.6 9.6 28 6.2 6.2 15.5 8 24 6.9 7.2-.7 13.9-3.7 20-7.4 1.9 3.6 3.7 7.2 5.7 10.7-13.6 10.3-32.4 12.6-48.4 7.2-9.8-3.6-17.7-11.5-21.7-21.1-4.8-11.4-5.8-24.3-3.6-36.4 2.3-13.7 11.3-26.7 24.6-31.9z" id="path22" fill="#85939b"/>
    <path class="st1" d="M1326.8 175.1c5.1-.3 10.2-.3 15.3 0 .1 30.2 0 60.4 0 90.6-5.1.1-10.2.1-15.4 0 .1-30.2.1-60.4.1-90.6z" id="path24" fill="#85939b"/>
    <path class="st1" d="M1827.2 175c5.1-.2 10.3-.3 15.4.1V228c0 7.4 1.3 15.3 6.1 21.2 3.6 4.6 9.6 6.6 15.3 6.6 6.1.3 12.5-1.6 17.1-5.7 7.1-6.2 10.7-15.8 10.7-25.2.5-16.6 0-33.3.2-49.9 5-.3 10.1-.1 15.1-.1.1 16.7 0 33.4 0 50.1.1 13.6-.5 27.2 1.3 40.7-4.9.1-9.7 0-14.6 0-.7-4.7-1.1-9.4-1.4-14.1-3.7 5.3-8.1 10.3-14.2 13-9.8 4.4-21.3 4.7-31.3 1.2-8.7-3-14.8-10.9-17.6-19.4-2.3-6.6-2.4-13.7-2.3-20.6.2-16.8.1-33.8.2-50.8z" id="path26" fill="#85939b"/>
    <path class="st2" d="M226.4 175.3c4.3-.1 8.7-.1 13.1-.1.2 2.2.2 4.5.2 6.8-.1 27.8.1 55.7-.1 83.6-4.4.2-8.8.1-13.1 0-.2-30.1-.2-60.2-.1-90.3z" id="path28" fill="#fefefe"/>
    <path class="st1" d="M1243.6 225.8c.6-8.9.2-18.1-2.7-26.7-2.9-8.8-8.4-17-16.6-21.6-8.5-4.9-18.8-5.7-28.3-4.6-11 1.3-21.3 7.5-27.3 16.9-7.4 11.5-9.1 25.9-7.4 39.3 1.4 12.1 7.1 24.1 17.1 31.4 9.8 7.2 22.7 8.7 34.5 7.3 10-1 19.4-5 27.6-10.8-2.2-3.4-4.5-6.6-6.8-10-6.1 3.8-12.7 7.2-19.9 8.3-8.7 1.1-18.4.9-25.7-4.5-7.8-5.7-11.2-15.6-11.8-24.9 22.5-.1 44.9.1 67.3-.1zm-67.4-12c.4-8.9 3.5-18.2 10.4-24.2 6.2-5.2 14.8-6.2 22.6-4.8 5.3 1.1 10.4 4 13.5 8.5 4.4 5.9 5.9 13.3 6.2 20.5-17.6.1-35.1.1-52.7 0z" id="path30" fill="#85939b"/>
    <path class="st1" d="M1804.9 190.1c-5.2-7.8-13.5-13.3-22.5-15.8-8.8-2.4-18.1-2.4-27-.7-9.2 1.8-18 6.8-23.7 14.4-6.9 8.7-9.7 20.1-9.7 31.1-.2 10.7 2 21.7 8 30.8 5.4 8.4 14.2 14.3 23.8 16.8 9.1 2.3 18.8 2.2 27.9-.2 9.5-2.5 18.2-8.7 23.4-17.1 5.8-9 8-19.8 7.9-30.3 0-10.2-2.3-20.5-8.1-29zm-15.3 56.5c-4.2 5.4-10.8 8.5-17.5 9.1-7.8.8-16.3-.2-22.6-5.3-6.9-5.7-10.2-14.7-11.1-23.3-.9-10.5-.3-21.9 5.7-31 3.7-6 10.2-9.8 17.2-10.7 8.8-1.4 18.7-.2 25.7 5.8 7.2 6.5 10 16.5 10.5 25.9.3 10.1-1.3 21.2-7.9 29.5z" id="path32" fill="#85939b"/>
    <path class="st1" d="M2009.1 231c-.1-30.5.2-60.9-.1-91.4-5.1-.1-10.2-.1-15.3 0-.1 14.7 0 29.5 0 44.2-11.7-11.6-30.3-14.3-45.3-8.4-9.7 3.9-17.2 12.1-21.3 21.6-4.7 10.6-5.5 22.5-4 33.9 1.2 9.4 4.8 18.8 11.1 26 5.7 6.6 14.2 10.3 22.9 11.1 9.6 1 19.8-.4 28-5.8 3.9-2.5 6.9-6 9.5-9.7.3 4.4.8 8.8 1.5 13.2 4.7.1 9.3-.1 14 .2v-4.4c-1.4-10.1-.8-20.3-1-30.5zm-15.4-3.9c0 6.6-1.9 13.3-6 18.6-9.5 12.8-31.6 14.1-41.6 1.3-6.3-7.8-8-18.2-7.7-28 .1-10.3 3.4-21.2 11.3-28.2 5.2-4.7 12.5-6.2 19.3-5.7 9.8.1 18.8 5.5 24.7 13.1v28.9z" id="path34" fill="#85939b"/>
    <path class="st2" d="M106.2 212.1c2.7-6.3 9.1-10.4 15.8-11.5 9-1.2 18.4 0 26.4 4.3 1.1.6 3 1.5 1.9 3.1-.9 2.9-2.1 5.7-3.2 8.5-7.6-3.3-16-6.6-24.4-4.6-4.7 1.2-7.1 8-2.6 10.9 8.8 5.8 21 5.6 28.4 13.7 7.6 8.8 3.2 24.4-7.6 28.5-12.6 4.8-27.7 2.3-38.4-5.8 1.3-3.3 2.1-6.8 3.8-9.9 1.4-.1 2.6.9 3.7 1.6 6.1 4 13.6 6.1 20.9 5.5 3.9-.4 7.9-3.1 8.2-7.2.4-3.7-3.1-6-6.1-7.2-7.9-3.3-17.3-4.1-23.8-10.2-5.2-5-5.7-13.3-3-19.7z" id="path36" fill="#fefefe"/>
    <path class="st2" d="M163 206.1c8.6-5.2 19.1-6.3 29-5.7 6.9.5 14.3 3.5 17.8 9.8 3.1 5.4 3.1 11.8 3 17.8-.1 11.7 0 23.3-.1 35-12.3 3.1-25.2 5.6-37.8 2.9-6-1.3-11.7-5-14-10.9-2.6-6.9-2.1-15.4 2.8-21.2 3.3-4.1 8.2-6.8 13.3-7.9 7.4-1.9 15.1-1.1 22.6-.2 0-4.1.1-9.1-3.7-11.6-5.7-3.6-12.9-2.6-19.1-1.3-3.7.6-6.9 2.7-10.5 3.3-1.2-3.3-2.6-6.5-3.3-10z" id="path38" fill="#fefefe"/>
    <path class="st2" d="M261.9 206.9c7.4-6.4 17.9-7.8 27.2-5.7 9 2 16.1 9.8 18 18.7 1.2 5.7 2.1 11.8.3 17.5-14 0-28-.1-42 .1.5 4.7 1.4 9.9 4.9 13.4 4.1 4 10.2 5.1 15.7 4.8 5.6.1 11.1-1.4 16.3-3.3 1.3 3.4 3.1 6.7 3.4 10.3-6.8 4-15 4.4-22.7 4.5-8.9-.3-18.3-2.8-24.4-9.7-6.1-6.9-7.8-16.6-7.4-25.5.3-9.3 3.4-19.1 10.7-25.1z" id="path40" fill="#fefefe"/>
    <path class="st2" d="M319 213.9c2-6.8 8.4-11.6 15.2-13.1 10.1-1.8 21-.1 29.8 5.2-.5 3.5-2 6.7-3.1 10-4.3-.7-8-3.3-12.3-3.9-4.6-.8-9.8-1.8-14 .6-3 1.6-4.4 6-2.1 8.8 2.5 2.9 6.3 3.9 9.8 5.2 7.1 2.4 14.9 4.3 20.1 10.1 3.9 4.4 4.1 10.8 2.8 16.3-1.8 7-8.2 12.1-15.1 13.4-10.3 2.2-21.4.4-30.6-4.8-1.1-.7-2.6-1.2-3.1-2.5.8-3.4 2.3-6.7 3.5-10 3.8 1.3 6.8 4.1 10.6 5.2 5.5 1.8 11.6 3.2 17.2 1.2 3.7-1.3 6.3-5.7 4.6-9.4-2-3.3-5.9-4.4-9.2-5.6-7-2.3-14.8-3.8-20.3-9-4.9-4.6-5.4-11.8-3.8-17.7z" id="path42" fill="#fefefe"/>
    <path class="st2" d="M546.9 202.1c9.7-3.1 20.5-2.3 30 1.1-.7 3.7-2.2 7.1-3.7 10.6-7.3-1.8-15.5-3.6-22.6-.1-6.8 3.8-9.3 12-9.3 19.3-.2 7.2 1.5 15.6 8.1 19.6 7.5 4.6 16.7 2.9 24.6.6 1.2 3.4 2.4 6.7 3.6 10.1-7 3.5-15 3.7-22.6 3.4-8.1-.4-16.3-4-21.2-10.7-6.7-9.1-7.7-21.2-5.5-32 2-9.8 9-18.6 18.6-21.9z" id="path44" fill="#fefefe"/>
    <path class="st2" d="M592.5 206.4c7.3-6 17.5-7.2 26.5-5.2 9.3 2 16.4 10.2 18.2 19.4 1 5.5 1.9 11.4.1 16.8-14-.1-28-.1-42 0 .5 4.7 1.2 9.9 4.9 13.4 4.3 4.4 10.8 5.2 16.7 4.9 5.3 0 10.4-1.5 15.3-3.3 1.5 3.3 2.9 6.8 3.6 10.4-7.6 3.9-16.5 4.7-24.9 4.3-8.9-.4-18.3-3.8-23.7-11.3-5.2-7-6.4-16.1-5.9-24.7.4-9.3 3.7-18.9 11.2-24.7z" id="path46" fill="#fefefe"/>
    <path class="st2" d="M435.7 201.9c9.4-2.9 20.5-2.2 28.6 3.8 5 3.5 8.3 8.9 10.1 14.7 2.8 9.7 2.6 20.3-1.1 29.8-3.1 7.8-10 13.9-18.2 15.9-8.5 2-18.1 1.3-25.5-3.6-6.1-3.9-10-10.4-11.6-17.3-2.1-8.9-1.8-18.4 1.3-27.1 2.7-7.5 8.9-13.5 16.4-16.2z" id="path48" fill="#fefefe"/>
    <path class="st2" d="M487.2 215c.1-4.5-.3-9 .3-13.5 4.2.1 8.4-.1 12.6.2 0 1.9.1 3.7.1 5.6 6.5-6.7 16.9-7.7 25.3-4.7-1.2 3.6-2.5 7.1-3.7 10.7-4.9 0-10.3-1.1-14.5 2-5.4 3.6-6.7 10.6-6.9 16.6-.1 11.2.1 22.4-.1 33.6-4.4.2-8.8.1-13.2 0 0-16.8.2-33.6.1-50.5z" id="path50" fill="#fefefe"/>
    <path class="st0" d="M270.9 215c3.9-3.8 10-4.5 15-2.8 5.9 2.2 9 8.7 8.8 14.7-9.7-.2-19.4 0-29.1-.1.9-4.2 2.1-8.7 5.3-11.8z" id="path52" fill="#02a2e0"/>
    <path class="st0" d="M599.6 216.5c5.1-6.9 16.9-7.1 22-.1 2.4 2.9 3 6.8 3.3 10.4-9.7.1-19.4 0-29.1 0 .6-3.6 1.5-7.4 3.8-10.3z" id="path54" fill="#02a2e0"/>
    <path class="st0" d="M440.4 212.6c5.3-1.9 12-1.4 16.2 2.8 4.3 4.4 5.1 10.8 5.5 16.6.1 6.9-.6 14.6-5.3 20.1-3.7 4.1-9.8 4.3-14.9 3.5-4.9-1-8.2-5.4-9.5-9.9-2.2-7.6-2.3-15.9 0-23.5 1.3-4.2 4-8 8-9.6z" id="path56" fill="#02a2e0"/>
    <path class="st1" d="M993.3 220c-.1-11 .9-22.8-4.6-32.8-3.6-7.1-11-11.7-18.6-13.3-16-3.4-33.3-.7-47.2 8.1 1.7 3.4 3.5 6.8 5.2 10.1 6.6-3.1 13.4-6.3 20.8-7 8.1-.9 17.6-.9 24 5 5.1 5.1 5.1 12.8 4.8 19.6-13-.4-26.3-.3-38.9 3.2-6.1 1.8-12.4 4.6-16.2 9.9-4.7 6.3-5.7 14.6-5 22.2.6 7.1 4.1 14.2 10.3 18.1 9 6.1 20.7 6 31.1 4 8.2-1.6 15.2-7 20.1-13.7.2 4.1.6 8.3 1.3 12.4h14.1c-1.8-15.3-1-30.6-1.2-45.8zm-15.8 16.1c-1.9 10-10.8 17.7-20.6 19.4-6.4 1-13.8 1-18.9-3.6-5.1-4.7-5.5-12.6-3.6-18.9 1.7-5.4 6.9-8.8 12.1-10.3 10.1-2.8 20.8-2.4 31.2-2.2.1 5.2.5 10.4-.2 15.6z" id="path58" fill="#85939b"/>
    <path class="st0" d="M173.6 242.4c1.2-3.6 4.9-5.7 8.4-6.5 5.8-1.3 11.8-.5 17.6.3-.1 6.2 0 12.4 0 18.7-7.4 1.1-15.7 3.1-22.6-.8-4.2-2.2-4.4-7.6-3.4-11.7z" id="path60" fill="#02a2e0"/>
    <path class="st1" d="M1552.5 174.9c-10.9-.2-21.8.4-32.6-.3-10.3-2.7-21.5-2.8-31.7.6-9.3 3-17.3 10.6-19.7 20.2-2.1 8.2-1.8 17.4 1.9 25.1 2.8 5.8 8.1 9.8 13.7 12.8-6.4 2.1-12.9 7.4-12.3 14.7 0 5.2 4.1 8.9 8.2 11.4-6.1 3.2-12.1 7.2-15.4 13.5-4.8 9.1-3.4 21.3 4 28.6 5.7 5.5 13.5 8.1 21.2 9.2 9.5 1.3 19.2 1.1 28.7-.4 8.9-1.5 18-4.6 24.5-11.1 6.9-6.6 9.2-17 7-26.1-1.5-6-6.1-10.7-11.5-13.4-7.9-3.9-16.9-5.1-25.6-5.8-6.7-.5-13.4.1-19.9-1.4-2.5-.6-5.2-1.6-6.5-3.9-1.1-2.4-.4-5.5 1.8-7.1 4.7-3.5 11-3.8 16.7-3.9 8.4 0 17.2-1.4 24.4-6 15.5-9.4 17.2-34.4 3.7-46.2 6.4.7 12.9 1.3 19.4 2.1.1-4.3.1-8.5 0-12.6zm-62 90.8c5.4-1.2 11.1-.3 16.6-.2 8.1.7 16.7 1.4 23.7 5.8 6.6 4.3 5.9 14.3 1.2 19.7-4.8 5.4-12.3 7.3-19.2 8.3-7.5.8-15.3 1-22.7-.8-4.6-1.2-9.4-3.5-11.6-7.9-3.1-6.1-1.7-14.1 3.2-18.9 2.5-2.5 5.6-4.5 8.8-6zm36.2-51.9c-1.8 6.4-7.8 10.8-14.2 11.8-7.5 1.3-15.7 1.2-22.4-2.8-8.2-5.3-10.2-16.7-7.3-25.5 2.3-6.8 8.8-11.5 15.7-12.8 7.8-1.2 16.9-.8 23.1 4.8 6.5 6.2 7.4 16.3 5.1 24.5z" id="path62" fill="#85939b"/>
  </g>
  <text x="4888.904" y="2004.147" transform="matrix(1.286817, 0, 0, 1.360832, -5230.197266, -2322.260742)" style="fill: rgb(133, 147, 155); font-family: sans-serif; font-size: 124px; white-space: pre;">email</text>
</svg>