<svg width="26" height="26" viewBox="0 0 26 26" xmlns="http://www.w3.org/2000/svg"><title>platform-Alexa</title><g fill="none" fill-rule="evenodd"><g fill="#CDD1D3"><path d="M13 23C7.477 23 3 18.523 3 13S7.477 3 13 3s10 4.477 10 10-4.477 10-10 10zm0-2a8 8 0 1 0 0-16 8 8 0 0 0 0 16z"/><path d="M17.49 15.074c-.05.414-.098 1.73-.78 1.73-.462 0-.462-.414-.462-1.39v-5.218C16.248 8.464 14.4 8 12.844 8c-1.726 0-3.455.903-3.455 2.342 0 .658.513 1.317 1.145 1.317.706 0 1.265-.488 1.265-1.195 0-.635-.39-1.074-.974-1.244.269-.512 1.339-.66 1.898-.66 1.679 0 2.019.928 2.019 2.416v1.049C12.649 12.78 9 13.342 9 15.805 9 17.122 10.119 18 11.385 18c1.556 0 2.675-.926 3.356-2.22h.049c.024 1.22.194 2.22 1.605 2.22 1.41 0 1.58-1.853 1.606-2.926h-.511zm-2.75-1.415c0 2.024-1.046 3.366-2.65 3.366-.585 0-1.242-.512-1.242-1.293 0-1.756 2.53-2.61 3.893-3.073v1z"/></g></g></svg>