<svg width="26" height="26" viewBox="0 0 26 26" xmlns="http://www.w3.org/2000/svg">
  <title>platform-firetv</title>
  <g fill="none" fill-rule="evenodd">
    <path d="M.035 15.407c.39-.077.71.23 1.04.403 2.54 1.497 5.342 2.46 8.202 2.914 4.07.668 8.284.147 12.134-1.411.404-.155.79-.395 1.223-.448.288-.03.478.378.292.61-.208.263-.488.437-.753.627-2.605 1.79-5.673 2.678-8.734 2.896h-1.743c-4.208-.217-8.35-1.988-11.483-5.051a.515.515 0 0 1-.178-.54M25 15c.28.08.961.211.988.586.09 1.212-.33 2.427-.97 3.438-.28.376-.557.84-1.03.976a8.14 8.14 0 0 1-.145-.133c.302-1.07.885-2.09.895-3.23-.002-.285-.255-.46-.511-.49-1.074-.174-2.151.054-3.227.095.042-.186.082-.397.276-.484 1.159-.745 2.392-.981 3.724-.758zm-13.97-4.041c.032-.46-.09-1.323.26-1.645.443-.455 1.27-.457 1.697.019.316.333-.014 1.187.048 1.626-.891.018-1.116-.001-2.005 0M14 9s-.241-.472-.873-.733c-.821-.34-1.852-.237-2.523.37-.544.477-.924 1.883-.924 1.883s-.02 1.757.43 2.5c.355.617.992 1.044 1.687 1.177.908.136 1.88.027 2.67-.475-.12-.261-.241-.521-.364-.78-.697.363-1.564.569-2.307.219-.663-.293-.778-.501-.766-1.2C12.287 11.967 14 12 14 12V9zM4 8h1v6s-.668-.002-1 0m4.437-5.975c.339-.07.68.017.999.133-.123.328-.255.653-.381.982-.23-.066-.462-.163-.705-.128-.462.063-1.35 1.057-1.33 1.014.006 1.318.003 2.621 0 3.939H6.018V8.057H7.02c.04.219-.042.764 0 .984.396-.345.87-.948 1.417-1.016zM21 6l2 7 2-7h1l-2.25 8h-1.5L20 6m0 0s-.872.726-.953.949c-.881.04-1.168-.018-2.047.051-.017 2.351.042 4.614.043 6.965-.222.002-.78 0-1.003 0-.005-2.36-.037-4.604-.04-6.965-.876 0-1.088-.063-1.964-.051C13.936 6.717 13 6 13 6h7zm-15.74.004c.264-.136.656-.022.73.29.132.366-.26.754-.623.633-.413-.087-.483-.74-.107-.923m-1.19-1c.223-.006.738.466.944.543-.08.299-.27.503-.425.834a.993.993 0 0 0-1.18-.434c-.29.092-.384.71-.4 1.002C1.975 7.353 2.004 7.595 2 8c.503.003.497-.02 1 0-.104.29.094.656.012.954-.408.027-.595.009-1.003 0-.011 1.668-.055 3.32 0 5.01-.37-.068-.668-.017-1.009.036.02-1.627.047-3.322 0-5-.268 0-.728-.045-.995-.046-.003-.304-.01-.698 0-1.002.266.002.728.054.995.048-.014-.897-.128-1.99.573-2.618.43-.44.937-.38 1.498-.378z" fill="#000000"/>
  </g>
</svg>