<svg xmlns="http://www.w3.org/2000/svg" viewBox="0 0 26 23.08"><defs><style>.cls-1{fill:#cacccd;}</style></defs><title>Asset 1</title><g id="Layer_2" data-name="Layer 2"><g id="Layer_1-2" data-name="Layer 1"><circle class="cls-1" cx="13" cy="11.49" r="2.4"/><path class="cls-1" d="M26,11.59c0-1.83-2.18-3.4-5.51-4.35.82-3.36.54-6-1-7s-4,.24-6.5,2.63C10.49.53,8-.57,6.5.29s-1.78,3.6-.95,7C2.19,8.22,0,9.81,0,11.59S2.19,15,5.53,15.92c-.8,3.31-.55,5.92,1,6.77s4-.18,6.46-2.54c2.49,2.4,4.95,3.5,6.54,2.64s1.81-3.56,1-6.88C23.83,14.94,26,13.36,26,11.59ZM18.8,1.49c.94.53,1,2.64.34,5.41A27.13,27.13,0,0,0,16,6.43,26.61,26.61,0,0,0,14,3.9C16,1.91,17.87,1,18.8,1.49Zm-.63,11.67c.24.6.46,1.18.64,1.74-.58.12-1.2.23-1.85.32.22-.34.43-.68.64-1S18,13.5,18.17,13.16Zm-1.77.33c-.4.67-.81,1.31-1.23,1.92-.7.05-1.43.08-2.17.08s-1.47,0-2.17-.08c-.42-.61-.83-1.24-1.23-1.92s-.71-1.31-1-2c.31-.64.65-1.3,1-1.95s.76-1.24,1.16-1.81c.73-.05,1.47-.09,2.24-.09s1.54,0,2.27.09c.39.58.77,1.18,1.13,1.81s.72,1.29,1,1.92C17.12,12.16,16.78,12.83,16.4,13.49ZM13,18.17c-.36-.4-.73-.84-1.09-1.3l1.09,0,1.09,0C13.73,17.33,13.36,17.76,13,18.17Zm-4.6-4c.2.35.41.69.62,1-.62-.09-1.23-.19-1.79-.31.18-.56.39-1.13.63-1.72C8,13.52,8.21,13.85,8.4,14.19ZM7.86,9.89c-.22-.56-.43-1.1-.6-1.63C7.8,8.15,8.37,8.05,9,8c-.19.3-.38.6-.56.92S8,9.56,7.86,9.89Zm5.16-5c.4.44.79.92,1.19,1.43L13,6.29l-1.17,0C12.23,5.8,12.62,5.33,13,4.89Zm4.58,4c-.18-.31-.37-.62-.56-.92.59.08,1.16.18,1.7.29-.17.52-.37,1.06-.59,1.62C18,9.55,17.79,9.22,17.6,8.89ZM7.2,1.49C8.13,1,10,1.91,12.05,3.88A26.59,26.59,0,0,0,10,6.44a26.69,26.69,0,0,0-3.12.48C6.16,4.13,6.26,2,7.2,1.49ZM1.3,11.59c0-1.06,1.81-2.22,4.63-3a27.56,27.56,0,0,0,1.14,3,27.54,27.54,0,0,0-1.17,3C3.1,13.8,1.3,12.65,1.3,11.59Zm5.9,10c-.93-.52-1-2.6-.36-5.34a26.7,26.7,0,0,0,3.22.49,26.74,26.74,0,0,0,2,2.44C10,21.17,8.13,22.11,7.2,21.59Zm11.6,0c-.94.53-2.81-.43-4.85-2.44a27,27,0,0,0,2-2.4,26.72,26.72,0,0,0,3.29-.5C19.88,19,19.73,21.07,18.8,21.59Zm1.34-7a26.21,26.21,0,0,0-1.18-3A26.28,26.28,0,0,0,20.11,8.6c2.79.78,4.59,1.93,4.59,3S22.92,13.79,20.14,14.57Z"/></g></g></svg>