<?xml version="1.0" encoding="utf-8"?>
<!-- Generator: Adobe Illustrator 21.0.2, SVG Export Plug-In . SVG Version: 6.00 Build 0)  -->
<!DOCTYPE svg PUBLIC "-//W3C//DTD SVG 1.1//EN" "http://www.w3.org/Graphics/SVG/1.1/DTD/svg11.dtd">
<svg version="1.1" id="Layer_1" xmlns="http://www.w3.org/2000/svg" xmlns:xlink="http://www.w3.org/1999/xlink" x="0px" y="0px"
	 viewBox="0 0 26 12" style="enable-background:new 0 0 26 12;" xml:space="preserve">
<style type="text/css">
	.st0{fill:none;}
	.st1{fill:#CDD1D3;}
</style>
<title>Icon-Platform-AppleTV</title>
<desc>Created with Sketch.</desc>
<g id="Icons">
	<g id="Input_x2F_Output-Copy" transform="translate(-280.000000, -47.000000)">
		<g id="Icon-Platform-AppleTV" transform="translate(280.000000, 40.000000)">
			<polygon id="Bounds" class="st0" points="0,0 26,0 26,26 0,26 			"/>
			<path id="Fill-1" class="st1" d="M18.5,9.9h-1.8l3.5,9h1.6l3.6-9h-1.7c0,0-2.3,6.6-2.6,7.3h-0.1L18.5,9.9z M12.5,7.7v2.1h-1.4
				v1.2h1.4V16c0,1.1,0.2,1.9,0.6,2.3c0.4,0.4,1,0.7,1.8,0.7c0.6,0,1.2-0.1,1.5-0.2l-0.1-1.2c-0.2,0.1-0.5,0.1-1,0.1
				c-0.9,0-1.2-0.6-1.2-1.7v-4.8h2.4V9.9h-2.4V7.3L12.5,7.7z M6.7,8.9C7.1,8.4,7.4,7.7,7.3,7C6.7,7,6,7.4,5.6,7.9
				C5.2,8.3,4.8,9,4.9,9.7C5.6,9.7,6.3,9.3,6.7,8.9L6.7,8.9z M9.5,11c-0.1,0-1.3,0.7-1.3,2.2c0,1.8,1.6,2.3,1.6,2.4
				c0,0-0.3,0.8-0.8,1.7c-0.5,0.7-1,1.4-1.9,1.4c-0.8,0-1.1-0.5-2-0.5s-1.2,0.4-2,0.5c-0.8,0-1.4-0.8-1.9-1.5
				c-1-1.4-1.8-4.1-0.8-5.9C1,10.4,2,9.9,3,9.8c0.8,0,1.5,0.5,2,0.5c0.5,0,1.3-0.6,2.3-0.5C7.7,9.8,8.8,9.9,9.5,11L9.5,11z"/>
		</g>
	</g>
</g>
</svg>
