<?xml version="1.0" encoding="utf-8"?>
<!-- Generator: Adobe Illustrator 21.0.2, SVG Export Plug-In . SVG Version: 6.00 Build 0)  -->
<!DOCTYPE svg PUBLIC "-//W3C//DTD SVG 1.1//EN" "http://www.w3.org/Graphics/SVG/1.1/DTD/svg11.dtd">
<svg version="1.1" id="Layer_1" xmlns="http://www.w3.org/2000/svg" xmlns:xlink="http://www.w3.org/1999/xlink" x="0px" y="0px"
	 viewBox="0 0 20 20" style="enable-background:new 0 0 20 20;" xml:space="preserve">
<style type="text/css">
	.st0{fill:#000000;}
</style>
<path id="Combined-Shape" class="st0" d="M3,3v14h14V3H3z M10.6,14.2c-0.3-0.3-0.5-0.5-0.6-0.8c0.7-0.4,0.7-0.4,1.4-0.8
	c0.4,0.5,0.7,0.8,1.3,1c0.8,0.1,1.7-0.2,1.5-1c-0.2-0.7-1.7-0.8-2.8-1.6c-1.1-0.7-1.3-2.3-0.4-3.2c0.3-0.3,0.8-0.6,1.3-0.7L12.9,7
	c1,0,1.7,0.2,2.2,0.7c0.1,0.1,0.2,0.3,0.4,0.6c-0.6,0.3-0.6,0.3-1.3,0.8c-0.2-0.3-0.5-0.6-0.7-0.6c-0.5-0.1-1,0-1.2,0.5
	c0,0.1,0,0.3,0,0.5c0.2,0.4,0.8,0.6,1.4,0.8c1.6,0.6,2.2,1.3,2.3,2c0.1,0.7,0,1.1-0.1,1.2C15.3,15.3,12,15.4,10.6,14.2z M8.7,13.9
	c-0.3,0.5-0.8,0.9-1.3,1C6.5,15.1,5.6,15,5,14.6c-0.4-0.3-0.8-0.6-1-1.1l1.4-0.8c0,0,0,0.1,0.1,0.1c0.2,0.3,0.3,0.5,0.6,0.6
	c0.3,0.1,0.7,0,0.9-0.5v-2V7h2c0,1.5,0,3,0,4.5C9,12.4,9.1,13.2,8.7,13.9z"/>
</svg>
