<?xml version="1.0" encoding="utf-8"?>
<!-- Generator: Adobe Illustrator 21.0.2, SVG Export Plug-In . SVG Version: 6.00 Build 0)  -->
<!DOCTYPE svg PUBLIC "-//W3C//DTD SVG 1.1//EN" "http://www.w3.org/Graphics/SVG/1.1/DTD/svg11.dtd">
<svg version="1.1" id="Layer_1" xmlns="http://www.w3.org/2000/svg" xmlns:xlink="http://www.w3.org/1999/xlink" x="0px" y="0px"
	 viewBox="0 0 14 16" style="enable-background:new 0 0 14 16;" xml:space="preserve">
<style type="text/css">
	.st0{fill:none;}
	.st1{fill:#CDD1D3;}
</style>
<title>Icon-Platform-iOS</title>
<desc>Created with Sketch.</desc>
<g id="Icons">
	<g id="Input_x2F_Output-Copy" transform="translate(-403.000000, -42.000000)">
		<g id="Icon-Platform-iOS" transform="translate(400.000000, 40.000000)">
			<polygon id="Bounds" class="st0" points="0,0 20,0 20,20 0,20 			"/>
			<path id="Combined-Shape" class="st1" d="M13.4,5.9c-1.4-0.1-2.6,0.7-3.3,0.7c-0.7,0-1.7-0.7-2.8-0.7c-1.5,0-2.8,0.8-3.6,2
				C2.2,10.4,3.3,14,4.8,16c0.7,1,1.6,2.1,2.7,2c1.1,0,1.5-0.7,2.8-0.7S12,18,13.2,18c1.2,0,1.9-1,2.6-2c0.8-1.1,1.2-2.2,1.2-2.3
				c0,0-2.3-0.8-2.3-3.2c0-2,1.8-3,1.9-3C15.5,6.1,14,5.9,13.4,5.9z M12.5,4.6c0.6-0.7,1-1.6,0.9-2.6c-0.9,0-1.9,0.5-2.5,1.2
				c-0.6,0.6-1,1.6-0.9,2.5C10.9,5.8,11.9,5.2,12.5,4.6z"/>
		</g>
	</g>
</g>
</svg>
