<?xml version="1.0" encoding="utf-8"?>
<!-- Generator: Adobe Illustrator 21.0.0, SVG Export Plug-In . SVG Version: 6.00 Build 0)  -->
<!DOCTYPE svg PUBLIC "-//W3C//DTD SVG 1.1//EN" "http://www.w3.org/Graphics/SVG/1.1/DTD/svg11.dtd">
<svg version="1.1" id="Layer_1" xmlns="http://www.w3.org/2000/svg" xmlns:xlink="http://www.w3.org/1999/xlink" x="0px" y="0px"
	 viewBox="0 0 24 24" style="enable-background:new 0 0 24 24;" xml:space="preserve">
<style type="text/css">
	.st0{fill:#CDD1D3;}
</style>
<title>platform-Roku</title>
<desc>Created with Sketch.</desc>
<g id="exports">
	<g id="Icons" transform="translate(-413.000000, -457.000000)">
		<g id="platform-Roku" transform="translate(413.000000, 457.000000)">
			<path id="Fill-1" class="st0" d="M12.9,10.9c-0.4,0.7-1.2,1.1-1.9,1.1c-0.4,0-0.8,0-1.2,0V7.3c0.7,0,1.4-0.1,2.1,0.2
				c0.7,0.3,1.2,1,1.4,1.7C13.3,9.8,13.2,10.4,12.9,10.9 M14.5,13.5c0.9-0.6,1.7-1.4,2.1-2.4c0.4-1,0.4-2.2-0.1-3.2
				c-0.4-0.9-1.2-1.7-2.2-2.2c-0.8-0.5-1.8-0.7-2.8-0.8H6v14c1.2,0,2.5,0,3.7,0c0-1.5,0-3.1,0-4.6c0.4,0,0.8,0,1.1,0
				c1.1,1.6,2.2,3.1,3.4,4.7c1.4,0,2.8,0,4.2,0C17.1,17.2,15.8,15.3,14.5,13.5"/>
		</g>
	</g>
</g>
</svg>
