<?xml version="1.0" encoding="utf-8"?>
<!-- Generator: Adobe Illustrator 21.0.2, SVG Export Plug-In . SVG Version: 6.00 Build 0)  -->
<!DOCTYPE svg PUBLIC "-//W3C//DTD SVG 1.1//EN" "http://www.w3.org/Graphics/SVG/1.1/DTD/svg11.dtd">
<svg version="1.1" id="Layer_1" xmlns="http://www.w3.org/2000/svg" xmlns:xlink="http://www.w3.org/1999/xlink" x="0px" y="0px"
	 viewBox="0 0 16 18" style="enable-background:new 0 0 16 18;" xml:space="preserve">
<style type="text/css">
	.st0{fill:none;}
	.st1{fill:#000000;}
</style>
<title>Icon-Platform-Android</title>
<desc>Created with Sketch.</desc>
<g id="Icons">
	<g id="Input_x2F_Output-Copy" transform="translate(-342.000000, -41.000000)">
		<g id="Icon-Platform-Android" transform="translate(340.000000, 40.000000)">
			<polygon id="Bounds" class="st0" points="0,0 20,0 20,20 0,20 			"/>
			<path id="Shape-Copy" class="st1" d="M5,14c0,0.5,0.5,1,1,1h1v3c0,0.6,0.4,1,1,1s1-0.4,1-1v-3h2v3c0,0.6,0.4,1,1,1s1-0.4,1-1v-3
				h1c0.5,0,1-0.5,1-1V7H5V14z M3,7C2.5,7,2,7.5,2,8.1v4.9C2,13.5,2.5,14,3,14s1-0.5,1-1.1V8.1C4,7.5,3.5,7,3,7L3,7z M17,7
				c-0.5,0-1,0.5-1,1.1v4.9c0,0.6,0.5,1.1,1,1.1s1-0.5,1-1.1V8.1C18,7.5,17.5,7,17,7L17,7z M12.9,2.6L14,1.6c0.2-0.1,0.2-0.4,0-0.5
				s-0.4-0.1-0.6,0l-1.2,1.1c-0.6-0.4-1.3-0.5-2.2-0.5S8.4,1.8,7.8,2.1L6.6,1.1C6.4,1,6.1,1,5.9,1.1c-0.1,0.1-0.1,0.4,0,0.6L7,2.6
				C5.8,3.3,5,4.6,5,6h10C15,4.6,14.2,3.3,12.9,2.6L12.9,2.6z M8,5H7V4h1V5L8,5z M13,5h-1V4h1V5L13,5z"/>
		</g>
	</g>
</g>
</svg>
