<?xml version="1.0" encoding="utf-8"?>
<!-- Generator: Adobe Illustrator 21.0.2, SVG Export Plug-In . SVG Version: 6.00 Build 0)  -->
<!DOCTYPE svg PUBLIC "-//W3C//DTD SVG 1.1//EN" "http://www.w3.org/Graphics/SVG/1.1/DTD/svg11.dtd">
<svg version="1.1" id="Layer_1" xmlns="http://www.w3.org/2000/svg" xmlns:xlink="http://www.w3.org/1999/xlink" x="0px" y="0px"
	 viewBox="0 0 26 26" style="enable-background:new 0 0 26 26;" xml:space="preserve">
<style type="text/css">
	.st0{fill:#CACCCD;}
</style>
<g>
	<path class="st0" d="M9.1,15.1c-0.3,0-0.5,0-0.7-0.3c-0.2-0.3,0-0.6,0.1-0.9c2.7-4.3,5.3-8.6,8-12.9c-1.5-0.4-3.1-0.6-4.6-0.5
		C9.6,0.7,7.4,1.6,5.5,3c-3.2,2.3-5.1,6.2-5,10.2c0,2.7,1,5.3,2.6,7.5c1.5,1.9,3.5,3.3,5.7,4.1c0.8-3.2,1.6-6.5,2.4-9.7
		C10.6,15.1,9.9,15.1,9.1,15.1z"/>
	<path class="st0" d="M23.4,6c-1.5-2.2-3.7-4-6.3-4.9c-0.8,3.2-1.6,6.4-2.4,9.6c0.7,0,1.4,0,2.2,0c0.2,0,0.5,0,0.7,0.3
		c0.2,0.3,0,0.7-0.1,0.9c-2.7,4.3-5.3,8.7-8,13c3.3,0.9,7,0.5,9.9-1.3c3.2-1.9,5.6-5.3,6-9.1C25.8,11.7,25.1,8.5,23.4,6z"/>
</g>
</svg>
