<?xml version="1.0" encoding="utf-8"?>
<!-- Generator: Adobe Illustrator 21.0.2, SVG Export Plug-In . SVG Version: 6.00 Build 0)  -->
<!DOCTYPE svg PUBLIC "-//W3C//DTD SVG 1.1//EN" "http://www.w3.org/Graphics/SVG/1.1/DTD/svg11.dtd">
<svg version="1.1" id="Layer_1" xmlns="http://www.w3.org/2000/svg" xmlns:xlink="http://www.w3.org/1999/xlink" x="0px" y="0px"
	 viewBox="0 0 22 21" style="enable-background:new 0 0 22 21;" xml:space="preserve">
<style type="text/css">
	.st0{fill:#000000;}
</style>
<path class="st0" d="M20,21h-3.6l0.2-3h-1.8l-0.2,3H7.3l-0.3-3H5.3l0.3,3H2L0,8l5-8h12l5,8L20,21z M16,4h-3.2L13,5.5H9L9.2,4H6L4,8
	l1,8h12l1-8L16,4L16,4z M14.2,13.3c-0.3,0-0.5-0.8-0.5-1.9c0-1,0.2-1.9,0.5-1.9s0.5,0.8,0.5,1.9C14.7,12.5,14.5,13.3,14.2,13.3z
	 M7.9,13.5c-0.3,0-0.5-0.8-0.5-1.9c0-1,0.2-1.9,0.5-1.9s0.5,0.8,0.5,1.9C8.4,12.7,8.2,13.5,7.9,13.5z"/>
</svg>
