<svg xmlns="http://www.w3.org/2000/svg" viewBox="0 0 24 24"><title>platform-XBox</title><path fill="#000000" d="M7.8 14.7c1.2-1.6 2.6-3.1 4.2-4.4 1 .8 2 1.7 2.9 2.7.9 1.1 1.8 2.2 2.4 3.5.2.5.4 1.1 0 1.6-1.3 1.2-3 1.9-4.8 1.9-2.1.1-4.2-.6-5.7-2-.3-.3-.3-.7-.2-1.1.2-.8.7-1.5 1.2-2.2m8.5-8c.4-.2.8-.5 1.3-.4 1.4 1.4 2.3 3.2 2.4 5.2.1 1.9-.4 3.9-1.7 5.5.2-.6 0-1.3-.1-1.9-.4-1.2-1-2.3-1.6-3.4-.7-1.1-1.4-2.2-2.2-3.2.5-.8 1.2-1.3 1.9-1.8m-10-.4c.2-.2.6-.1.8 0 1 .5 1.8 1.2 2.5 2-1 1.2-1.9 2.5-2.7 3.9-.6 1.1-1.2 2.3-1.4 3.5-.1.4 0 .8.1 1.1-1.2-1.5-1.8-3.5-1.7-5.5.2-1.8 1.1-3.6 2.4-5m1.6-1.2c2.4-1.5 5.7-1.5 8.1 0-1.5-.2-2.8.6-4.1 1.3-1.1-.7-2.5-1.4-4-1.3"/></svg>