<?xml version="1.0" encoding="utf-8"?>
<!-- Generator: Adobe Illustrator 23.1.1, SVG Export Plug-In . SVG Version: 6.00 Build 0)  -->
<svg version="1.1" id="Content" xmlns="http://www.w3.org/2000/svg" xmlns:xlink="http://www.w3.org/1999/xlink" x="0px" y="0px"
	 width="33.7px" height="33.7px" viewBox="0 0 33.7 33.7" style="enable-background:new 0 0 33.7 33.7;" xml:space="preserve">
<style type="text/css">
	.st0{fill:#CCCCCC;}
	.st1{fill:#121212;}
</style>
<title>Icon_API</title>
<path class="st0" d="M30.1,17.1c0-2.8-0.9-5.5-2.4-7.6L30.2,7l-3.1-3.2l-2.6,2.5c-1.5-1.1-3.2-1.8-5.1-2V0.5H15v3.7
	c-1.8,0.3-3.5,1.1-5.1,2L7.3,3.7L4.2,6.9l2.5,2.5c-1.5,2.1-2.4,4.8-2.4,7.7c0,2.7,0.9,5.3,2.3,7.4L4.2,27l3.2,3.2l2.3-2.3
	c1.5,1.2,3.4,1.9,5.3,2.3v3.3h4.4v-3.3c1.9-0.4,3.7-1.2,5.3-2.2l2.3,2.3l3.2-3.2l-2.4-2.4C29.2,22.4,30.1,19.9,30.1,17.1z"/>
<g>
	<path class="st1" d="M7.3,14.7H3.6H0.3V19h3.3h3.6c1,1.7,2.8,3,4.4,3h2.1V11.7h-2.1C10.1,11.8,8.3,13,7.3,14.7z"/>
	<path class="st1" d="M30,14.7h-3.4c-0.8-1.6-2.5-3-3.9-3h-2.5v2.4h-3.4v1.8h3.4v1.9h-3.4v1.8h3.4V22h2.5c1.4,0,3.3-1.5,4-3h3.4h3.3
		v-4.3H30L30,14.7z"/>
</g>
</svg>
