<?xml version="1.0" encoding="utf-8"?>
<!-- Generator: Adobe Illustrator 23.1.1, SVG Export Plug-In . SVG Version: 6.00 Build 0)  -->
<svg version="1.1" id="Content" xmlns="http://www.w3.org/2000/svg" xmlns:xlink="http://www.w3.org/1999/xlink" x="0px" y="0px"
	 viewBox="0 0 36 24" style="enable-background:new 0 0 36 24;" xml:space="preserve">
<style type="text/css">
	.st0{fill:#313131;}
	.st1{fill:#CCCCCC;}
	.st2{fill:#676E73;}
</style>
<g>
	<title>Icon_Audience</title>
	<path class="st0" d="M18,13.6c-5.3,0-9.7,4.3-9.7,9.7h19.4C27.7,18,23.3,13.6,18,13.6z"/>
	<circle class="st0" cx="18" cy="6.9" r="5.3"/>
	<circle class="st1" cx="28.5" cy="7.4" r="3.7"/>
	<path class="st1" d="M26.6,19h8.7c0-3.8-3-6.9-6.8-6.9c-2.2,0-4.3,1.1-5.6,2.9C24.5,15.9,25.8,17.3,26.6,19z"/>
	<path class="st2" d="M26.6,19c-0.8-1.6-2.1-3.1-3.7-4c-0.8,1.2-1.3,2.6-1.3,4H26.6z"/>
	<circle class="st1" cx="7.5" cy="7.4" r="3.7"/>
	<path class="st1" d="M13,15c-2.2-3.1-6.5-3.8-9.5-1.6c-1.8,1.3-2.9,3.4-2.9,5.6h8.7C10.1,17.4,11.4,15.9,13,15z"/>
	<path class="st2" d="M13,15c-1.6,0.9-2.9,2.4-3.7,4h5C14.3,17.6,13.9,16.2,13,15z"/>
</g>
</svg>
