<?xml version="1.0" encoding="utf-8"?>
<!-- Generator: Adobe Illustrator 23.1.1, SVG Export Plug-In . SVG Version: 6.00 Build 0)  -->
<svg version="1.1" id="Layer_1" xmlns="http://www.w3.org/2000/svg" xmlns:xlink="http://www.w3.org/1999/xlink" x="0px" y="0px"
	 viewBox="0 0 36 36" style="enable-background:new 0 0 36 36;" xml:space="preserve">
<style type="text/css">
	.st0{fill:none;}
	.st1{fill:#98A0A3;}
	.st2{fill:#CCCCCC;}
</style>
<title>Platform_Rules</title>
<g id="Layer_1-2">
	<g>
		<path class="st0" d="M1.1,22.1h12.1l3-3H0.7C0.8,20.1,0.9,21.1,1.1,22.1z"/>
		<path class="st0" d="M2.2,11.2h22l3-3H3.9C3.3,9.2,2.7,10.1,2.2,11.2z"/>
		<path class="st0" d="M0.8,16.7h17.9l3-3H1.3C1,14.7,0.9,15.7,0.8,16.7z"/>
		<path class="st0" d="M3.4,27.5h4.5l2.9-2.9H1.9C2.4,25.6,2.9,26.6,3.4,27.5z"/>
		<path class="st0" d="M10.4,2.9c-1.5,0.7-3,1.7-4.3,2.9h23.1c-1.3-1.2-2.7-2.1-4.3-2.9H10.4z"/>
		<path class="st1" d="M1.9,24.6h8.8l2.5-2.5H1.1C1.4,23,1.6,23.8,1.9,24.6z"/>
		<path class="st1" d="M0.7,19.2h15.5l2.5-2.5H0.8C0.7,17.5,0.6,18.3,0.7,19.2z"/>
		<path class="st1" d="M1.3,13.7h20.4l2.5-2.5h-22C1.9,12,1.5,12.9,1.3,13.7z"/>
		<path class="st1" d="M5.9,5.9c-0.7,0.7-1.4,1.5-2,2.3h23.2l2.3-2.3c-0.1-0.1-0.2-0.1-0.2-0.2h-23C6.1,5.8,6,5.8,5.9,5.9z"/>
		<path class="st1" d="M10.4,2.9H25C20.4,0.7,15,0.7,10.4,2.9z"/>
		<path class="st1" d="M5.4,30l2.5-2.5H3.4C4,28.4,4.7,29.2,5.4,30z"/>
	</g>
	<path class="st2" d="M10,33.3c8.4,4.1,18.6,0.6,22.7-7.9c2.2-4.7,2.2-10.2,0-14.8L10,33.3z"/>
	<g>
		<rect x="-6.2" y="16.8" transform="matrix(0.7071 -0.7071 0.7071 0.7071 -7.4705 18.0352)" width="48.4" height="2.5"/>
	</g>
</g>
</svg>
