<svg xmlns="http://www.w3.org/2000/svg" width="32" height="25.05" viewBox="0 0 32 25.05"><defs><style>.cls-1{fill:#ccc;}</style></defs><title>Asset 3</title><g id="Layer_2" data-name="Layer 2"><g id="Layer_1-2" data-name="Layer 1"><path class="cls-1" d="M32,21.92a3.07,3.07,0,0,0-3-3.14V4.17H0V25.05H29a3.09,3.09,0,0,0,3-3.13"/><path d="M29,0H26.43V20.65H29c1.63,0,3,0,3,1.61V3a3,3,0,0,0-3-3"/><polygon points="2.78 8.35 2.78 15.3 5.57 15.3 5.57 11.13 12.52 11.13 12.52 8.35 2.78 8.35"/><path d="M22.16,9a.8.8,0,0,1,.81-.8h0a.8.8,0,0,1,.79.8h0a.8.8,0,0,1-.79.81h0A.81.81,0,0,1,22.16,9Z"/><path d="M18.2,9a.8.8,0,0,1,.8-.8h0a.8.8,0,0,1,.81.8h0a.81.81,0,0,1-.81.81h0A.8.8,0,0,1,18.2,9Z"/><path d="M7.37,21a.8.8,0,0,1,.8-.81h0A.81.81,0,0,1,9,21H9a.8.8,0,0,1-.81.8h0A.8.8,0,0,1,7.37,21Z"/><path d="M14.72,9a.81.81,0,0,1,.81-.8h0a.8.8,0,0,1,.81.8h0a.81.81,0,0,1-.81.81h0A.81.81,0,0,1,14.72,9Z"/><path d="M22.15,21a.8.8,0,0,1,.81-.8h0a.8.8,0,0,1,.8.8h0a.8.8,0,0,1-.8.8h0A.8.8,0,0,1,22.15,21Z"/><path d="M22.15,17.08a.8.8,0,0,1,.81-.8h0a.8.8,0,0,1,.8.8h0a.8.8,0,0,1-.8.81h0A.81.81,0,0,1,22.15,17.08Z"/><path d="M22.15,13.22a.81.81,0,0,1,.81-.81h0a.8.8,0,0,1,.8.81h0a.8.8,0,0,1-.8.8h0A.8.8,0,0,1,22.15,13.22Z"/><path d="M18.2,21a.81.81,0,0,1,.81-.81h0a.8.8,0,0,1,.8.81h0a.8.8,0,0,1-.8.8h0A.8.8,0,0,1,18.2,21Z"/><path d="M14.72,21a.81.81,0,0,1,.81-.81h0a.81.81,0,0,1,.81.81h0a.8.8,0,0,1-.81.8h0A.81.81,0,0,1,14.72,21Z"/><path d="M3.37,21a.8.8,0,0,1,.8-.81h0A.81.81,0,0,1,5,21H5a.8.8,0,0,1-.81.8h0A.8.8,0,0,1,3.37,21Z"/><path d="M10.74,21a.8.8,0,0,1,.8-.81h0a.81.81,0,0,1,.81.81h0a.8.8,0,0,1-.81.8h0A.8.8,0,0,1,10.74,21Z"/></g></g></svg>